<svg width="39" height="47" viewBox="0 0 39 47" fill="none" xmlns="http://www.w3.org/2000/svg">
<path d="M34.5557 0.149597C35.0404 0.149597 35.4434 0.537006 35.4434 1.01874V18.3693C36.1534 18.3863 36.9077 18.6994 37.5078 19.2844L37.7002 19.4855C38.6085 20.5235 38.7288 21.9749 37.8584 22.8234L35.4434 25.1769V36.4797C35.4434 36.7491 35.3119 36.992 35.1201 37.1525L35.1211 37.1535L25.9453 46.0891C25.786 46.3075 25.5185 46.4503 25.2295 46.4504H1.03711C0.552384 46.4504 0.149414 46.063 0.149414 45.5812V1.01874C0.149414 0.537006 0.552384 0.149597 1.03711 0.149597H34.5557ZM1.9248 44.7121H24.3418V36.4797C24.342 35.9981 24.7449 35.6115 25.2295 35.6115H33.6777V26.8986L21.8867 38.3937C21.7186 38.5574 21.4958 38.6428 21.2568 38.6428C21.2369 38.6428 21.1997 38.6403 21.1572 38.631V38.633L18.7334 38.3644H18.7217L14.2334 38.3371V38.3361C13.9264 38.3358 13.6274 38.1771 13.4697 37.9045L12.5557 36.3596L10.5537 38.0851C10.364 38.2483 10.1093 38.3233 9.85645 38.2912C9.60069 38.2587 9.37923 38.1177 9.23633 37.9142L9.23535 37.9123L6.94043 34.5617L6.93945 34.5598C6.67292 34.1592 6.77312 33.6247 7.18457 33.3537L7.18652 33.3527C7.59221 33.0962 8.13474 33.1904 8.41309 33.592H8.41406L10.1426 36.1213L12.1914 34.3537C12.3911 34.1807 12.6574 34.1057 12.9219 34.1486C13.1864 34.1916 13.4103 34.3435 13.5439 34.5715H13.543L14.7432 36.6086L17.8252 36.6252L17.6611 35.2326L17.6553 35.133C17.6546 34.9018 17.7532 34.6819 17.9141 34.5158L17.918 34.5129L33.6777 19.1564V1.88788H1.9248V44.7121ZM26.1162 43.4728L32.4082 37.3488H26.1162V43.4728ZM19.4697 35.4484L19.6221 36.7209L20.9355 36.8703L33.9346 24.1984L34.4238 23.7209L32.9609 22.2961L19.4697 35.4484ZM29.5225 25.8644C29.869 25.5893 30.3846 25.6096 30.707 25.924C31.0528 26.2613 31.0527 26.8162 30.707 27.1535L30.7061 27.1545L29.0479 28.7619C28.8797 28.9258 28.6475 29.0109 28.4268 29.0109C28.1994 29.0109 27.9758 28.9363 27.7969 28.7619C27.4511 28.4246 27.4511 27.8698 27.7969 27.5324L27.7979 27.5314L29.4561 25.924L29.5225 25.8644ZM23.3955 23.5187C23.88 23.5189 24.2821 23.9054 24.2822 24.3869C24.2822 24.8685 23.8801 25.2559 23.3955 25.256H7.18457C6.69985 25.256 6.29688 24.8686 6.29688 24.3869C6.29698 23.9053 6.69991 23.5187 7.18457 23.5187H23.3955ZM35.1484 20.173L34.2266 21.0715L35.6895 22.4973L36.6143 21.5949C36.6707 21.5374 36.711 21.3951 36.6582 21.1769C36.6078 20.9684 36.4786 20.7261 36.2588 20.5158L36.2578 20.5148C36.0367 20.2993 35.7865 20.1718 35.5732 20.1232C35.3496 20.0724 35.2071 20.1145 35.1514 20.1711L35.1494 20.173L35.0439 20.0656L35.1484 20.173ZM28.418 18.1818C28.9025 18.1819 29.3045 18.5685 29.3047 19.05C29.3047 19.5317 28.9027 19.9191 28.418 19.9191H7.18457C6.69985 19.9191 6.29688 19.5317 6.29688 19.05C6.29709 18.5684 6.69998 18.1818 7.18457 18.1818H28.418ZM28.418 12.8449C28.9027 12.845 29.3047 13.2323 29.3047 13.7141C29.3045 14.1956 28.9025 14.5822 28.418 14.5822H7.18457C6.69998 14.5822 6.29709 14.1956 6.29688 13.7141C6.29688 13.2323 6.69985 12.8449 7.18457 12.8449H28.418ZM28.418 7.508C28.9027 7.50804 29.3047 7.89543 29.3047 8.37714C29.3046 8.85875 28.9026 9.24525 28.418 9.2453H7.18457C6.69991 9.2453 6.29698 8.85878 6.29688 8.37714C6.29688 7.8954 6.69985 7.508 7.18457 7.508H28.418Z" fill="#1986AC" stroke="#1986AC" stroke-width="0.3"/>
</svg>
