<svg width="60" height="60" viewBox="0 0 60 60" fill="none" xmlns="http://www.w3.org/2000/svg">
<g clip-path="url(#clip0_369_2147)">
<path d="M30 13.725C31.9891 13.725 33.8968 14.5283 35.3033 15.9583C36.7098 17.3883 37.5 19.3277 37.5 21.35C37.5 22.3513 37.306 23.3429 36.9291 24.268C36.5522 25.1931 35.9997 26.0336 35.3033 26.7417C34.6069 27.4497 33.7801 28.0114 32.8701 28.3946C31.9602 28.7778 30.9849 28.975 30 28.975C28.0109 28.975 26.1032 28.1717 24.6967 26.7417C23.2902 25.3117 22.5 23.3723 22.5 21.35C22.5 19.3277 23.2902 17.3883 24.6967 15.9583C26.1032 14.5283 28.0109 13.725 30 13.725ZM30 0C35.5695 0 40.911 2.24937 44.8492 6.25327C48.7875 10.2572 51 15.6876 51 21.35C51 37.3625 30 61 30 61C30 61 9 37.3625 9 21.35C9 15.6876 11.2125 10.2572 15.1508 6.25327C19.089 2.24937 24.4305 0 30 0ZM30 6.1C26.0218 6.1 22.2064 7.70669 19.3934 10.5666C16.5804 13.4266 15 17.3054 15 21.35C15 24.4 15 30.5 30 50.9655C45 30.5 45 24.4 45 21.35C45 17.3054 43.4196 13.4266 40.6066 10.5666C37.7936 7.70669 33.9782 6.1 30 6.1Z" fill="#F2F2EF"/>
</g>
<defs>
<clipPath id="clip0_369_2147">
<rect width="60" height="60" fill="white"/>
</clipPath>
</defs>
</svg>
