<svg width="18" height="18" viewBox="0 0 18 18" fill="none" xmlns="http://www.w3.org/2000/svg">
<path fill-rule="evenodd" clip-rule="evenodd" d="M2.30614 6.85103C4.09721 10.7492 7.27887 13.8385 11.2281 15.514L11.2401 15.519L12.0041 15.859C12.476 16.0695 13.006 16.1111 13.505 15.9769C14.0039 15.8427 14.4415 15.5408 14.7441 15.122L16.0181 13.359C16.0556 13.3071 16.0717 13.2428 16.0631 13.1794C16.0546 13.1159 16.022 13.0582 15.9721 13.018L13.7481 11.223C13.7219 11.2019 13.6916 11.1862 13.6592 11.177C13.6267 11.1679 13.5928 11.1654 13.5593 11.1697C13.5259 11.174 13.4937 11.185 13.4646 11.2021C13.4355 11.2191 13.4102 11.2419 13.3901 11.269L12.5241 12.437C12.4221 12.5748 12.276 12.6735 12.11 12.7166C11.9441 12.7598 11.7683 12.7447 11.6121 12.674C8.65388 11.3326 6.28358 8.96229 4.94214 6.00403C4.87145 5.84782 4.85641 5.67211 4.89953 5.50616C4.94266 5.34022 5.04134 5.19406 5.17914 5.09203L6.34614 4.22503C6.37326 4.20499 6.39604 4.17967 6.41312 4.15059C6.43019 4.12152 6.44121 4.08929 6.44551 4.05584C6.44981 4.0224 6.44729 3.98843 6.43812 3.95598C6.42895 3.92353 6.41331 3.89328 6.39214 3.86703L4.59814 1.64303C4.558 1.59316 4.50026 1.56059 4.43681 1.55203C4.37337 1.54347 4.30906 1.55958 4.25714 1.59703L2.48414 2.87703C2.06254 3.18114 1.75925 3.62185 1.6258 4.12427C1.49236 4.62668 1.537 5.1598 1.75214 5.63303L2.30614 6.85103ZM10.6361 16.892C6.34546 15.0697 2.88906 11.7121 0.943141 7.47603L0.941141 7.47403L0.387141 6.25403C0.0285605 5.46547 -0.0459508 4.57708 0.176266 3.7398C0.398482 2.90252 0.90372 2.168 1.60614 1.66103L3.37914 0.381031C3.74227 0.118952 4.19205 0.00605649 4.63591 0.065584C5.07976 0.125112 5.4839 0.352532 5.76514 0.701032L7.56014 2.92603C7.70827 3.1096 7.81776 3.32123 7.88203 3.54819C7.9463 3.77515 7.96402 4.01276 7.93413 4.24675C7.90424 4.48073 7.82736 4.70625 7.7081 4.90977C7.58884 5.11329 7.42966 5.29059 7.24014 5.43103L6.57014 5.92703C7.70335 8.12305 9.49212 9.91182 11.6881 11.045L12.1851 10.375C12.3256 10.1857 12.5028 10.0266 12.7063 9.90744C12.9097 9.78828 13.1351 9.71144 13.369 9.68156C13.6028 9.65167 13.8403 9.66935 14.0672 9.73353C14.294 9.7977 14.5056 9.90706 14.6891 10.055L16.9141 11.85C17.2629 12.1313 17.4905 12.5356 17.5501 12.9797C17.6096 13.4238 17.4965 13.8738 17.2341 14.237L15.9601 16.001C15.4558 16.699 14.7267 17.2021 13.8953 17.4259C13.0638 17.6497 12.1806 17.5805 11.3941 17.23L10.6361 16.892Z" fill="#1986AC" stroke="#1986AC" stroke-width="0.1"/>
</svg>
