<svg width="22" height="21" viewBox="0 0 22 21" fill="none" xmlns="http://www.w3.org/2000/svg">
<g clip-path="url(#clip0_242_3304)">
<path d="M20.4197 10.8486C20.2753 10.6368 20.2753 10.3632 20.4197 10.1514L21.2231 8.97262C21.9549 7.89892 21.4618 6.45641 20.211 5.99938L18.8352 5.49653C18.588 5.40613 18.4194 5.18477 18.4058 4.9324L18.33 3.52804C18.2609 2.24901 16.9738 1.35824 15.6802 1.69046L14.2576 2.05558C14.002 2.12113 13.7293 2.03659 13.5629 1.84009L12.6367 0.746413C11.7932 -0.249604 10.2036 -0.248005 9.36155 0.746413L8.43532 1.84013C8.26895 2.03668 7.99632 2.12113 7.74065 2.05562L6.31792 1.69051C5.02186 1.35779 3.73711 2.25151 3.66818 3.52808L3.59235 4.93244C3.57868 5.18477 3.4102 5.40617 3.163 5.49653L1.78724 5.99938C0.533804 6.45735 0.0446511 7.90106 0.775073 8.97266L1.57854 10.1514C1.72287 10.3632 1.72287 10.6368 1.57854 10.8486L0.775201 12.0273C0.0432761 13.1012 0.536554 14.5437 1.78728 15.0006L3.16313 15.5035C3.41033 15.5939 3.57885 15.8152 3.59247 16.0676L3.66831 17.472C3.73741 18.7512 5.02474 19.6416 6.31805 19.3095L7.7407 18.9444C7.9964 18.8789 8.26899 18.9634 8.43541 19.1599L9.3616 20.2535C10.2053 21.2498 11.7948 21.2478 12.6368 20.2535L13.563 19.1599C13.7293 18.9634 14.0022 18.879 14.2576 18.9444L15.6804 19.3095C16.9761 19.6424 18.2611 18.7487 18.3301 17.472L18.4059 16.0676C18.4196 15.8153 18.5881 15.5939 18.8353 15.5035L20.2111 15.0007C21.4644 14.5427 21.9536 13.099 21.2233 12.0273L20.4197 10.8486ZM19.6975 13.7205L18.3217 14.2233C17.5444 14.5074 17.0145 15.2036 16.9717 15.997L16.8959 17.4013C16.8739 17.8082 16.4646 18.0912 16.0532 17.9858L14.6304 17.6206C13.8267 17.4142 12.9692 17.6803 12.4461 18.2981L11.52 19.3918C11.2517 19.7086 10.7462 19.708 10.4783 19.3918L9.55225 18.2981C9.14671 17.8192 8.54034 17.5517 7.91377 17.5517C7.73206 17.5517 7.54858 17.5742 7.36782 17.6206L5.94508 17.9858C5.53276 18.0914 5.12439 17.8074 5.10239 17.4013L5.02655 15.997C4.98371 15.2036 4.45378 14.5074 3.67656 14.2233L2.30071 13.7204C1.90209 13.5748 1.74659 13.1157 1.97888 12.7749L2.7823 11.5962C3.23618 10.9302 3.23618 10.0697 2.7823 9.40382L1.97888 8.22508C1.74607 7.88358 1.90291 7.42491 2.30075 7.27951L3.67661 6.77666C4.45386 6.49259 4.98375 5.79639 5.02659 5.00303L5.10243 3.59866C5.12439 3.19175 5.53366 2.90874 5.94513 3.01424L7.36786 3.37936C8.17158 3.5857 9.02902 3.31968 9.5522 2.70186L10.4784 1.60819C10.7467 1.29138 11.2523 1.29204 11.52 1.60819L12.4462 2.7019C12.9694 3.31972 13.8267 3.58574 14.6305 3.37936L16.0533 3.01424C16.4655 2.90854 16.874 3.19257 16.896 3.59866L16.9717 5.00303C17.0145 5.79639 17.5445 6.49263 18.3217 6.77666L19.6976 7.27955C20.0962 7.42515 20.2517 7.88428 20.0194 8.22508L19.216 9.40378C18.7621 10.0697 18.7621 10.9302 19.216 11.5962L20.0194 12.7749C20.2521 13.1164 20.0954 13.5751 19.6975 13.7205Z" fill="#1986AC"/>
<path d="M14.5875 7.00724C14.3071 6.73961 13.8525 6.73961 13.5721 7.00724L6.87043 13.4042C6.59006 13.6719 6.59006 14.1059 6.87047 14.3735C7.01068 14.5074 7.19445 14.5743 7.37819 14.5743C7.56192 14.5743 7.74574 14.5074 7.8859 14.3735L14.5875 7.97647C14.8679 7.70889 14.8679 7.2749 14.5875 7.00724Z" fill="#1986AC"/>
<path d="M8.09621 6.80652C7.30434 6.80652 6.66016 7.42146 6.66016 8.17729C6.66016 8.93317 7.30443 9.54807 8.09621 9.54807C8.88807 9.54807 9.53226 8.93313 9.53226 8.17729C9.5323 7.42146 8.88807 6.80652 8.09621 6.80652Z" fill="#1986AC"/>
<path d="M13.3618 11.8328C12.57 11.8328 11.9258 12.4477 11.9258 13.2035C11.9258 13.9594 12.57 14.5743 13.3618 14.5743C14.1537 14.5743 14.7979 13.9594 14.7979 13.2035C14.7979 12.4477 14.1537 11.8328 13.3618 11.8328Z" fill="#1986AC"/>
</g>
<defs>
<clipPath id="clip0_242_3304">
<rect width="22" height="21" fill="white"/>
</clipPath>
</defs>
</svg>
