<svg width="14" height="14" viewBox="0 0 14 14" fill="none" xmlns="http://www.w3.org/2000/svg">
<g clip-path="url(#clip0_379_1724)">
<path d="M11.7188 -0.150391C11.9217 -0.150179 12.0869 0.0157248 12.0869 0.21875V5.4043C12.2942 5.43398 12.5014 5.53672 12.6689 5.7041L12.7305 5.77051C13.0249 6.11558 13.0823 6.61984 12.7734 6.92871L12.0869 7.61426V11.0117C12.0868 11.1231 12.0351 11.2219 11.96 11.2891L11.9609 11.29L9.2373 14.0107L9.23633 14.0098C9.16876 14.0945 9.06522 14.1504 8.95117 14.1504H1.77344C1.57028 14.1504 1.4043 13.9844 1.4043 13.7812V0.21875C1.4043 0.0155948 1.57028 -0.150391 1.77344 -0.150391H11.7188ZM2.14258 13.4121H8.58203V11.1191L8.03418 11.667C7.96355 11.7375 7.87013 11.7734 7.77246 11.7734C7.76869 11.7735 7.7527 11.7711 7.73145 11.7676V11.7705L7.0166 11.6885L5.68848 11.6807V11.6797C5.56018 11.6795 5.43497 11.6126 5.36914 11.4951V11.4941L5.16406 11.1387L4.66699 11.5781C4.58758 11.648 4.48098 11.6797 4.37598 11.666C4.26809 11.6519 4.17709 11.5906 4.11914 11.5059L4.11816 11.5049L3.43652 10.4844L3.43555 10.4834C3.32685 10.3158 3.36706 10.0892 3.53809 9.97363L3.54004 9.97266C3.68683 9.87744 3.87895 9.89556 4.00195 10.0166L4.0498 10.0742V10.0752L4.49609 10.7432L5.0127 10.2861C5.09568 10.2126 5.20711 10.1808 5.31738 10.1992C5.42748 10.2176 5.52109 10.2825 5.57617 10.3789L5.90234 10.9463L6.63574 10.9502L6.60059 10.6426V10.5596C6.61021 10.4765 6.64915 10.401 6.7041 10.3428L6.70703 10.3389L11.3525 5.69531V0.587891H2.14258V13.4121ZM9.32031 12.8848L10.8281 11.3799H9.32031V12.8848ZM7.35254 10.7344L7.38281 10.9912L7.6377 11.0205L9.82422 8.83496C9.7574 8.82171 9.69223 8.78988 9.6377 8.73535C9.58523 8.68273 9.55201 8.6179 9.53809 8.5498L7.35254 10.7344ZM9.05859 10.6426H11.3525V8.34863L9.05859 10.6426ZM10.4629 7.62402C10.5321 7.63765 10.598 7.67221 10.6514 7.72559C10.7032 7.77745 10.7357 7.84115 10.75 7.9082L11.459 7.2002L11.5303 7.12793L11.2451 6.84277L10.4629 7.62402ZM8.40723 6.96191C8.61029 6.96202 8.77539 7.12796 8.77539 7.33105C8.77528 7.53406 8.61023 7.69911 8.40723 7.69922H3.59766C3.39457 7.69922 3.22862 7.53412 3.22852 7.33105C3.22852 7.1279 3.3945 6.96191 3.59766 6.96191H8.40723ZM11.7686 6.32129L12.0547 6.60742L12.2422 6.41895C12.2429 6.41126 12.2439 6.39759 12.2393 6.37793C12.229 6.33429 12.2011 6.27731 12.1494 6.22656L12.1484 6.22559C12.0956 6.17279 12.0386 6.1447 11.9961 6.13477C11.979 6.13079 11.9669 6.13043 11.96 6.13086L11.7686 6.32129ZM9.89746 5.33789C10.1005 5.338 10.2656 5.50394 10.2656 5.70703C10.2654 5.90994 10.1004 6.07509 9.89746 6.0752H3.59766C3.39463 6.0752 3.22873 5.91001 3.22852 5.70703C3.22852 5.50388 3.3945 5.33789 3.59766 5.33789H9.89746ZM9.89746 3.71387C10.1004 3.71397 10.2654 3.87912 10.2656 4.08203C10.2656 4.28512 10.1005 4.45107 9.89746 4.45117H3.59766C3.3945 4.45117 3.22852 4.28519 3.22852 4.08203C3.22873 3.87905 3.39463 3.71387 3.59766 3.71387H9.89746ZM9.89746 2.08984C10.1005 2.08995 10.2655 2.25501 10.2656 2.45801C10.2656 2.6611 10.1005 2.82704 9.89746 2.82715H3.59766C3.3945 2.82715 3.22852 2.66116 3.22852 2.45801C3.22862 2.25494 3.39457 2.08984 3.59766 2.08984H9.89746Z" fill="#1986AC" stroke="#1986AC" stroke-width="0.3"/>
</g>
<defs>
<clipPath id="clip0_379_1724">
<rect width="14" height="14" fill="white"/>
</clipPath>
</defs>
</svg>
