<svg width="18" height="18" viewBox="0 0 18 18" fill="none" xmlns="http://www.w3.org/2000/svg">
<path d="M10.0938 1.93994C13.2714 0.294183 17.0798 2.61339 17.0801 6.18799C17.0801 7.33866 16.6137 10.1777 15.7939 12.7271C15.3839 14.0023 14.8827 15.2124 14.3037 16.106C13.729 16.9928 13.0565 17.5989 12.2939 17.5991C11.7547 17.5991 11.2506 17.3234 10.7764 16.7925C10.3028 16.2622 9.85032 15.4692 9.41113 14.4136C9.25623 14.0411 8.72426 14.0412 8.56934 14.4136C8.13015 15.4692 7.67763 16.2622 7.2041 16.7925C6.72984 17.3234 6.22576 17.5991 5.68652 17.5991C4.91696 17.5989 4.24108 16.9885 3.66504 16.0962C3.0847 15.1972 2.58409 13.9803 2.17578 12.7007C1.35954 10.1426 0.900391 7.30351 0.900391 6.18799C0.900613 2.61218 4.71042 0.294869 7.88672 1.93994L8.01758 2.00244C8.68009 2.2961 9.44592 2.2755 10.0938 1.93994ZM16.0459 6.18799C16.0456 3.37998 13.0522 1.572 10.5693 2.85791C9.58043 3.3699 8.40004 3.3699 7.41113 2.85791C4.92571 1.57077 1.93484 3.38258 1.93457 6.18799C1.93457 7.46649 2.43759 10.0748 3.1709 12.3667C3.53719 13.5115 3.95866 14.571 4.40039 15.3423C4.62142 15.7282 4.84484 16.038 5.06543 16.2495C5.28693 16.4619 5.49507 16.5658 5.68652 16.5659C5.80753 16.5659 5.94524 16.5171 6.09766 16.4097C6.25007 16.3021 6.41262 16.1391 6.58105 15.9214C6.91795 15.4858 7.27099 14.8423 7.61426 14.0171C8.12289 12.7944 9.8578 12.7952 10.3662 14.0171C10.7095 14.8423 11.0625 15.4858 11.3994 15.9214C11.5678 16.1391 11.7304 16.3021 11.8828 16.4097C12.0352 16.5171 12.1729 16.5659 12.2939 16.5659C12.4855 16.5657 12.6934 16.4612 12.915 16.2485C13.1356 16.0368 13.3591 15.7274 13.5801 15.3413C14.0219 14.5691 14.4443 13.5085 14.8105 12.3628C15.5437 10.0694 16.0459 7.46092 16.0459 6.18799Z" fill="#1986AC" stroke="#01A7E0" stroke-width="0.2"/>
<path d="M14.6143 5.67188C14.8998 5.67188 15.132 5.90282 15.1318 6.18848C15.1318 6.94636 14.833 9.03958 14.1729 11.3438C14.094 11.619 13.8066 11.7766 13.5332 11.6982C13.2587 11.6198 13.0992 11.334 13.1777 11.0596C13.8133 8.84112 14.0976 6.8712 14.0977 6.18848C14.0977 5.90294 14.3288 5.67203 14.6143 5.67188Z" fill="#1986AC" stroke="#01A7E0" stroke-width="0.2"/>
<path d="M5.68457 3.35181C5.97015 3.35181 6.20215 3.58278 6.20215 3.86841C6.2021 4.154 5.97013 4.38501 5.68457 4.38501C4.68941 4.38517 3.87988 5.19477 3.87988 6.18872C3.87965 6.47415 3.64774 6.70532 3.3623 6.70532C3.07701 6.70515 2.84593 6.47404 2.8457 6.18872C2.8457 4.62438 4.11901 3.35197 5.68457 3.35181Z" fill="#1986AC" stroke="#01A7E0" stroke-width="0.2"/>
</svg>
