<svg width="73" height="73" viewBox="0 0 73 73" fill="none" xmlns="http://www.w3.org/2000/svg">
<path d="M36.5004 73C30.5939 73 24.8201 71.2485 19.909 67.9671C14.998 64.6856 11.1703 60.0216 8.90997 54.5647C6.64966 49.1078 6.05826 43.1032 7.21055 37.3103C8.36285 31.5173 11.2071 26.1961 15.3836 22.0196C19.5601 17.8431 24.8813 14.9988 30.6743 13.8466C36.4672 12.6943 42.4718 13.2857 47.9287 15.546C53.3856 17.8063 58.0496 21.634 61.3311 26.545C64.6125 31.4561 66.364 37.2299 66.364 43.1364C66.3552 51.054 63.2061 58.6448 57.6074 64.2434C52.0088 69.8421 44.418 72.9912 36.5004 73ZM36.5004 19.9091C31.9064 19.9091 27.4157 21.2713 23.596 23.8236C19.7763 26.3758 16.7992 30.0034 15.0412 34.2477C13.2831 38.4919 12.8232 43.1621 13.7194 47.6678C14.6156 52.1734 16.8278 56.3121 20.0762 59.5605C23.3246 62.8089 27.4633 65.0211 31.969 65.9173C36.4746 66.8136 41.1448 66.3536 45.3891 64.5956C49.6333 62.8375 53.2609 59.8605 55.8131 56.0407C58.3654 52.221 59.7276 47.7303 59.7276 43.1364C59.7208 36.9782 57.2714 31.0742 52.917 26.7198C48.5625 22.3653 42.6585 19.9159 36.5004 19.9091ZM46.1307 9.10543C46.4554 8.81481 46.7197 8.46308 46.9085 8.07032C47.0973 7.67757 47.2068 7.25147 47.2309 6.81637C47.255 6.38126 47.1932 5.94568 47.0489 5.53447C46.9047 5.12327 46.6808 4.74451 46.3902 4.41982C45.1451 3.02921 43.6208 1.9168 41.9166 1.15522C40.2125 0.393639 38.3669 0 36.5004 0C34.6338 0 32.7882 0.393639 31.0841 1.15522C29.38 1.9168 27.8556 3.02921 26.6105 4.41982C26.0331 5.07689 25.7386 5.93536 25.7908 6.8085C25.8431 7.68164 26.2381 8.49882 26.8898 9.08227C27.5415 9.66573 28.3972 9.96826 29.2708 9.92407C30.1443 9.87987 30.9651 9.49252 31.5546 8.84627C32.1943 8.18025 32.962 7.65035 33.8116 7.28837C34.6612 6.92639 35.5752 6.7398 36.4987 6.7398C37.4222 6.7398 38.3362 6.92639 39.1858 7.28837C40.0354 7.65035 40.8031 8.18025 41.4428 8.84627C41.7334 9.17096 42.0852 9.43523 42.478 9.62397C42.8707 9.81272 43.2968 9.92225 43.7319 9.94631C44.167 9.97038 44.6026 9.9085 45.0138 9.76422C45.425 9.61994 45.806 9.39608 46.1307 9.10543ZM45.4827 52.1187C45.7909 51.8107 46.0355 51.445 46.2023 51.0425C46.3691 50.6399 46.455 50.2085 46.455 49.7727C46.455 49.337 46.3691 48.9055 46.2023 48.503C46.0355 48.1005 45.7909 47.7347 45.4827 47.4268L39.8185 41.7623V29.8636C39.8185 28.9836 39.469 28.1396 38.8467 27.5173C38.2244 26.895 37.3804 26.5455 36.5004 26.5455C35.6203 26.5455 34.7763 26.895 34.1541 27.5173C33.5318 28.1396 33.1822 28.9836 33.1822 29.8636V43.1364C33.1824 44.0163 33.5321 44.8602 34.1544 45.4823L40.7908 52.1187C41.0988 52.4269 41.4645 52.6714 41.867 52.8382C42.2695 53.005 42.701 53.0909 43.1367 53.0909C43.5725 53.0909 44.0039 53.005 44.4064 52.8382C44.809 52.6714 45.1747 52.4269 45.4827 52.1187Z" fill="#204F63"/>
</svg>
