<svg width="16" height="16" viewBox="0 0 16 16" fill="none" xmlns="http://www.w3.org/2000/svg">
<circle cx="8" cy="8" r="7.5" fill="white" stroke="#DB584C"/>
<path d="M8.53517 8.00004L10.9608 5.57456C11.013 5.52229 11.013 5.43759 10.9608 5.38532L10.6148 5.03919C10.5897 5.01416 10.5556 5 10.5202 5C10.4846 5 10.4506 5.01416 10.4255 5.03919L7.99993 7.46473L5.57439 5.03919C5.52414 4.98894 5.4352 4.989 5.38508 5.03919L5.0392 5.38532C4.98693 5.43759 4.98693 5.52229 5.0392 5.57456L7.46475 8.00004L5.0392 10.4255C4.98693 10.4778 4.98693 10.5625 5.0392 10.6148L5.38514 10.9609C5.41024 10.9859 5.4443 11.0001 5.47983 11.0001C5.51535 11.0001 5.54936 10.9859 5.57445 10.9609L7.99999 8.53535L10.4255 10.9609C10.4506 10.9859 10.4848 11.0001 10.5202 11.0001C10.5557 11.0001 10.5898 10.9859 10.6149 10.9609L10.9608 10.6148C11.0131 10.5625 11.0131 10.4778 10.9608 10.4255L8.53517 8.00004Z" fill="#DB584C"/>
</svg>
