<svg width="72" height="73" viewBox="0 0 72 73" fill="none" xmlns="http://www.w3.org/2000/svg">
<path d="M10 31.6425C10 16.9291 21.6415 5 36 5C50.3585 5 62 16.9291 62 31.6425C62 46.2414 53.7028 63.2811 40.7548 69.37C39.2665 70.0715 37.6433 70.4351 36 70.4351C34.3567 70.4351 32.7335 70.0715 31.2452 69.37C18.2972 63.2778 10 46.2447 10 31.6458V31.6425Z" stroke="#204F63" stroke-width="5"/>
<path d="M35.9961 44.2619C43.1758 44.2619 48.9961 38.4025 48.9961 31.1746C48.9961 23.9467 43.1758 18.0873 35.9961 18.0873C28.8164 18.0873 22.9961 23.9467 22.9961 31.1746C22.9961 38.4025 28.8164 44.2619 35.9961 44.2619Z" stroke="#89A0A9" stroke-width="5"/>
<path d="M31.123 31.1748H40.873M35.998 36.0825V26.2671" stroke="#89A0A9" stroke-width="5" stroke-linecap="round"/>
</svg>
