<svg width="62" height="64" viewBox="0 0 62 64" fill="none" xmlns="http://www.w3.org/2000/svg">
<path d="M11.7773 0.199799C13.2207 0.199889 14.5547 0.728836 15.6504 1.72617L15.8662 1.93222L28.458 14.5191L28.5762 14.6373L28.4805 14.775L21.1641 25.2906C22.8218 27.6036 26.0148 31.6494 28.4111 34.0455C30.8625 36.4961 35.3505 40.1069 37.833 41.9303L48.4092 34.7066L48.5459 34.6129L60.0127 46.0797L60.2109 46.2867C61.1738 47.3423 61.6835 48.6606 61.6846 50.1109C61.6862 52.4838 60.3656 54.9766 57.8242 57.5182C55.4175 59.9248 52.4466 61.8842 50.8545 62.5074L50.8369 62.5143L50.834 62.5152C49.1495 63.1537 47.8208 63.4803 46.5342 63.566C46.1944 63.5887 45.8496 63.6002 45.5098 63.6002C41.0801 63.6002 36.8997 61.7307 32.334 58.3727C27.7703 55.016 22.7989 50.1549 16.7881 44.1441C6.34376 33.6998 0.75165 24.2701 0.239258 16.1207C-0.162805 9.72546 2.6851 5.8557 4.42578 4.11484C6.99955 1.54125 9.47363 0.199799 11.7773 0.199799ZM11.7773 4.10507C11.215 4.10507 10.5245 4.33717 9.73828 4.80722C8.95487 5.27567 8.09081 5.97129 7.18652 6.87558C5.90371 8.15842 3.55946 11.3293 4.23535 16.8883C4.91274 22.4589 8.62671 30.4592 19.5498 41.3824C25.4472 47.2797 30.2511 51.9816 34.5303 55.1471C38.809 58.3121 42.5334 59.9178 46.2744 59.6685H46.2754C47.1445 59.6106 48.1165 59.3668 49.4355 58.8678C50.4295 58.4756 52.9206 56.8983 55.0625 54.7564C57.4545 52.3645 57.7798 50.7936 57.7793 50.1139C57.7789 49.6082 57.6085 49.1972 57.2539 48.8434H57.2529L48.0732 39.6637L37.9336 46.5924L37.8223 46.6685L37.71 46.5934L36.7246 45.9322C34.5393 44.4663 29.3054 40.3161 26.2334 37.3775L25.6494 36.8072C22.7231 33.8808 18.6003 28.5806 17.1514 26.3512L16.5088 25.3629L16.4355 25.2496L16.5127 25.1393L23.5039 15.0894L13.1074 4.69589C12.6963 4.28628 12.2771 4.10516 11.7773 4.10507Z" fill="#204F63" stroke="#204F63" stroke-width="0.4"/>
</svg>
