<svg width="71" height="71" viewBox="0 0 71 71" fill="none" xmlns="http://www.w3.org/2000/svg">
<path d="M12.457 0.799805C13.9004 0.799895 15.2344 1.32884 16.3301 2.32617L16.5459 2.53223L29.1377 15.1191L29.2559 15.2373L29.1602 15.375L21.8438 25.8906C23.5015 28.2036 26.6945 32.2494 29.0908 34.6455C31.5421 37.0961 36.0302 40.7069 38.5127 42.5303L49.0889 35.3066L49.2256 35.2129L60.6924 46.6797L60.8906 46.8867C61.8535 47.9423 62.3632 49.2606 62.3643 50.7109C62.3659 53.0838 61.0453 55.5766 58.5039 58.1182C56.0972 60.5248 53.1263 62.4842 51.5342 63.1074L51.5166 63.1143L51.5137 63.1152C49.8292 63.7537 48.5005 64.0803 47.2139 64.166C46.8741 64.1887 46.5293 64.2002 46.1895 64.2002C41.7597 64.2002 37.5794 62.3307 33.0137 58.9727C28.45 55.616 23.4786 50.7549 17.4678 44.7441C7.02345 34.2998 1.43134 24.8701 0.918945 16.7207C0.516883 10.3255 3.36478 6.45571 5.10547 4.71484C7.67923 2.14126 10.1533 0.799805 12.457 0.799805ZM12.457 4.70508C11.8947 4.70508 11.2041 4.93718 10.418 5.40723C9.63455 5.87567 8.7705 6.5713 7.86621 7.47559C6.5834 8.75843 4.23914 11.9293 4.91504 17.4883C5.59242 23.0589 9.3064 31.0592 20.2295 41.9824C26.1269 47.8797 30.9308 52.5816 35.21 55.7471C39.4887 58.9121 43.213 60.5179 46.9541 60.2686H46.9551C47.8242 60.2106 48.7962 59.9668 50.1152 59.4678C51.1092 59.0757 53.6003 57.4983 55.7422 55.3564C58.1342 52.9646 58.4595 51.3936 58.459 50.7139C58.4586 50.2082 58.2882 49.7972 57.9336 49.4434H57.9326L48.7529 40.2637L38.6133 47.1924L38.502 47.2686L38.3896 47.1934L37.4043 46.5322C35.219 45.0663 29.9851 40.9162 26.9131 37.9775L26.3291 37.4072C23.4027 34.4808 19.2799 29.1806 17.8311 26.9512L17.1885 25.9629L17.1152 25.8496L17.1924 25.7393L24.1836 15.6895L13.7871 5.2959C13.376 4.88629 12.9568 4.70517 12.457 4.70508Z" fill="#204F63" stroke="#204F63" stroke-width="0.4"/>
</svg>
