<svg width="83" height="78" viewBox="0 0 83 78" fill="none" xmlns="http://www.w3.org/2000/svg">
<mask id="mask0_2014_988" style="mask-type:alpha" maskUnits="userSpaceOnUse" x="0" y="0" width="83" height="78">
<rect width="83" height="78" fill="#D9D9D9"/>
</mask>
<g mask="url(#mask0_2014_988)">
<path d="M71 75V64.2C71 54.0192 71 48.9288 67.8136 45.7644C64.6309 42.6 59.5015 42.6 49.25 42.6L42 49.8L34.75 42.6C24.4985 42.6 19.3691 42.6 16.1864 45.7644C13.0036 48.9288 13 54.0192 13 64.2V75M54.6875 19.2V15.6C54.6875 12.2583 53.3508 9.05341 50.9714 6.69045C48.592 4.3275 45.3649 3 42 3C38.6351 3 35.408 4.3275 33.0286 6.69045C30.6492 9.05341 29.3125 12.2583 29.3125 15.6V19.2C29.3125 20.8547 29.6407 22.4931 30.2783 24.0218C30.9159 25.5505 31.8504 26.9395 33.0286 28.1095C34.2067 29.2796 35.6054 30.2077 37.1447 30.8409C38.684 31.4741 40.3339 31.8 42 31.8C43.6661 31.8 45.316 31.4741 46.8553 30.8409C48.3946 30.2077 49.7933 29.2796 50.9714 28.1095C52.1496 26.9395 53.0841 25.5505 53.7217 24.0218C54.3593 22.4931 54.6875 20.8547 54.6875 19.2Z" stroke="#89A0A9" stroke-width="5" stroke-linecap="round" stroke-linejoin="round"/>
<path d="M56.5 53V64M62 58.5H51" stroke="#204F63" stroke-width="5" stroke-linecap="round" stroke-linejoin="round"/>
</g>
</svg>
