<svg width="83" height="74" viewBox="0 0 83 74" fill="none" xmlns="http://www.w3.org/2000/svg">
<mask id="mask0_2014_988" style="mask-type:alpha" maskUnits="userSpaceOnUse" x="0" y="0" width="83" height="74">
<rect width="83" height="74" fill="#D9D9D9"/>
</mask>
<g mask="url(#mask0_2014_988)">
<path opacity="0.5" d="M15.6016 28.651C15.6016 14.4852 26.8851 3 40.8021 3C54.7191 3 66.0027 14.4852 66.0027 28.651C66.0027 42.7066 57.9605 59.1122 45.4107 64.9745C43.9682 65.6499 42.3949 66 40.8021 66C39.2093 66 37.636 65.6499 36.1936 64.9745C23.6437 59.109 15.6016 42.7098 15.6016 28.6542V28.651Z" stroke="white" stroke-width="4"/>
<path d="M40.8034 40.8007C47.7623 40.8007 53.4037 35.1593 53.4037 28.2004C53.4037 21.2414 47.7623 15.6001 40.8034 15.6001C33.8445 15.6001 28.2031 21.2414 28.2031 28.2004C28.2031 35.1593 33.8445 40.8007 40.8034 40.8007Z" stroke="#D4E6EC" stroke-width="4"/>
<path d="M36.0781 28.2007H45.5283M40.8032 32.9258V23.4756" stroke="#D4E6EC" stroke-width="4" stroke-linecap="round"/>
</g>
</svg>
