<svg width="83" height="66" viewBox="0 0 83 66" fill="none" xmlns="http://www.w3.org/2000/svg">
<mask id="mask0_2014_988" style="mask-type:alpha" maskUnits="userSpaceOnUse" x="0" y="0" width="83" height="66">
<rect width="83" height="66" fill="#D9D9D9"/>
</mask>
<g mask="url(#mask0_2014_988)">
<path d="M12.8109 19.5236C12.8115 16.3298 13.6402 13.1905 15.2163 10.4102C16.7925 7.62991 19.0627 5.30309 21.8066 3.65555C24.5505 2.00801 27.6749 1.09569 30.8767 1.00713C34.0785 0.918565 37.2488 1.65677 40.0801 3.1501C42.9114 4.64343 45.3074 6.84118 47.0358 9.53007C48.7641 12.219 49.766 15.3077 49.9442 18.4965C50.1224 21.6853 49.471 24.8658 48.053 27.7296C46.635 30.5933 44.4987 33.0429 41.8514 34.8407C47.5524 36.9257 52.4972 40.6641 56.0495 45.5749C59.6017 50.4856 61.5988 56.344 61.7838 62.396C61.7759 63.0486 61.5155 63.6728 61.0569 64.1384C60.5983 64.6039 59.9771 64.8748 59.3229 64.8943C58.6688 64.9139 58.0323 64.6807 57.5466 64.2434C57.0608 63.8061 56.7633 63.1985 56.7162 62.5476C56.5151 55.9837 53.7586 49.7558 49.031 45.1838C44.3034 40.6117 37.9762 38.0547 31.3902 38.0547C24.8043 38.0547 18.4771 40.6117 13.7495 45.1838C9.02189 49.7558 6.26544 55.9837 6.06426 62.5476C6.03043 63.2073 5.73884 63.8276 5.25196 64.2755C4.76507 64.7234 4.12162 64.9634 3.45944 64.944C2.79726 64.9246 2.16903 64.6474 1.70933 64.1718C1.24964 63.6962 0.995034 63.06 1.00007 62.3994C1.18437 56.3468 3.18118 50.4877 6.73347 45.5762C10.2858 40.6648 15.2309 36.9259 20.9325 34.8407C18.4294 33.1409 16.3809 30.8567 14.9654 28.1871C13.5499 25.5175 12.8102 22.5433 12.8109 19.5236ZM31.3919 6.04908C27.8079 6.04908 24.3707 7.46871 21.8365 9.99566C19.3022 12.5226 17.8784 15.9499 17.8784 19.5236C17.8784 23.0972 19.3022 26.5245 21.8365 29.0515C24.3707 31.5784 27.8079 32.9981 31.3919 32.9981C34.9759 32.9981 38.4132 31.5784 40.9474 29.0515C43.4817 26.5245 44.9054 23.0972 44.9054 19.5236C44.9054 15.9499 43.4817 12.5226 40.9474 9.99566C38.4132 7.46871 34.9759 6.04908 31.3919 6.04908ZM59.3987 19.5236C58.9009 19.5236 58.4122 19.5573 57.9325 19.6246C57.5975 19.6844 57.2539 19.6764 56.9222 19.6009C56.5905 19.5254 56.2774 19.3841 56.0016 19.1853C55.7258 18.9866 55.493 18.7345 55.3171 18.4441C55.1411 18.1537 55.0257 17.8309 54.9775 17.495C54.9294 17.1591 54.9496 16.817 55.037 16.4891C55.1243 16.1612 55.277 15.8542 55.486 15.5864C55.6949 15.3186 55.9558 15.0955 56.2531 14.9305C56.5503 14.7654 56.8779 14.6617 57.2162 14.6256C60.5763 14.1412 64.0025 14.7846 66.9556 16.4545C69.9088 18.1244 72.2213 20.7261 73.5291 23.85C74.8369 26.9739 75.0658 30.4428 74.1799 33.7107C73.2939 36.9785 71.3434 39.8599 68.6352 41.9013C72.6162 43.6788 75.9963 46.5669 78.3678 50.2172C80.7393 53.8676 82.0008 58.1242 82 62.4735C82 63.1436 81.7331 63.7862 81.2579 64.26C80.7827 64.7338 80.1382 65 79.4662 65C78.7942 65 78.1497 64.7338 77.6746 64.26C77.1994 63.7862 76.9324 63.1436 76.9324 62.4735C76.9337 58.7142 75.7196 55.0547 73.4704 52.0377C71.2212 49.0207 68.0566 46.8069 64.446 45.7247L62.6419 45.1858V39.5399L64.027 38.8359C66.0803 37.7988 67.7231 36.1021 68.6902 34.0196C69.6574 31.9371 69.8925 29.5903 69.3575 27.3582C68.8226 25.1261 67.5488 23.1388 65.7419 21.7173C63.935 20.2958 61.7003 19.523 59.3987 19.5236Z" fill="#F8F8F8"/>
</g>
</svg>
