<svg width="83" height="74" viewBox="0 0 83 74" fill="none" xmlns="http://www.w3.org/2000/svg">
<mask id="mask0_2014_988" style="mask-type:alpha" maskUnits="userSpaceOnUse" x="0" y="0" width="83" height="74">
<rect width="83" height="74" fill="#D9D9D9"/>
</mask>
<g mask="url(#mask0_2014_988)">
<path d="M40.5049 18.8096C38.3156 18.8096 36.2159 17.9399 34.6678 16.3918C33.1197 14.8437 32.25 12.7441 32.25 10.5547C32.25 8.36538 33.1197 6.26571 34.6678 4.71761C36.2159 3.16952 38.3156 2.2998 40.5049 2.2998C42.6942 2.2998 44.7939 3.16952 46.342 4.71761C47.8901 6.26571 48.7598 8.36538 48.7598 10.5547C48.7598 12.7441 47.8901 14.8437 46.342 16.3918C44.7939 17.9399 42.6942 18.8096 40.5049 18.8096ZM40.5049 18.8096V71.5008M50.3376 38.8225C51.2756 38.8081 52.2032 39.0212 53.0409 39.4435C53.8787 39.8658 54.6016 40.4848 55.1478 41.2475C55.6941 42.0102 56.0474 42.8939 56.1776 43.823C56.3077 44.7521 56.2109 45.6988 55.8952 46.5823" stroke="#3A515F" stroke-width="4" stroke-linecap="round" stroke-linejoin="round"/>
<path d="M48.07 13.8335H72.3334C80.5667 13.8335 68.6427 33.6803 51.5054 27.0586M32.9226 13.8335H8.66539C0.435087 13.8335 12.3561 33.6803 29.4933 27.0586M30.6652 38.8227C29.1185 38.8071 27.6287 39.4054 26.5223 40.4864C25.416 41.5673 24.7833 43.0429 24.7631 44.5895C24.7712 46.1652 25.3914 47.6762 26.4926 48.8032C27.5939 49.9303 29.09 50.5853 30.6652 50.63H46.3999C47.9323 50.6794 49.3853 51.3229 50.4518 52.4244C51.5182 53.5259 52.1145 54.9989 52.1145 56.532C52.1145 58.0652 51.5182 59.5382 50.4518 60.6397C49.3853 61.7411 47.9323 62.3846 46.3999 62.4341H35.583C34.2479 62.4664 32.98 63.0268 32.0575 63.9926C31.135 64.9583 30.6332 66.2505 30.6621 67.5857C30.6567 68.3028 30.799 69.0134 31.0799 69.6732C31.3609 70.333 31.7745 70.9279 32.2952 71.421" stroke="#F8F8F8" stroke-width="4" stroke-linecap="round" stroke-linejoin="round"/>
</g>
</svg>
