<svg width="83" height="74" viewBox="0 0 83 74" fill="none" xmlns="http://www.w3.org/2000/svg">
<mask id="mask0_2014_988" style="mask-type:alpha" maskUnits="userSpaceOnUse" x="0" y="0" width="83" height="74">
<rect width="83" height="74" fill="#D9D9D9"/>
</mask>
<g mask="url(#mask0_2014_988)">
<path d="M3 12.2676C3 9.01403 4.2871 5.89372 6.57815 3.5931C8.8692 1.29248 11.9765 0 15.2166 0H65.9624C67.5667 0 69.1553 0.317312 70.6374 0.933817C72.1196 1.55032 73.4664 2.45395 74.6008 3.5931C75.7352 4.73225 76.6351 6.08462 77.249 7.573C77.8629 9.06137 78.1789 10.6566 78.1789 12.2676V22.6479H8.63842V40.5775C8.63842 44.2238 11.5854 47.1831 15.2166 47.1831H36.8305C36.8355 49.1359 37.0535 51.0232 37.4846 52.8451H15.2166C11.9765 52.8451 8.8692 51.5526 6.57815 49.252C4.2871 46.9514 3 43.831 3 40.5775V12.2676ZM72.5405 16.9859V12.2676C72.5405 10.5157 71.8475 8.83551 70.6138 7.59672C69.3802 6.35792 67.707 5.66197 65.9624 5.66197H15.2166C13.4719 5.66197 11.7988 6.35792 10.5651 7.59672C9.33147 8.83551 8.63842 10.5157 8.63842 12.2676V16.9859H72.5405Z" fill="#204F63"/>
<path d="M81.0008 46.2396C81.0008 40.7335 78.8226 35.453 74.9454 31.5596C71.0683 27.6663 65.8097 25.479 60.3265 25.479C54.8434 25.479 49.5848 27.6663 45.7077 31.5596C41.8305 35.453 39.6523 40.7335 39.6523 46.2396C39.6523 51.7456 41.8305 57.0261 45.7077 60.9195C49.5848 64.8129 54.8434 67.0001 60.3265 67.0001C65.8097 67.0001 71.0683 64.8129 74.9454 60.9195C78.8226 57.0261 81.0008 51.7456 81.0008 46.2396ZM60.3265 33.0283C60.825 33.0283 61.3031 33.2271 61.6555 33.5811C62.008 33.935 62.206 34.4151 62.206 34.9156V44.3522H69.7239C70.2224 44.3522 70.7004 44.5511 71.0529 44.905C71.4054 45.259 71.6034 45.739 71.6034 46.2396C71.6034 46.7401 71.4054 47.2202 71.0529 47.5741C70.7004 47.928 70.2224 48.1269 69.7239 48.1269H60.3265C59.8281 48.1269 59.35 47.928 58.9976 47.5741C58.6451 47.2202 58.4471 46.7401 58.4471 46.2396V34.9156C58.4471 34.4151 58.6451 33.935 58.9976 33.5811C59.35 33.2271 59.8281 33.0283 60.3265 33.0283Z" fill="#204F63" fill-opacity="0.5"/>
</g>
</svg>
