<svg width="83" height="74" viewBox="0 0 83 74" fill="none" xmlns="http://www.w3.org/2000/svg">
<mask id="mask0_2014_988" style="mask-type:alpha" maskUnits="userSpaceOnUse" x="0" y="0" width="83" height="74">
<rect width="83" height="74" fill="#D9D9D9"/>
</mask>
<g mask="url(#mask0_2014_988)">
<mask id="path-2-inside-1_2014_988" fill="white">
<path d="M18.7969 19.7998H33.5969H18.7969Z"/>
</mask>
<path d="M18.7969 17.7998C17.6923 17.7998 16.7969 18.6952 16.7969 19.7998C16.7969 20.9044 17.6923 21.7998 18.7969 21.7998V19.7998V17.7998ZM33.5969 21.7998C34.7014 21.7998 35.5969 20.9044 35.5969 19.7998C35.5969 18.6952 34.7014 17.7998 33.5969 17.7998V19.7998V21.7998ZM18.7969 19.7998V21.7998H33.5969V19.7998V17.7998H18.7969V19.7998Z" fill="#89A0A9" mask="url(#path-2-inside-1_2014_988)"/>
<path d="M64.0527 26H73.6797C73.998 26 74.0772 26 74.1191 26.002V26.0029C74.9998 26.0567 75.4537 26.6594 75.4951 27.125C75.4955 27.1363 75.4967 27.1584 75.4971 27.1973C75.4978 27.2672 75.498 27.3593 75.498 27.5068V41.6934C75.498 41.8405 75.4978 41.9321 75.4971 42.002C75.4967 42.0371 75.4955 42.0591 75.4951 42.0713C75.4602 42.5286 75.013 43.138 74.1289 43.1963C74.0886 43.1986 74.0244 43.2002 73.6797 43.2002H64.0488C58.6548 43.2002 54.5977 39.1786 54.5977 34.5996C54.5979 30.0208 58.6514 26 64.0527 26Z" stroke="#204F63" stroke-width="5"/>
<mask id="path-5-inside-2_2014_988" fill="white">
<path d="M74.1705 23.5C73.8819 16.5736 72.9569 12.326 69.9636 9.3364C65.6309 5 58.6527 5 44.7 5H33.6C19.6473 5 12.6691 5 8.3364 9.3364C4.0037 13.6728 4 20.6473 4 34.6C4 48.5527 4 55.5309 8.3364 59.8636C12.6728 64.1963 19.6473 64.2 33.6 64.2H44.7C58.6527 64.2 65.6309 64.2 69.9636 59.8636C72.9569 56.874 73.8856 52.6264 74.1705 45.7"/>
</mask>
<path d="M69.9636 9.3364L66.4266 12.8704L66.4303 12.8741L69.9636 9.3364ZM69.9636 59.8636L66.4303 56.3259L66.4266 56.3296L69.9636 59.8636ZM74.1705 23.5L79.1662 23.2918C78.8752 16.3076 77.9644 10.2606 73.497 5.79868L69.9636 9.3364L66.4303 12.8741C67.9494 14.3914 68.8887 16.8396 69.1748 23.7082L74.1705 23.5ZM69.9636 9.3364L73.5006 5.80238C70.2502 2.5491 66.1905 1.2033 61.6058 0.586668C57.1648 -0.0106263 51.535 0 44.7 0V5V10C51.8178 10 56.6534 10.0106 60.2728 10.4974C63.7485 10.9649 65.3444 11.7873 66.4266 12.8704L69.9636 9.3364ZM44.7 5V0H33.6V5V10H44.7V5ZM33.6 5V0C26.7651 0 21.1352 -0.0106263 16.6942 0.586668C12.1095 1.2033 8.04985 2.5491 4.79936 5.80238L8.3364 9.3364L11.8734 12.8704C12.9556 11.7873 14.5515 10.9649 18.0272 10.4974C21.6467 10.0106 26.4823 10 33.6 10V5ZM8.3364 9.3364L4.79936 5.80238C1.55103 9.05348 0.205332 13.1105 -0.411859 17.695C-1.00969 22.1357 -1 27.7643 -1 34.6H4H9C9 27.4831 9.01154 22.648 9.49873 19.0292C9.96657 15.5541 10.7891 13.9557 11.8734 12.8704L8.3364 9.3364ZM4 34.6H-1C-1 41.435 -1.01063 47.0648 -0.413332 51.5058C0.203299 56.0905 1.5491 60.1502 4.80238 63.4006L8.3364 59.8636L11.8704 56.3266C10.7873 55.2444 9.9649 53.6485 9.49743 50.1728C9.01063 46.5534 9 41.7178 9 34.6H4ZM8.3364 59.8636L4.80238 63.4006C8.05348 66.649 12.1105 67.9947 16.695 68.6119C21.1357 69.2097 26.7643 69.2 33.6 69.2V64.2V59.2C26.4831 59.2 21.648 59.1885 18.0292 58.7013C14.5541 58.2334 12.9557 57.4109 11.8704 56.3266L8.3364 59.8636ZM33.6 64.2V69.2H44.7V64.2V59.2H33.6V64.2ZM44.7 64.2V69.2C51.535 69.2 57.1648 69.2106 61.6058 68.6133C66.1905 67.9967 70.2502 66.6509 73.5006 63.3976L69.9636 59.8636L66.4266 56.3296C65.3444 57.4127 63.7485 58.2351 60.2728 58.7026C56.6534 59.1894 51.8178 59.2 44.7 59.2V64.2ZM69.9636 59.8636L73.497 63.4013C77.9637 58.9401 78.8788 52.895 79.1663 45.9055L74.1705 45.7L69.1747 45.4945C68.8924 52.3578 67.9501 54.8079 66.4303 56.3259L69.9636 59.8636Z" fill="#204F63" mask="url(#path-5-inside-2_2014_988)"/>
<mask id="path-7-inside-3_2014_988" fill="white">
<path d="M63.1602 34.6001H63.1982H63.1602Z"/>
</mask>
<path d="M63.1602 31.6001C61.5033 31.6001 60.1602 32.9432 60.1602 34.6001C60.1602 36.257 61.5033 37.6001 63.1602 37.6001V34.6001V31.6001ZM63.1982 37.6001C64.855 37.6001 66.1982 36.257 66.1982 34.6001C66.1982 32.9432 64.855 31.6001 63.1982 31.6001V34.6001V37.6001ZM63.1602 34.6001V37.6001H63.1982V34.6001V31.6001H63.1602V34.6001Z" fill="#89A0A9" mask="url(#path-7-inside-3_2014_988)"/>
</g>
</svg>
