<svg width="86" height="95" viewBox="0 0 86 95" fill="none" xmlns="http://www.w3.org/2000/svg">
<path d="M51.5797 41.6056C51.3242 41.606 51.0711 41.5558 50.8351 41.458C50.5991 41.3601 50.3848 41.2165 50.2046 41.0354L39.6162 30.447C39.2516 30.0822 39.0469 29.5876 39.0469 29.0719C39.0469 28.5562 39.2516 28.0616 39.6162 27.6968L66.7419 0.569916C66.9225 0.389233 67.137 0.245905 67.373 0.148118C67.6091 0.0503308 67.8621 0 68.1176 0C68.3731 0 68.626 0.0503308 68.8621 0.148118C69.0981 0.245905 69.3126 0.389233 69.4932 0.569916L80.568 11.6446C80.7486 11.8253 80.8919 12.0398 80.9897 12.2758C81.0875 12.5118 81.1378 12.7648 81.1378 13.0203C81.1378 13.2758 81.0875 13.5288 80.9897 13.7648C80.8919 14.0009 80.7486 14.2153 80.568 14.396C80.3873 14.5766 80.1728 14.7199 79.9368 14.8177C79.7008 14.9155 79.4478 14.9658 79.1923 14.9658C78.9368 14.9658 78.6838 14.9155 78.4478 14.8177C78.2117 14.7199 77.9973 14.5766 77.8166 14.396L68.1182 4.69391L43.7426 29.0719L52.9608 38.284C53.2332 38.5561 53.4187 38.9028 53.4939 39.2804C53.569 39.6579 53.5305 40.0493 53.3832 40.4049C53.2358 40.7606 52.9862 41.0645 52.6661 41.2782C52.3459 41.492 51.9695 41.6059 51.5845 41.6056H51.5797Z" fill="white" fill-opacity="0.8"/>
<path d="M72.7527 22.0861C72.497 22.0865 72.2438 22.0364 72.0076 21.9385C71.7714 21.8406 71.5569 21.697 71.3764 21.5159L64.2616 14.401C64.0766 14.2213 63.9293 14.0067 63.8281 13.7695C63.7268 13.5324 63.6738 13.2775 63.6719 13.0196C63.6701 12.7618 63.7195 12.5061 63.8174 12.2676C63.9153 12.029 64.0596 11.8123 64.2419 11.63C64.4243 11.4477 64.6411 11.3035 64.8797 11.2057C65.1183 11.108 65.374 11.0587 65.6318 11.0606C65.8896 11.0625 66.1445 11.1157 66.3816 11.2171C66.6187 11.3184 66.8333 11.4659 67.0129 11.6509L74.1278 18.7657C74.3997 19.0378 74.5848 19.3843 74.6598 19.7615C74.7348 20.1388 74.6962 20.5298 74.5491 20.8851C74.4019 21.2404 74.1527 21.5442 73.833 21.7579C73.5133 21.9717 73.1373 22.0859 72.7527 22.0861Z" fill="white" fill-opacity="0.8"/>
<path d="M65.8455 28.7437C65.5901 28.7442 65.3372 28.6941 65.1012 28.5965C64.8652 28.4988 64.6509 28.3555 64.4704 28.1747L57.4784 21.1827C57.137 20.8137 56.9517 20.3269 56.9613 19.8242C56.9709 19.3216 57.1748 18.8423 57.5301 18.4866C57.8854 18.131 58.3646 17.9267 58.8672 17.9167C59.3698 17.9066 59.8568 18.0915 60.2261 18.4325L67.2182 25.4246C67.4895 25.6966 67.6742 26.0428 67.749 26.4196C67.8238 26.7964 67.7854 27.1869 67.6386 27.5419C67.4918 27.8969 67.2432 28.2004 66.9241 28.4143C66.605 28.6282 66.2297 28.7428 65.8455 28.7437Z" fill="white" fill-opacity="0.8"/>
<path d="M58.7988 35.258C58.5433 35.2582 58.2902 35.2081 58.0541 35.1105C57.8179 35.0128 57.6033 34.8696 57.4225 34.689L50.6992 27.9644C50.5109 27.7856 50.3604 27.5709 50.2565 27.333C50.1525 27.095 50.0972 26.8387 50.0939 26.5791C50.0906 26.3194 50.1393 26.0618 50.2371 25.8213C50.3349 25.5807 50.4799 25.3622 50.6635 25.1786C50.8471 24.995 51.0656 24.8501 51.3061 24.7522C51.5466 24.6544 51.8043 24.6057 52.0639 24.609C52.3236 24.6124 52.5799 24.6676 52.8178 24.7716C53.0558 24.8755 53.2705 25.0261 53.4493 25.2143L60.1727 31.9377C60.4445 32.2097 60.6296 32.5561 60.7046 32.9332C60.7796 33.3103 60.7412 33.7012 60.5942 34.0565C60.4472 34.4118 60.1982 34.7155 59.8786 34.9294C59.5591 35.1433 59.1833 35.2576 58.7988 35.258Z" fill="white" fill-opacity="0.8"/>
<path d="M3.38737 94.2619C2.76987 94.2652 2.15636 94.1628 1.5734 93.9591C1.10292 93.7949 0.713424 93.4563 0.485259 93.0132C0.225078 92.5087 -0.939659 89.7111 1.6585 84.1537C4.86822 77.2844 12.405 68.9927 24.0584 59.5095C26.4996 57.5233 28.6622 55.2172 30.4875 52.6536L30.5739 52.532C33.3742 48.5959 37.197 45.5 41.6291 43.5788C44.5539 42.3094 47.2916 40.6467 49.7665 38.6366C55.9209 33.6299 75.7603 15.1838 77.4976 12.0726C77.6442 11.81 77.8496 11.585 78.0978 11.4152C78.346 11.2454 78.6301 11.1355 78.9279 11.094C79.2258 11.0526 79.5292 11.0807 79.8143 11.1762C80.0994 11.2718 80.3585 11.4321 80.5712 11.6446L84.8058 15.8793C85.1994 16.2728 85.5073 16.7435 85.7103 17.2618C85.9132 17.7801 86.0067 18.3347 85.985 18.8909C85.9634 19.447 85.8269 19.9927 85.5842 20.4936C85.3415 20.9944 84.9978 21.4397 84.5748 21.8014C78.2369 27.219 46.8996 55.6736 36.9058 66.4736C36.4437 67.0134 30.2189 74.2547 23.1587 81.0887C11.9247 91.9591 6.4524 94.2619 3.38737 94.2619ZM79.3919 15.968C73.9341 22.351 57.009 37.7637 52.22 41.6542C49.4703 43.8898 46.4277 45.7387 43.1768 47.1496C39.3954 48.7876 36.1335 51.4278 33.7435 54.7849L33.6571 54.9064C31.6291 57.7544 29.2266 60.316 26.5143 62.5222C6.25544 79.0109 3.99162 87.5482 3.90044 90.3093C5.78858 90.0114 10.3952 88.0224 20.4536 78.2887C27.6268 71.3526 33.9076 63.9885 33.9708 63.9155C33.9878 63.8948 34.0048 63.8754 34.0231 63.8559C44.079 52.9818 75.6679 24.2938 82.0472 18.8397C82.0628 18.8274 82.0755 18.8117 82.0843 18.7938C82.0931 18.7759 82.0979 18.7563 82.0982 18.7364C82.0995 18.7162 82.0963 18.6959 82.089 18.677C82.0816 18.6581 82.0703 18.641 82.0557 18.627L79.3919 15.968Z" fill="#8FA7B1"/>
</svg>
