<svg width="62" height="85" viewBox="0 0 62 85" fill="none" xmlns="http://www.w3.org/2000/svg">
<mask id="mask0_2008_4508" style="mask-type:alpha" maskUnits="userSpaceOnUse" x="0" y="0" width="62" height="85">
<rect width="62" height="85" fill="#D9D9D9"/>
</mask>
<g mask="url(#mask0_2008_4508)">
<g opacity="0.15">
<path d="M32.7686 46.5369C35.6423 47.1263 42.1265 68.7895 40.9476 68.7895C39.4002 68.7895 38.0002 67.6105 37.8528 65.9895C36.2318 53.6105 31.5897 44.7684 32.7686 46.5369Z" fill="#62355C"/>
</g>
<path d="M40.8699 65C38.2173 65 35.9331 63.1811 35.5646 60.7558L35.3436 59.3411C34.5331 54.1537 33.3541 47.1474 30.9962 43.7789C28.6383 47.1474 27.4594 54.1537 26.6489 59.3411L26.4278 60.7558C25.9857 63.2484 23.7752 65 21.1225 65C19.0594 65 17.291 63.9221 16.3331 62.3053C8.89095 48.5621 0.859375 29.6316 0.859375 17.8421C0.859375 12.8568 2.77516 8.54526 6.38569 5.44632C9.70148 2.54947 14.1225 1 18.8383 1C19.9436 1 21.0489 1.06737 22.0804 1.26947L26.9436 2.01053C28.6383 2.28 29.4489 2.41474 30.9962 2.48211C32.4699 2.41474 33.3541 2.28 35.0489 2.01053L39.912 1.26947C41.0173 1.06737 42.1225 1 43.1541 1C47.8699 1 52.291 2.54947 55.6067 5.44632C59.2173 8.54526 61.1331 12.8568 61.1331 17.8421C61.1331 29.6316 53.1752 48.5621 45.6594 62.3053C44.7752 63.9221 42.9331 65 40.8699 65ZM30.9962 39.4C31.9541 39.4 33.3541 39.7368 34.6067 41.4884C37.6278 45.5979 38.8067 52.8737 39.7646 58.7347L39.9857 60.1495C40.0594 60.6211 40.4278 60.9579 40.9436 60.9579C41.312 60.9579 41.6067 60.7558 41.7541 60.4863C48.6067 47.7537 56.712 28.9579 56.712 17.8421C56.712 9.48842 49.8594 5.04211 43.1541 5.04211C42.3436 5.04211 41.4594 5.10947 40.6489 5.24421L35.7857 5.98526C34.0173 6.25474 32.912 6.45684 31.0699 6.52421C30.9962 6.52421 30.9962 6.52421 30.9225 6.52421C29.0804 6.45684 28.0489 6.32211 26.2067 5.98526L21.3436 5.24421C20.5331 5.10947 19.7225 5.04211 18.8383 5.04211C12.0594 5.04211 5.28043 9.42105 5.28043 17.8421C5.28043 28.9579 13.3857 47.7537 20.2383 60.4863C20.3857 60.7558 20.6804 60.9579 21.0488 60.9579C21.491 60.9579 21.9331 60.6211 22.0067 60.1495L22.2278 58.7347C23.1857 52.8737 24.3646 45.5305 27.312 41.4884C28.6383 39.7368 30.0383 39.4 30.9962 39.4Z" fill="#8FA7B1"/>
<path d="M34.0912 11.1053C33.6491 11.1053 33.1333 10.9705 32.7649 10.7011C28.7123 7.87158 25.9123 6.12 21.3439 5.24421C20.1649 5.04211 19.3544 3.96421 19.5754 2.88632C19.7965 1.80842 20.9754 1.06737 22.1544 1.26947C27.6807 2.28 31.1439 4.43579 35.4176 7.46737C36.3754 8.14105 36.5965 9.42105 35.8597 10.2968C35.4176 10.8358 34.7544 11.1053 34.0912 11.1053Z" fill="#8FA7B1"/>
<g opacity="0.8">
<path d="M46.1578 22.0526C44.9052 22.0526 43.9473 21.0947 43.9473 19.8421V13.2105C43.9473 11.9579 44.9052 11 46.1578 11C47.4104 11 48.3683 11.9579 48.3683 13.2105V19.8421C48.3683 21.0947 47.4104 22.0526 46.1578 22.0526Z" fill="#F8F8F8"/>
<path d="M49.1789 18.7368H43.2105C41.9579 18.7368 41 17.779 41 16.5263C41 15.2737 41.9579 14.3158 43.2105 14.3158H49.1789C50.4316 14.3158 51.3895 15.2737 51.3895 16.5263C51.3895 17.779 50.3579 18.7368 49.1789 18.7368Z" fill="white"/>
</g>
</g>
</svg>
