<svg width="64" height="85" viewBox="0 0 64 85" fill="none" xmlns="http://www.w3.org/2000/svg">
<mask id="mask0_2005_4507" style="mask-type:alpha" maskUnits="userSpaceOnUse" x="0" y="0" width="64" height="85">
<rect width="64" height="85" fill="#D9D9D9"/>
</mask>
<g mask="url(#mask0_2005_4507)">
<path d="M32.1875 0C26.7523 0.00569798 21.5414 2.16734 17.6981 6.0106C13.8548 9.85387 11.6932 15.0648 11.6875 20.5V25.625C9.64936 25.6273 7.69535 26.438 6.25416 27.8792C4.81298 29.3204 4.00231 31.2744 4 33.3125V69.1875C4.00231 71.2256 4.81298 73.1797 6.25416 74.6208C7.69535 76.062 9.64936 76.8727 11.6875 76.875H52.6875C54.7256 76.8727 56.6797 76.062 58.1208 74.6208C59.562 73.1797 60.3727 71.2256 60.375 69.1875V33.3125C60.3727 31.2744 59.562 29.3204 58.1208 27.8792C56.6797 26.438 54.7256 25.6273 52.6875 25.625V20.5C52.6818 15.0648 50.5202 9.85387 46.6769 6.0106C42.8336 2.16734 37.6227 0.00569798 32.1875 0ZM16.8125 20.5C16.8125 16.4223 18.4324 12.5116 21.3157 9.62823C24.1991 6.74486 28.1098 5.125 32.1875 5.125C36.2652 5.125 40.1759 6.74486 43.0593 9.62823C45.9426 12.5116 47.5625 16.4223 47.5625 20.5V25.625H16.8125V20.5ZM55.25 33.3125V69.1875C55.2492 69.8669 54.9789 70.5182 54.4986 70.9986C54.0182 71.4789 53.3669 71.7492 52.6875 71.75H11.6875C11.0081 71.7492 10.3568 71.4789 9.87644 70.9986C9.39605 70.5182 9.12581 69.8669 9.125 69.1875V33.3125C9.12581 32.6331 9.39605 31.9818 9.87644 31.5014C10.3568 31.0211 11.0081 30.7508 11.6875 30.75H52.6875C53.3669 30.7508 54.0182 31.0211 54.4986 31.5014C54.9789 31.9818 55.2492 32.6331 55.25 33.3125Z" fill="#89A0A9"/>
<path d="M32.1869 38.4375C29.6942 38.4324 27.2854 39.3378 25.4131 40.9835C23.5409 42.6292 22.334 44.9019 22.0194 47.3747C21.7047 49.8475 22.3038 52.3501 23.7042 54.4123C25.1046 56.4744 27.2099 57.9542 29.6244 58.5736V61.5C29.6244 62.1796 29.8944 62.8314 30.3749 63.312C30.8555 63.7925 31.5073 64.0625 32.1869 64.0625C32.8665 64.0625 33.5183 63.7925 33.9989 63.312C34.4794 62.8314 34.7494 62.1796 34.7494 61.5V58.5736C37.1639 57.9542 39.2692 56.4744 40.6696 54.4123C42.07 52.3501 42.6691 49.8475 42.3544 47.3747C42.0398 44.9019 40.8329 42.6292 38.9606 40.9835C37.0884 39.3378 34.6796 38.4324 32.1869 38.4375ZM32.1869 53.8125C31.1733 53.8125 30.1824 53.5119 29.3396 52.9488C28.4968 52.3857 27.8399 51.5852 27.452 50.6488C27.0641 49.7123 26.9626 48.6818 27.1604 47.6877C27.3581 46.6935 27.8462 45.7803 28.563 45.0636C29.2797 44.3469 30.1929 43.8587 31.1871 43.661C32.1812 43.4632 33.2117 43.5647 34.1481 43.9526C35.0846 44.3405 35.885 44.9974 36.4482 45.8402C37.0113 46.683 37.3119 47.6739 37.3119 48.6875C37.3107 50.0464 36.7703 51.3492 35.8095 52.3101C34.8486 53.271 33.5458 53.8113 32.1869 53.8125Z" fill="#204F63"/>
</g>
</svg>
