<svg width="75" height="85" viewBox="0 0 75 85" fill="none" xmlns="http://www.w3.org/2000/svg">
<mask id="mask0_2008_4508" style="mask-type:alpha" maskUnits="userSpaceOnUse" x="0" y="0" width="75" height="85">
<rect width="75" height="85" fill="#D9D9D9"/>
</mask>
<g mask="url(#mask0_2008_4508)">
<g clip-path="url(#clip0_2008_4508)">
<path d="M72.8027 35.3027H70.3477C69.2574 18.883 56.117 5.74263 39.6973 4.65234V2.19727C39.6973 0.982764 38.7145 0 37.5 0C36.2855 0 35.3027 0.982764 35.3027 2.19727V4.65234C18.883 5.74263 5.74263 18.883 4.65234 35.3027H2.19727C0.982764 35.3027 0 36.2855 0 37.5C0 38.7145 0.982764 39.6973 2.19727 39.6973H4.65234C5.74263 56.117 18.883 69.2574 35.3027 70.3477V72.8027C35.3027 74.0172 36.2855 75 37.5 75C38.7145 75 39.6973 74.0172 39.6973 72.8027V70.3477C56.117 69.2574 69.2574 56.117 70.3477 39.6973H72.8027C74.0172 39.6973 75 38.7145 75 37.5C75 36.2855 74.0172 35.3027 72.8027 35.3027ZM39.6973 65.9531V63.8672C39.6973 62.6527 38.7145 61.6699 37.5 61.6699C36.2855 61.6699 35.3027 62.6527 35.3027 63.8672V65.9531C21.3064 64.8797 10.1203 53.6936 9.04687 39.6973H11.1328C12.3473 39.6973 13.3301 38.7145 13.3301 37.5C13.3301 36.2855 12.3473 35.3027 11.1328 35.3027H9.04687C10.1203 21.3064 21.3064 10.1203 35.3027 9.04687V11.1328C35.3027 12.3473 36.2855 13.3301 37.5 13.3301C38.7145 13.3301 39.6973 12.3473 39.6973 11.1328V9.04687C53.6936 10.1203 64.8797 21.3064 65.9531 35.3027H63.8672C62.6527 35.3027 61.6699 36.2855 61.6699 37.5C61.6699 38.7145 62.6527 39.6973 63.8672 39.6973H65.9531C64.8797 53.6936 53.6936 64.8797 39.6973 65.9531Z" fill="#204F63"/>
<path d="M46.2891 35.3027H39.6973V28.7109C39.6973 27.4964 38.7145 26.5137 37.5 26.5137C36.2855 26.5137 35.3027 27.4964 35.3027 28.7109V35.3027H28.7109C27.4964 35.3027 26.5137 36.2855 26.5137 37.5C26.5137 38.7145 27.4964 39.6973 28.7109 39.6973H35.3027V46.2891C35.3027 47.5036 36.2855 48.4863 37.5 48.4863C38.7145 48.4863 39.6973 47.5036 39.6973 46.2891V39.6973H46.2891C47.5036 39.6973 48.4863 38.7145 48.4863 37.5C48.4863 36.2855 47.5036 35.3027 46.2891 35.3027Z" fill="#89A0A9"/>
</g>
</g>
<defs>
<clipPath id="clip0_2008_4508">
<rect width="75" height="75" fill="white"/>
</clipPath>
</defs>
</svg>
