<svg width="64" height="85" viewBox="0 0 64 85" fill="none" xmlns="http://www.w3.org/2000/svg">
<mask id="mask0_2005_4494" style="mask-type:alpha" maskUnits="userSpaceOnUse" x="0" y="0" width="64" height="85">
<rect width="64" height="85" fill="#D9D9D9"/>
</mask>
<g mask="url(#mask0_2005_4494)">
<path d="M3 32.7226C3 16.3082 16.0746 3 32.2006 3C48.3267 3 61.4013 16.3082 61.4013 32.7226C61.4013 49.0093 52.0826 68.0189 37.5407 74.8117C35.8693 75.5943 34.0462 76 32.2006 76C30.355 76 28.532 75.5943 26.8606 74.8117C12.3187 68.0152 3 49.0129 3 32.7263V32.7226Z" stroke="#204F63" stroke-width="5"/>
<path d="M32.2019 46.8009C40.2654 46.8009 46.8022 40.2641 46.8022 32.2005C46.8022 24.137 40.2654 17.6002 32.2019 17.6002C24.1383 17.6002 17.6016 24.137 17.6016 32.2005C17.6016 40.2641 24.1383 46.8009 32.2019 46.8009Z" stroke="#89A0A9" stroke-width="5"/>
<path d="M26.7266 32.2008H37.6768M32.2017 37.676V26.7257" stroke="#89A0A9" stroke-width="5" stroke-linecap="round"/>
</g>
</svg>
