<svg width="80" height="85" viewBox="0 0 80 85" fill="none" xmlns="http://www.w3.org/2000/svg">
<mask id="mask0_2008_4508" style="mask-type:alpha" maskUnits="userSpaceOnUse" x="0" y="0" width="80" height="85">
<rect width="80" height="85" fill="#D9D9D9"/>
</mask>
<g mask="url(#mask0_2008_4508)">
<path d="M78.9508 58.1088C78.7267 56.2698 77.7452 54.5818 76.2578 53.4777C73.4262 51.3754 69.4892 51.7461 67.0993 54.3398L60.8392 61.1348L59.7206 62.3419C59.7481 62.0896 59.7625 61.8329 59.7625 61.5732C59.7625 57.6949 56.6075 54.5399 52.7292 54.5399H43.0701C42.4322 54.5399 41.8021 54.4006 41.2236 54.1316L37.2264 52.2734C37.0846 52.2075 36.9421 52.1435 36.7993 52.0813C30.6925 49.4291 23.589 50.657 18.5809 55.044L15.8658 57.4225L5.8651 57.3379C5.8518 57.3377 5.83882 57.3377 5.82567 57.3377C4.18668 57.3377 2.65237 58.0211 1.54703 59.2557C0.588279 60.3266 0.09375 61.7348 0.09375 63.172V74.3512C0.09375 77.5175 2.66057 80.0843 5.82691 80.0843H57.7518C61.4999 80.0843 64.9971 78.4115 67.3493 75.4941L77.4485 63.2509C78.6271 61.8219 79.1748 59.9475 78.9508 58.1088ZM73.8696 60.299L63.7617 72.5528C63.7557 72.5602 63.7497 72.5674 63.7436 72.5749C62.2908 74.3953 60.0804 75.4454 57.7515 75.4454H5.8266C5.22243 75.4454 4.7327 74.9557 4.7327 74.3515V63.0709C4.7327 62.6747 4.93512 62.4146 5.05573 62.2948C5.17558 62.1757 5.43444 61.977 5.82227 61.977H5.82985L16.7099 62.069C17.273 62.0755 17.83 61.8692 18.258 61.4944L21.6727 58.5031C25.3159 55.3117 30.4822 54.4064 34.9285 56.3269C35.0429 56.3764 35.157 56.4274 35.2705 56.4803L39.2677 58.3385C40.4587 58.8923 41.7565 59.1791 43.0699 59.1791H52.6647C53.8917 59.1791 54.9695 60.0759 55.1078 61.2952C55.2716 62.7394 54.1413 63.9676 52.7293 63.9676H34C32.8093 63.9676 31.7648 64.8399 31.6341 66.0234C31.4798 67.4225 32.571 68.6067 33.9391 68.6067H59.227C59.8728 68.6067 60.4893 68.3375 60.9283 67.8639L63.0261 65.6001C63.0513 65.5751 63.0778 65.5519 63.102 65.5256L70.5113 57.4831C71.3338 56.5899 72.7201 56.5064 73.6484 57.3291C73.9647 57.6093 74.1921 57.9833 74.2945 58.3933C74.4652 59.078 74.3075 59.7682 73.8696 60.299Z" fill="#204F63"/>
<path d="M22.9464 41.9316C23.5399 41.9316 24.1337 41.705 24.5865 41.2521L28.5631 37.2755H43.0308C53.2469 37.2755 61.5585 28.9639 61.5585 18.7478V3.31955C61.5585 2.03854 60.5199 1 59.2389 1H43.8106C33.5946 1 25.283 9.31157 25.283 19.5277V33.9953L21.3063 37.972C20.4005 38.8777 20.4005 40.3464 21.3063 41.2523C21.7593 41.7052 22.3526 41.9316 22.9464 41.9316ZM29.9221 19.5277C29.9221 11.8696 36.1526 5.6391 43.8106 5.6391H56.9194V18.748C56.9194 26.406 50.6889 32.6365 43.0308 32.6365H33.2022L41.3626 24.4762H47.2682C48.5492 24.4762 49.5877 23.4376 49.5877 22.1566C49.5877 20.8756 48.5492 19.8371 47.2682 19.8371H46.0017L51.0121 14.8267C51.9179 13.9208 51.9179 12.4522 51.0121 11.5464C50.1064 10.6405 48.6376 10.6405 47.7318 11.5464L42.7217 16.5565V13.418C42.7217 12.1369 41.6831 11.0984 40.4021 11.0984C39.1211 11.0984 38.0826 12.1369 38.0826 13.418V21.1954L29.9219 29.3561V19.5277H29.9221Z" fill="#89A0A9"/>
</g>
</svg>
