<svg width="10" height="12" viewBox="0 0 10 12" fill="none" xmlns="http://www.w3.org/2000/svg">
<g clip-path="url(#clip0_562_5561)">
<path d="M9.27656 4.41562C9.27656 6.77653 5.00156 11.8594 5.00156 11.8594C5.00156 11.8594 0.726562 6.77653 0.726562 4.41562C0.726563 3.28182 1.17696 2.19446 1.97868 1.39274C2.7804 0.591025 3.86776 0.140625 5.00156 0.140625C6.13536 0.140625 7.22273 0.591025 8.02444 1.39274C8.82616 2.19446 9.27656 3.28182 9.27656 4.41562Z" fill="#1986AC"/>
<path d="M5.00156 12C4.98102 12 4.96073 11.9956 4.9421 11.9869C4.92347 11.9782 4.90697 11.9656 4.89375 11.9499C4.71806 11.7408 0.585938 6.80039 0.585938 4.41562C0.585938 3.24453 1.05115 2.1214 1.87924 1.29331C2.70733 0.465216 3.83047 0 5.00156 0C6.17266 0 7.29579 0.465216 8.12388 1.29331C8.95197 2.1214 9.41719 3.24453 9.41719 4.41562C9.41719 6.80048 5.28516 11.7409 5.10937 11.95C5.09615 11.9657 5.07964 11.9783 5.06101 11.9869C5.04239 11.9956 5.02209 12 5.00156 12ZM5.00156 0.28125C3.90544 0.282491 2.85456 0.718474 2.07949 1.49355C1.30441 2.26863 0.868428 3.3195 0.867187 4.41562C0.867187 6.49219 4.34062 10.8316 5.00156 11.6387C5.6625 10.8316 9.13594 6.49181 9.13594 4.41562C9.1347 3.3195 8.69871 2.26863 7.92364 1.49355C7.14856 0.718474 6.09769 0.282491 5.00156 0.28125Z" fill="#1986AC"/>
<path d="M5.00047 6.40819C6.10098 6.40819 6.99312 5.51605 6.99312 4.41554C6.99312 3.31502 6.10098 2.42288 5.00047 2.42288C3.89996 2.42288 3.00781 3.31502 3.00781 4.41554C3.00781 5.51605 3.89996 6.40819 5.00047 6.40819Z" fill="white"/>
<path d="M5.00047 6.5488C4.57854 6.5488 4.16609 6.42369 3.81527 6.18928C3.46445 5.95486 3.19103 5.62169 3.02957 5.23187C2.86811 4.84206 2.82587 4.41313 2.90819 3.99931C2.99051 3.58549 3.19369 3.20537 3.49205 2.90703C3.7904 2.60869 4.17052 2.40552 4.58434 2.32322C4.99817 2.24092 5.4271 2.28318 5.81691 2.44466C6.20671 2.60613 6.53988 2.87958 6.77427 3.2304C7.00867 3.58123 7.13377 3.99369 7.13375 4.41562C7.13308 4.98118 6.90811 5.52339 6.50818 5.9233C6.10826 6.32321 5.56604 6.54816 5.00047 6.5488ZM5.00047 2.56349C4.63418 2.56349 4.27611 2.67211 3.97155 2.87561C3.66698 3.07911 3.4296 3.36835 3.28942 3.70676C3.14925 4.04517 3.11256 4.41755 3.18402 4.7768C3.25547 5.13606 3.43185 5.46606 3.69085 5.72507C3.94985 5.98409 4.27985 6.16049 4.6391 6.23196C4.99835 6.30343 5.37073 6.26677 5.70915 6.1266C6.04756 5.98644 6.33682 5.74908 6.54033 5.44453C6.74385 5.13997 6.85248 4.78191 6.8525 4.41562C6.85197 3.92458 6.65667 3.45381 6.30947 3.10659C5.96226 2.75937 5.4915 2.56405 5.00047 2.56349Z" fill="#1986AC"/>
</g>
<defs>
<clipPath id="clip0_562_5561">
<rect width="10" height="12" fill="white"/>
</clipPath>
</defs>
</svg>
