<svg width="32" height="26" viewBox="0 0 32 26" fill="none" xmlns="http://www.w3.org/2000/svg">
<path d="M9.64215 5.4705C9.16246 3.82003 7.8604 4.00092 6.97015 4.76964C4.77715 6.82701 1.92168 11.1453 3.7492 17.3634C5.27972 22.6312 11.6482 26 11.6482 26H4.22424C4.22424 26 0.390916 21.6364 0.0482407 16.5043C-0.385775 10.0157 2.17293 5.9234 5.14262 3.25566C7.92954 0.746062 10.5794 0 10.5794 0L16 18.0375L21.4205 0C21.4205 0 24.0704 0.746063 26.8573 3.25566C29.827 5.9234 32.3857 10.0157 31.9517 16.5043C31.609 21.6364 27.7757 26 27.7757 26H20.3517C20.3517 26 26.7197 22.6312 28.2507 17.3634C30.0782 11.146 27.2228 6.82772 25.0298 4.76964C24.1388 4.00092 22.8368 3.82003 22.3578 5.4705C20.713 10.7383 16.0006 25.8317 16.0006 25.8317C16.0006 25.8317 11.2883 10.7333 9.6435 5.4705H9.64215Z" fill="#204982"/>
</svg>
