<svg width="28" height="28" viewBox="0 0 28 28" fill="none" xmlns="http://www.w3.org/2000/svg">
<g clip-path="url(#clip0_691_3968)">
<path d="M23.5847 0.924965C17.4016 0.487902 11.1954 0.487902 5.01233 0.924965C3.95475 1.00443 2.96073 1.46054 2.2108 2.21047C1.46087 2.9604 1.00476 3.95442 0.925293 5.012C0.487793 11.1951 0.487793 17.4013 0.925293 23.5844C1.00479 24.642 1.46091 25.636 2.21084 26.3859C2.96076 27.1358 3.95476 27.5919 5.01233 27.6714C11.1954 28.1095 17.4017 28.1095 23.5847 27.6714C24.6423 27.5919 25.6363 27.1358 26.3862 26.3859C27.1361 25.636 27.5923 24.642 27.6718 23.5844C28.1093 17.4013 28.1093 11.1951 27.6718 5.012C27.5923 3.95442 27.1362 2.9604 26.3863 2.21047C25.6363 1.46054 24.6423 1.00443 23.5847 0.924965Z" fill="url(#paint0_linear_691_3968)"/>
<path d="M20.125 5.25H7.875C7.17943 5.25203 6.51293 5.52925 6.02109 6.02109C5.52925 6.51293 5.25203 7.17943 5.25 7.875V20.125C5.25203 20.8206 5.52925 21.4871 6.02109 21.9789C6.51293 22.4708 7.17943 22.748 7.875 22.75H20.125C20.8206 22.748 21.4871 22.4708 21.9789 21.9789C22.4708 21.4871 22.748 20.8206 22.75 20.125V7.875C22.748 7.17943 22.4708 6.51293 21.9789 6.02109C21.4871 5.52925 20.8206 5.25203 20.125 5.25ZM18.3925 15.4613L12.4425 18.9875C12.1477 19.1538 11.8152 19.2419 11.4768 19.2434C11.1383 19.2449 10.8051 19.1599 10.5087 18.9962C10.2429 18.851 10.0208 18.6373 9.86535 18.3773C9.70995 18.1173 9.62696 17.8204 9.625 17.5175V10.4825C9.62696 10.1796 9.70995 9.88271 9.86535 9.62269C10.0208 9.36266 10.2429 9.14896 10.5087 9.00375C10.8035 8.83527 11.1373 8.74738 11.4768 8.74891C11.8163 8.75045 12.1493 8.84136 12.4425 9.0125L18.3925 12.5387C18.6525 12.684 18.8691 12.896 19.0198 13.1529C19.1705 13.4097 19.25 13.7022 19.25 14C19.25 14.2978 19.1705 14.5903 19.0198 14.8471C18.8691 15.104 18.6525 15.316 18.3925 15.4613Z" fill="url(#paint1_linear_691_3968)"/>
<path d="M17.4299 14L11.3749 17.5788L11.3574 10.4213L17.4299 14Z" fill="url(#paint2_linear_691_3968)"/>
</g>
<defs>
<linearGradient id="paint0_linear_691_3968" x1="14.2983" y1="0.651877" x2="14.2983" y2="27.8066" gradientUnits="userSpaceOnUse">
<stop stop-color="#FFFCD9"/>
<stop offset="0.7781" stop-color="#FFEBA8"/>
<stop offset="1" stop-color="#FFE699"/>
</linearGradient>
<linearGradient id="paint1_linear_691_3968" x1="14" y1="5.08288" x2="14" y2="22.8568" gradientUnits="userSpaceOnUse">
<stop stop-color="#FD6700"/>
<stop offset="1" stop-color="#FFCE00"/>
</linearGradient>
<linearGradient id="paint2_linear_691_3968" x1="14.3937" y1="5.08289" x2="14.3937" y2="22.8568" gradientUnits="userSpaceOnUse">
<stop stop-color="#FD6700"/>
<stop offset="1" stop-color="#FFCE00"/>
</linearGradient>
<clipPath id="clip0_691_3968">
<rect width="28" height="28" fill="white"/>
</clipPath>
</defs>
</svg>
