<svg width="176" height="126" viewBox="0 0 176 126" fill="none" xmlns="http://www.w3.org/2000/svg">
<path d="M94.2188 62.8125V106.781C94.2188 117.172 102.671 125.625 113.062 125.625H156.718C158.853 125.625 160.846 124.539 162 122.742C170.379 109.72 175.875 99.8254 175.875 81.6562C175.875 69.8419 173.593 58.4514 169.097 47.8085C155.013 13.9243 135.151 0.0615562 100.573 0H100.561C97.5673 0 94.9913 2.10987 94.4022 5.04196C93.813 7.98033 95.3776 10.9244 98.1439 12.0776C114.719 18.9851 119.699 27.0753 125.533 43.9688H113.062C102.671 43.9688 94.2188 52.4214 94.2188 62.8125ZM18.8438 43.9688H31.3145C25.4811 27.0753 20.5001 18.9851 3.92578 12.0782C1.15952 10.925 -0.405136 7.98096 0.184052 5.04259C0.772598 2.10987 3.34917 0 6.3428 0H6.35538C40.933 0.0615562 60.795 13.9243 74.8788 47.8085C79.3743 58.4514 81.6562 69.8419 81.6562 81.6562C81.6562 99.8254 76.1602 109.72 67.781 122.742C66.6277 124.539 64.6341 125.625 62.4997 125.625H18.8438C8.45268 125.625 0 117.172 0 106.781V62.8125C0 52.4214 8.45268 43.9688 18.8438 43.9688Z" fill="#D4E6EC" fill-opacity="0.5"/>
</svg>
