<svg width="52" height="52" viewBox="0 0 52 52" fill="none" xmlns="http://www.w3.org/2000/svg">
<g clip-path="url(#clip0_540_3070)">
<path d="M21.583 27.5029C23.7325 27.5682 25.6484 28.3063 27.2725 29.1006C27.6035 29.2631 27.7403 29.6629 27.5781 29.9941C27.5148 30.1234 27.4151 30.2222 27.2979 30.2861C27.4487 30.418 27.5402 30.6148 27.5264 30.8301C27.5027 31.1977 27.1862 31.4781 26.8174 31.4521V31.4531C26.2334 31.4164 25.6569 31.3608 25.1016 31.3076C22.2371 31.0331 19.8001 30.8017 17.0967 32.8027L7.76562 39.709C7.3096 40.0464 7.11766 40.5944 7.26465 41.1426C7.41156 41.6906 7.8515 42.0688 8.41504 42.1328L19.9502 43.4482C21.5819 43.6351 22.7961 43.4334 23.8564 43.002C24.9202 42.569 25.8344 41.9039 26.8682 41.1504C27.8352 40.4457 28.937 39.6411 30.3223 38.9287C30.59 38.7912 30.9167 38.8497 31.1201 39.0723C31.3232 39.2947 31.3529 39.6243 31.1924 39.8789C29.8561 41.9955 28.6775 43.8642 27.1523 45.2002C25.6213 46.5414 23.744 47.3438 21.0176 47.3438C20.4341 47.3437 19.8123 47.3066 19.1465 47.2305H19.1445L2.24609 45.0576C1.14615 44.9164 0.282221 44.1614 -0.00488281 43.0898C-0.291733 42.0182 0.0788766 40.9334 0.960938 40.2607L14.5029 29.9346L14.5039 29.9336C17.0523 28.0475 19.4308 27.4376 21.583 27.5029ZM21.2803 28.8291C19.4555 28.8291 17.4655 29.4011 15.3047 31.001L15.3057 31.002L1.77051 41.3223C1.31923 41.6667 1.13815 42.1964 1.28516 42.7451C1.43205 43.2925 1.85391 43.6605 2.41699 43.7334H2.41602L19.3066 45.9053H19.3057C21.8765 46.1988 23.6646 45.8681 25.0918 45.0508C26.3908 44.3068 27.4 43.1525 28.4316 41.6699C28.3743 41.7106 28.3165 41.7503 28.2598 41.791L27.6543 42.2295C26.5689 43.0207 25.5463 43.7672 24.3252 44.2598C23.1008 44.7536 21.6808 44.9905 19.7988 44.7754L8.26367 43.46C7.14451 43.3323 6.26604 42.576 5.97461 41.4873C5.68338 40.3998 6.06531 39.3048 6.9707 38.6357L16.3027 31.7285C19.0333 29.7076 21.648 29.6752 24.1592 29.8809L25.2295 29.9785L25.9766 30.0479C26.046 30.0541 26.1158 30.0585 26.1855 30.0645C24.6938 29.3767 23.0615 28.8291 21.2803 28.8291Z" fill="white" stroke="white" stroke-width="0.2"/>
<path d="M3.99707 38.0073C4.35319 37.9129 4.71909 38.1239 4.81445 38.48L6.47363 44.6724C6.56902 45.0285 6.35792 45.3948 6.00195 45.4907H6.00098C5.943 45.5061 5.88462 45.5132 5.82812 45.5132C5.53364 45.513 5.26357 45.3171 5.18359 45.0181L3.52441 38.8247C3.42928 38.4687 3.64031 38.1033 3.99609 38.0073H3.99707Z" fill="white" stroke="white" stroke-width="0.2"/>
<path d="M31.5752 27.0151C33.4987 27.0151 35.0635 28.5795 35.0635 30.5034V37.6392C35.0632 39.0461 33.9186 40.1909 32.5117 40.1909H28.7441C27.3374 40.1907 26.1936 39.046 26.1934 37.6392V30.5034C26.1934 28.5795 27.7581 27.0151 29.6816 27.0151H31.5752ZM29.6816 28.3501C28.4946 28.3501 27.5283 29.3168 27.5283 30.5034V37.6392C27.5286 38.3098 28.0739 38.8548 28.7441 38.855H32.5117C33.182 38.855 33.7283 38.31 33.7285 37.6392V30.5034C33.7285 29.3168 32.7622 28.3501 31.5752 28.3501H29.6816Z" fill="white" stroke="white" stroke-width="0.2"/>
<path d="M45.4727 4.65674C49.1137 4.65674 52.0994 7.23481 52.0996 10.4331V19.2075C52.0994 19.5759 51.8015 19.8745 51.4316 19.8745C51.0633 19.8745 50.7639 19.576 50.7637 19.2075V10.4331C50.7634 7.99888 48.4068 5.99171 45.4727 5.9917H8.25391C5.31941 5.9917 2.96217 7.99888 2.96191 10.4331V14.272C2.96166 14.6417 2.66235 14.939 2.29395 14.939C1.92558 14.9388 1.62714 14.6416 1.62695 14.272V10.4331C1.6272 7.2348 4.61311 4.65674 8.25391 4.65674H45.4727Z" fill="white" stroke="white" stroke-width="0.2"/>
<path d="M31.5693 10.7869C33.491 10.7869 35.0545 12.3498 35.0547 14.2712V15.3289C35.0547 15.6975 34.7554 15.9968 34.3867 15.9968C34.0179 15.9968 33.7188 15.6975 33.7188 15.3289V14.2712C33.7187 13.087 32.7543 12.1218 31.5693 12.1218H29.6777C28.4927 12.122 27.5285 13.087 27.5283 14.2712V21.4099C27.5283 22.0798 28.0731 22.6247 28.7422 22.6248H32.5049C33.1741 22.6248 33.7185 22.0805 33.7188 21.4109V19.4412C33.7188 19.0725 34.0179 18.7732 34.3867 18.7732C34.7554 18.7732 35.0547 19.0725 35.0547 19.4412V21.4099C35.0547 22.8158 33.9106 23.9597 32.5049 23.9597H28.7422C27.3366 23.9596 26.1936 22.8165 26.1934 21.4109V14.2712C26.1934 12.3499 27.756 10.787 29.6777 10.7869H31.5693Z" fill="white" stroke="white" stroke-width="0.2"/>
<path d="M38.5752 11.3132C40.2071 11.3132 41.5349 12.6395 41.5352 14.2712V15.0544C41.5352 15.4231 41.236 15.7224 40.8672 15.7224C40.4984 15.7224 40.1991 15.4232 40.1992 15.0544V14.2712C40.1991 13.3769 39.4707 12.6482 38.5752 12.6482H36.6836C35.7884 12.6483 35.0598 13.377 35.0596 14.2712V20.5457C35.0596 21.0699 35.4863 21.4977 36.0107 21.4978H39.248C39.7724 21.4978 40.1992 21.07 40.1992 20.5457V19.03C40.1991 18.6613 40.4983 18.3621 40.8672 18.3621C41.236 18.3621 41.5352 18.6614 41.5352 19.03V20.5457C41.5352 21.8073 40.5091 22.8328 39.248 22.8328H36.0107C34.7499 22.8327 33.7246 21.8072 33.7246 20.5457V14.2712C33.7248 12.6396 35.0518 11.3134 36.6836 11.3132H38.5752Z" fill="white" stroke="white" stroke-width="0.2"/>
<path d="M44.6699 11.6904C45.36 11.6904 46.0106 11.9608 46.5 12.4512V12.4521C46.987 12.9415 47.2546 13.5889 47.252 14.2744C47.2507 14.6429 46.9522 14.9392 46.585 14.9395H46.582C46.2135 14.938 45.9156 14.6384 45.917 14.2695C45.9181 13.9417 45.789 13.63 45.5537 13.3945C45.3161 13.1566 45.0024 13.0254 44.6699 13.0254H42.7793C42.092 13.0254 41.5323 13.5851 41.5322 14.2715V19.9248C41.5322 20.3449 41.8745 20.6875 42.2949 20.6875H45.1543C45.5715 20.6875 45.9133 20.3486 45.917 19.9336V19.207C45.917 18.8384 46.2163 18.5391 46.585 18.5391C46.9534 18.5393 47.2519 18.8385 47.252 19.207V19.9385C47.2438 21.0898 46.3031 22.0225 45.1543 22.0225H42.2949C41.1381 22.0225 40.1973 21.0811 40.1973 19.9248V14.2715C40.1973 12.8478 41.3555 11.6904 42.7793 11.6904H44.6699Z" fill="white" stroke="white" stroke-width="0.2"/>
<path d="M49.958 12.127C51.1401 12.1272 52.1025 13.0892 52.1025 14.2715C52.1027 14.6413 51.8044 14.9395 51.4346 14.9395C51.0662 14.9394 50.7666 14.6413 50.7666 14.2715C50.7666 13.8252 50.404 13.4622 49.958 13.4619H48.0654C47.6192 13.4619 47.2549 13.8253 47.2549 14.2715V19.207C47.2549 19.5077 47.4993 19.7518 47.7988 19.752H50.2236C50.523 19.752 50.7666 19.508 50.7666 19.207C50.7666 18.8384 51.0661 18.5391 51.4346 18.5391C51.8046 18.5391 52.1025 18.8385 52.1025 19.207C52.1027 20.2438 51.2593 21.0869 50.2236 21.0869H47.7988C46.7626 21.0868 45.9199 20.2439 45.9199 19.207V14.2715C45.9199 13.0891 46.8825 12.127 48.0654 12.127H49.958Z" fill="white" stroke="white" stroke-width="0.2"/>
<path d="M24.0459 10.7869C25.9674 10.7869 27.5311 12.3497 27.5312 14.2712V15.363C27.5312 15.7316 27.232 16.0309 26.8633 16.031C26.4947 16.0309 26.1953 15.7317 26.1953 15.363V14.2712C26.1952 13.087 25.2309 12.1218 24.0459 12.1218H22.1543C20.9692 12.1219 20.005 13.087 20.0049 14.2712V21.4099C20.0049 22.0798 20.5494 22.6247 21.2188 22.6248H24.9814C25.6507 22.6248 26.1951 22.0805 26.1953 21.4109V20.3669C26.1955 19.9984 26.4946 19.7 26.8633 19.7C27.2319 19.7001 27.5311 19.9984 27.5312 20.3669V21.4099C27.5312 22.8158 26.3873 23.9597 24.9814 23.9597H21.2188C19.8132 23.9596 18.6702 22.8165 18.6699 21.4109V14.2712C18.67 12.3498 20.2327 10.7869 22.1543 10.7869H24.0459Z" fill="white" stroke="white" stroke-width="0.2"/>
<path d="M17.0479 11.3132C18.6798 11.3133 20.0066 12.6395 20.0068 14.2712V15.6365C20.0068 16.005 19.7084 16.3044 19.3398 16.3044C18.9711 16.3044 18.6719 16.0051 18.6719 15.6365V14.2712C18.6717 13.377 17.9433 12.6483 17.0479 12.6482H15.1562C14.2611 12.6482 13.5324 13.3769 13.5322 14.2712V20.5457C13.5322 21.07 13.9592 21.4978 14.4834 21.4978H17.7207C18.2449 21.4978 18.6719 21.07 18.6719 20.5457V19.2009C18.672 18.8324 18.9711 18.5339 19.3398 18.5339C19.7083 18.534 20.0067 18.8325 20.0068 19.2009V20.5457C20.0068 21.8073 18.9816 22.8328 17.7207 22.8328H14.4834C13.2226 22.8328 12.1973 21.8073 12.1973 20.5457V14.2712C12.1974 12.6395 13.5244 11.3132 15.1562 11.3132H17.0479Z" fill="white" stroke="white" stroke-width="0.2"/>
<path d="M10.9482 11.6904C12.3717 11.6907 13.5293 12.848 13.5293 14.2715C13.5293 14.6399 13.2309 14.9392 12.8623 14.9395C12.4937 14.9395 12.1943 14.64 12.1943 14.2715C12.1943 13.5851 11.6344 13.0254 10.9473 13.0254H9.05566C8.36871 13.0256 7.80962 13.5852 7.80957 14.2715V19.9248C7.80957 20.345 8.15198 20.6875 8.57227 20.6875H11.4316C11.852 20.6875 12.1943 20.3449 12.1943 19.9248V18.2422C12.1943 17.8738 12.4929 17.5745 12.8613 17.5742H12.8623C13.2309 17.5744 13.5293 17.8738 13.5293 18.2422V19.9248C13.5293 21.0811 12.5884 22.0225 11.4316 22.0225H8.57227C7.41547 22.0225 6.47461 21.0811 6.47461 19.9248V14.2715C6.47461 12.8479 7.63208 11.6907 9.05566 11.6904H10.9482Z" fill="white" stroke="white" stroke-width="0.2"/>
<path d="M5.66406 12.127C6.84727 12.127 7.80952 13.0891 7.80957 14.2715C7.80971 14.64 7.5112 14.9393 7.14258 14.9395C6.77378 14.9395 6.47461 14.64 6.47461 14.2715C6.47456 13.8252 6.11089 13.4619 5.66406 13.4619H3.77246C3.32552 13.462 2.96196 13.8253 2.96191 14.2715V19.207C2.96191 19.5078 3.20673 19.752 3.50684 19.752H5.93066C6.23042 19.7517 6.47461 19.5077 6.47461 19.207C6.47462 18.8384 6.77378 18.5391 7.14258 18.5391C7.51124 18.5393 7.80956 18.8385 7.80957 19.207C7.8097 20.2437 6.96692 21.0867 5.93066 21.0869H3.50684C2.47024 21.0869 1.62695 20.244 1.62695 19.207V14.2715C1.62695 13.0891 2.5892 12.127 3.77246 12.127H5.66406Z" fill="white" stroke="white" stroke-width="0.2"/>
</g>
<defs>
<clipPath id="clip0_540_3070">
<rect width="52" height="52" fill="white"/>
</clipPath>
</defs>
</svg>
