<svg width="52" height="52" viewBox="0 0 52 52" fill="none" xmlns="http://www.w3.org/2000/svg">
<path d="M41.4375 10.5625C41.4375 5.18619 37.0638 0.8125 31.6875 0.8125C29.6449 0.8125 27.6502 1.45844 26 2.64306C24.3498 1.45844 22.3551 0.8125 20.3125 0.8125C14.9362 0.8125 10.5625 5.18619 10.5625 10.5625C10.5625 15.0637 13.6329 18.8516 17.7856 19.9688L17.1673 23.6795C16.1696 23.985 15.4375 24.9039 15.4375 26C15.4375 27.3439 16.5311 28.4375 17.875 28.4375H18.6875V44.6875C18.6875 44.8289 18.7249 44.9678 18.7947 45.0905L22.0447 50.778C22.1894 51.0315 22.4591 51.1875 22.75 51.1875H29.25C29.5409 51.1875 29.8106 51.0315 29.9553 50.778L33.2053 45.0905C33.2751 44.9678 33.3125 44.8289 33.3125 44.6875V28.4375H34.125C35.4689 28.4375 36.5625 27.3439 36.5625 26C36.5625 24.8698 35.7849 23.9249 34.7401 23.6511L33.5652 20.1272C38.0453 19.2489 41.4375 15.2961 41.4375 10.5625ZM12.1875 10.5625C12.1875 6.08238 15.8324 2.4375 20.3125 2.4375C22.1959 2.4375 24.0321 3.09725 25.4824 4.29487C25.7823 4.5435 26.2169 4.5435 26.5168 4.29487C27.9679 3.09725 29.8041 2.4375 31.6875 2.4375C36.1676 2.4375 39.8125 6.08238 39.8125 10.5625C39.8125 15.0426 36.1676 18.6875 31.6875 18.6875H20.3125C15.8324 18.6875 12.1875 15.0426 12.1875 10.5625ZM20.3125 43.0625V41.4375H31.6875V43.0625H20.3125ZM20.3125 39.8125V38.1875H31.6875V39.8125H20.3125ZM20.3125 36.5625V34.9375H31.6875V36.5625H20.3125ZM20.3125 33.3125V31.6875H31.6875V33.3125H20.3125ZM28.7787 49.5625H23.2212L20.436 44.6875H31.564L28.7787 49.5625ZM31.6875 30.0625H20.3125V28.4375H31.6875V30.0625ZM34.125 26.8125H17.875C17.4265 26.8125 17.0625 26.4477 17.0625 26C17.0625 25.5523 17.4265 25.1875 17.875 25.1875H34.125C34.5735 25.1875 34.9375 25.5523 34.9375 26C34.9375 26.4477 34.5735 26.8125 34.125 26.8125ZM32.9981 23.5625H18.8338L19.383 20.2654C19.6893 20.2946 19.9989 20.3125 20.3125 20.3125H31.6875C31.7631 20.3125 31.8362 20.3028 31.9109 20.3011L32.9981 23.5625Z" fill="white"/>
<path d="M23.5642 8.12497H28.4392C28.5993 8.12497 28.7569 8.07704 28.8902 7.98847L31.3277 6.36347L30.4266 5.01147L28.193 6.49997H23.8096L21.5768 5.01147L20.6758 6.36347L23.1133 7.98847C23.2465 8.07704 23.4042 8.12497 23.5642 8.12497Z" fill="white"/>
</svg>
