<svg width="52" height="52" viewBox="0 0 52 52" fill="none" xmlns="http://www.w3.org/2000/svg">
<path d="M11.348 28.8317C11.0383 33.4453 11.6473 38.0722 13.1448 42.4817C14.4455 46.7371 16.888 51.2957 19.9013 51.2957C21.4735 51.2957 21.9134 49.3717 22.5216 46.7111C23.1299 44.0504 24.0189 40.2197 26.0029 40.2197C27.9868 40.2197 28.8103 43.9724 29.4841 46.7111C30.1579 49.4497 30.5322 51.2957 32.1044 51.2957C35.1084 51.2957 37.5602 46.7371 38.861 42.4817C40.3584 38.0722 40.9675 33.4453 40.6577 28.8317C40.5202 26.7372 39.5392 24.7667 37.9087 23.3096C36.2782 21.8525 34.1168 21.015 31.8517 20.9624C30.2476 20.9609 28.674 21.3687 27.3036 22.1411C26.9118 22.3623 26.4618 22.4794 26.0029 22.4794C25.544 22.4794 25.0939 22.3623 24.7021 22.1411C23.3318 21.3687 21.7582 20.9609 20.154 20.9624C17.8889 21.015 15.7275 21.8525 14.097 23.3096C12.4665 24.7667 11.4855 26.7372 11.348 28.8317ZM23.7288 23.6317C24.3217 23.9847 24.8654 24.4039 25.3478 24.8797C26.2836 25.7984 28.2675 26.3531 30.448 26.3531H30.6164V24.6197C29.475 24.6729 28.3363 24.4739 27.2943 24.0391C27.647 23.9397 27.9861 23.803 28.305 23.6317C32.825 21.0837 38.4118 24.0391 38.8142 28.9704C39.1049 33.3791 38.5213 37.7998 37.0923 42.0137C35.7073 46.5551 33.6204 49.3371 32.3009 49.5537C31.8606 48.5236 31.5467 47.4508 31.3651 46.3557C30.5603 42.8891 29.559 38.4951 26.059 38.4951C22.5591 38.4951 21.5577 42.8284 20.7529 46.3557C20.5714 47.4508 20.2575 48.5236 19.8171 49.5537C18.4976 49.3371 16.4108 46.5551 15.0257 42.0137C13.5968 37.7998 13.0132 33.3791 13.3038 28.9704C13.622 24.0304 19.1995 21.0751 23.7288 23.6231V23.6317Z" fill="#1986AC"/>
<path d="M15.6016 28.645L17.5204 28.7625C17.5599 28.0539 17.9154 27.3815 18.5197 26.872C19.124 26.3625 19.9356 26.0511 20.8016 25.9964V24.4292C17.837 24.4292 15.7934 26.6155 15.6016 28.645Z" fill="#1986AC"/>
<path d="M7.26823 32.5878C7.34353 32.7465 7.46709 32.8798 7.62275 32.9703C7.7784 33.0607 7.95893 33.104 8.14073 33.0947C8.32254 33.0853 8.49716 33.0237 8.6418 32.9178C8.78644 32.8119 8.89435 32.6667 8.95145 32.5012C10.6618 27.3714 10.9695 27.2414 10.7614 26.7042L8.9967 22.5622C9.98311 12.294 16.0373 6.63568 21.3947 1.65322C21.5249 1.53303 21.6145 1.37824 21.652 1.20881C21.6895 1.03938 21.673 0.863086 21.6049 0.702675C21.5367 0.542263 21.4199 0.405094 21.2695 0.308866C21.1191 0.212638 20.9421 0.161765 20.7612 0.162812H7.18678C6.97633 0.158329 6.77084 0.22423 6.60567 0.349174C6.44049 0.474118 6.32597 0.650288 6.28182 0.847359L1.75702 20.7772C1.65747 21.3145 1.75702 20.9592 7.26823 32.5878ZM7.9198 1.89584H18.544C13.3767 6.79166 8.09174 12.5973 7.18678 22.6229C7.18678 22.9955 7.24108 22.9175 8.9424 27.0508L7.956 29.8756L3.61219 20.8639L7.9198 1.89584Z" fill="#1986AC"/>
<path d="M43.0062 22.5622C41.3507 26.7042 41.0793 26.7648 41.2603 27.3021L43.0695 32.5012C43.1266 32.6667 43.2345 32.8119 43.3791 32.9178C43.5236 33.0237 43.6982 33.0853 43.8799 33.0947C44.0617 33.104 44.2421 33.0607 44.3977 32.9703C44.5533 32.8798 44.6769 32.7465 44.7521 32.5878C50.3156 20.8812 50.3608 21.3231 50.2432 20.7772L45.7201 0.847359C45.6759 0.650288 45.5615 0.474118 45.3964 0.349174C45.2312 0.22423 45.0258 0.158329 44.8155 0.162812H31.246C31.0652 0.161765 30.8883 0.212638 30.7379 0.308866C30.5876 0.405094 30.4708 0.542263 30.4027 0.702675C30.3345 0.863086 30.3181 1.03938 30.3556 1.20881C30.393 1.37824 30.4826 1.53303 30.6128 1.65322C35.9682 6.63568 42.0202 12.294 43.0062 22.5622ZM44.0827 1.89584L48.434 20.8639L44.0918 29.8756L43.0605 27.0248C44.7974 22.7875 44.8697 22.9522 44.8155 22.5969C43.9108 12.5973 38.6278 6.79166 33.4624 1.89584H44.0827Z" fill="#1986AC"/>
</svg>
