<svg width="60" height="60" viewBox="0 0 60 60" fill="none" xmlns="http://www.w3.org/2000/svg">
<g clip-path="url(#clip0_540_3115)">
<path d="M58.3396 31.3689H45.0008C47.1153 27.3068 47.5297 22.6763 46.1875 17.929C46.1801 17.9031 46.1716 17.8776 46.1621 17.8528C44.8225 14.3016 42.6643 12.5013 39.748 12.5013C37.8701 12.5013 35.768 13.2512 33.3237 14.7934C32.3481 15.1597 31.2995 15.3429 30.2502 15.3454C32.9597 11.9069 36.377 9.15424 40.4857 7.09912C40.9879 7.55686 41.6494 7.83131 42.3619 7.83131C42.6656 7.83131 42.9661 7.78103 43.2551 7.68295L47.8123 6.12939C48.5138 5.89045 49.0809 5.391 49.4095 4.72291C49.7378 4.05471 49.7871 3.30061 49.5479 2.59889C49.1638 1.47213 48.1039 0.715332 46.911 0.715332C46.6071 0.715332 46.3065 0.765137 46.0178 0.86334L41.4605 2.41654C40.1802 2.85307 39.4247 4.13639 39.603 5.42955C34.8899 7.79275 31.0429 11.0169 28.0743 15.077C27.7576 14.998 27.4444 14.9078 27.1398 14.7934C24.6954 13.2513 22.5934 12.5013 20.7154 12.5013C17.7991 12.5013 15.6409 14.3016 14.3012 17.8528C14.2918 17.8776 14.2834 17.9032 14.2759 17.929C12.9334 22.6764 13.3481 27.3069 15.4625 31.3689H1.65949C1.13754 31.3689 0.714844 31.7916 0.714844 32.3137V53.8514C0.714844 56.8473 3.15211 59.2846 6.14801 59.2846H53.8512C56.8471 59.2846 59.2842 56.8473 59.2842 53.8514V32.3135C59.2842 31.7916 58.8613 31.3689 58.3396 31.3689ZM42.0698 4.20482L46.6274 2.65174C46.7195 2.62021 46.8149 2.60451 46.9109 2.60451C47.2953 2.60451 47.6367 2.84732 47.7596 3.20826C47.8361 3.43221 47.8196 3.67432 47.7139 3.88936C47.6081 4.10463 47.4266 4.26482 47.2028 4.341L42.6456 5.89443C42.1862 6.05193 41.6668 5.7892 41.5127 5.33744C41.3541 4.87186 41.6039 4.36373 42.0698 4.20482ZM16.0829 18.4819C17.1307 15.7292 18.6464 14.3908 20.7154 14.3908C22.2229 14.3908 24.0705 15.0801 26.2075 16.4391C26.2595 16.4724 26.3152 16.5004 26.3733 16.5228C26.5624 16.5963 26.7578 16.6535 26.9511 16.7155C24.6812 20.264 23.014 24.3823 21.9659 29.0644C21.9354 29.0175 21.9098 28.9661 21.8781 28.9199C20.8712 26.9533 20.2016 24.21 20.843 23.3691C21.1239 23.0012 21.8235 23.0618 22.3608 23.177C22.8715 23.2854 23.3732 22.961 23.4825 22.4513C23.5917 21.9408 23.2668 21.4389 22.7568 21.3296C20.8144 20.9141 19.827 21.586 19.341 22.2235C17.5369 24.5885 20.1182 29.6301 20.2288 29.8436C20.2488 29.8817 20.2713 29.9189 20.2962 29.954C21.0214 30.9795 21.2783 32.4695 21.0599 34.3827C20.2227 38.519 20.318 42.0097 21.3432 44.7584C21.4848 45.1388 21.845 45.3734 22.2285 45.3734C22.3379 45.3734 22.4494 45.3544 22.5582 45.3134C23.0469 45.1311 23.2956 44.587 23.1131 44.0981C22.2291 41.7284 22.1534 38.6506 22.8768 34.9555C24.6154 32.6737 27.3575 31.312 30.2289 31.312C33.1028 31.312 35.8506 32.6768 37.588 34.9636C38.3095 38.6549 38.2335 41.7301 37.3501 44.098C37.1677 44.5869 37.4163 45.131 37.9052 45.3133C38.0139 45.3543 38.1253 45.3733 38.2349 45.3733C38.618 45.3733 38.9782 45.1386 39.12 44.7583C40.1455 42.0096 40.2407 38.5188 39.4034 34.3826C39.1852 32.4694 39.4419 30.9794 40.1672 29.9538C40.192 29.9187 40.2145 29.8815 40.2346 29.8435C40.3477 29.6255 42.9853 24.4731 41.0621 22.1445C40.2604 21.1745 38.9441 20.9476 37.1488 21.4702C33.9384 22.0829 30.6589 22.266 27.3989 22.0157C26.8785 21.9758 26.4245 22.3648 26.3845 22.885C26.3445 23.4051 26.7335 23.8592 27.2538 23.8992C30.6962 24.164 34.1606 23.968 37.5493 23.3168C37.58 23.3111 37.6103 23.3037 37.64 23.2948C38.2164 23.1239 39.2384 22.9034 39.6054 23.3475C40.2766 24.1603 39.6088 26.9209 38.5852 28.9198C37.9799 29.7987 37.6148 30.8721 37.4893 32.1256C35.487 30.4078 32.9041 29.4229 30.2287 29.4229C27.7178 29.4229 25.2906 30.2903 23.3466 31.8156C24.3311 26.1087 26.196 21.2097 28.9307 17.1471C30.6695 17.3557 32.4609 17.1542 34.0901 16.5228C34.1479 16.5005 34.2038 16.4724 34.2561 16.4391C36.3925 15.0799 38.2403 14.3908 39.7478 14.3908C41.8168 14.3908 43.3324 15.7292 44.3801 18.4819C45.6337 22.9496 45.1707 27.2867 43.041 31.0271L42.9281 31.2236C42.4282 32.0911 42.1772 32.6032 42.3886 33.8855C43.497 40.6087 41.5537 45.6394 36.4529 49.255V40.5611C36.4529 37.1304 33.6621 34.3397 30.2312 34.3397C26.8009 34.3397 24.0098 37.1303 24.0098 40.5611V49.255C18.908 45.6366 16.9664 40.6071 18.0744 33.8855C18.2857 32.6037 18.0348 32.0915 17.5351 31.2244L17.4219 31.0267C15.2919 27.2868 14.8291 22.9498 16.0829 18.4819ZM57.3952 53.8513C57.3952 55.8055 55.8054 57.3953 53.8512 57.3953H6.14801C4.19391 57.3953 2.60414 55.8055 2.60414 53.8513V33.2582H16.2534C16.2446 33.3502 16.2313 33.4508 16.2103 33.578C14.9774 41.0585 17.2942 46.8938 23.1013 50.9247C23.7961 51.4013 24.7929 51.3 25.3833 50.7065C25.7188 50.369 25.9021 49.9194 25.8996 49.4459V40.5611C25.8996 38.1722 27.8429 36.2287 30.2316 36.2287C32.6203 36.2287 34.5639 38.1722 34.5639 40.5611V49.4408C34.5615 49.9198 34.7449 50.3694 35.0803 50.707C35.4165 51.0449 35.8818 51.2386 36.3559 51.2386C36.7148 51.2386 37.0627 51.1301 37.3665 50.9217C43.1694 46.8938 45.4862 41.0585 44.2528 33.578C44.232 33.4508 44.2186 33.3503 44.2097 33.2582H57.3953V53.8513H57.3952Z" fill="white"/>
</g>
<defs>
<clipPath id="clip0_540_3115">
<rect width="60" height="60" fill="white"/>
</clipPath>
</defs>
</svg>
