<svg width="47" height="47" viewBox="0 0 47 47" fill="none" xmlns="http://www.w3.org/2000/svg">
<path d="M43.6412 16.5299C47.0414 6.00486 36.2885 -4.00566 26.7577 1.62012C24.7774 2.78838 22.317 2.78802 20.337 1.62048C10.8181 -3.99849 0.0525777 5.98765 3.45499 16.5299H3.26637C2.50433 16.5299 1.88672 17.1463 1.88672 17.9065C1.88672 18.6667 2.50433 19.2831 3.26637 19.2831H4.48829C5.49033 22.2257 5.91824 25.2962 5.72674 28.2581C5.22626 36.0224 8.82879 43.0887 14.637 46.7777C15.0774 47.0578 15.1723 46.9932 17.9826 46.9932C18.7446 46.9932 19.3623 46.3768 19.3623 45.6167V34.4196C19.3623 32.1896 21.1806 30.3386 23.4157 30.2937C25.7503 30.2464 27.6401 32.1813 27.6401 34.5107V45.617C27.6401 46.3772 28.2578 46.9932 29.0198 46.9932C32.198 46.9932 32.2645 47.0621 32.7157 46.7598C38.1643 43.1141 41.71 36.1289 41.2872 28.4467C41.1122 25.3295 41.5602 22.1937 42.5838 19.2831H43.736C44.4981 19.2831 45.1157 18.6667 45.1157 17.9065C45.1157 17.2084 44.5918 16.5299 43.6412 16.5299ZM38.5322 28.5991C38.8771 34.8653 36.1332 40.9537 31.5168 44.2404H30.3994V34.5107C30.3994 30.7176 27.3096 27.462 23.3604 27.5413C19.645 27.6155 16.603 30.6351 16.603 34.4196V44.2404H15.7892C10.8559 40.9268 8.0628 34.9101 8.48029 28.4352C8.67574 25.4124 8.29957 22.2949 7.38735 19.2831H16.603V23.4126C16.603 24.1731 17.2206 24.7892 17.9826 24.7892H29.0198C29.7818 24.7892 30.3994 24.1728 30.3994 23.4126V19.2831H39.6769C38.7492 22.2719 38.3554 25.4457 38.5322 28.5991ZM19.3623 22.0363V13.7771H27.6401V22.0363H19.3623ZM40.7033 16.5299H30.3994V12.4005C30.3994 11.6403 29.7818 11.0239 29.0198 11.0239H17.9826C17.2206 11.0239 16.603 11.6403 16.603 12.4005V16.5299H6.39213C2.91068 8.13483 11.3157 -0.505908 18.9326 3.99035C21.7788 5.66887 25.3156 5.66887 28.1625 3.98999C35.812 -0.525988 44.1614 8.19651 40.7033 16.5299Z" fill="white"/>
</svg>
