<svg width="52" height="52" viewBox="0 0 52 52" fill="none" xmlns="http://www.w3.org/2000/svg">
<g clip-path="url(#clip0_369_2004)">
<path d="M47.9375 25.1875C46.6554 25.1875 45.5544 25.9399 45.0263 27.0205C44.7371 26.8881 44.4226 26.8125 44.0952 26.8125C43.4314 26.8125 42.8261 27.1074 42.4076 27.5876C38.5946 24.0329 32.5642 21.9375 26 21.9375C19.4358 21.9375 13.4062 24.0329 9.59319 27.5868C9.17638 27.1074 8.56944 26.8125 7.90481 26.8125C7.57738 26.8125 7.26294 26.8881 6.97369 27.0205C6.44556 25.9399 5.34462 25.1875 4.0625 25.1875C2.27012 25.1875 0.8125 26.6451 0.8125 28.4375C0.8125 40.9817 11.0183 51.1875 23.5625 51.1875H28.4375C40.9817 51.1875 51.1875 40.9817 51.1875 28.4375C51.1875 26.6451 49.7299 25.1875 47.9375 25.1875ZM10.7169 33.4945C10.8347 33.3767 10.9899 33.3125 11.1548 33.3125H11.4717C11.6651 33.3125 11.8503 33.4043 11.9649 33.5587L13.546 35.6793L10.7835 38.4418C10.0344 37.4871 9.39494 36.4471 8.87169 35.3389L10.7169 33.4945ZM14.7794 36.7445C14.8972 36.6267 15.0524 36.5625 15.2173 36.5625H15.6463C15.8145 36.5625 15.9697 36.6267 16.0851 36.7453C16.4166 37.0833 16.9934 37.6659 17.6581 38.3346C17.5922 38.4117 17.5297 38.4922 17.4744 38.5791L15.1125 42.2914C13.9149 41.5586 12.818 40.6811 11.8503 39.6736L14.7794 36.7445ZM18.8459 39.4509C18.9816 39.2373 19.2384 39.1251 19.4894 39.1763L21.9375 39.6662V44.6054C20.0192 44.4145 18.2073 43.8726 16.5433 43.0706L18.8459 39.4509ZM23.5625 39.7987L28.4375 39.8101V44.6875H23.5625V39.7987ZM30.0625 39.6541L32.5106 39.1763C32.7592 39.1259 33.0184 39.2372 33.1541 39.4517L35.4567 43.0714C33.7927 43.8734 31.9808 44.4145 30.0625 44.6054V39.6541ZM36.8867 42.2914L34.5248 38.5791C34.476 38.5019 34.4191 38.4313 34.3614 38.3614C34.7124 37.9998 35.0391 37.6578 35.3145 37.3685C35.555 37.1166 35.7589 36.9029 35.9141 36.7437C36.0295 36.6267 36.1847 36.5625 36.3529 36.5625H36.7819C36.9468 36.5625 37.1028 36.6267 37.2198 36.7445L40.1489 39.6736C39.182 40.6811 38.0851 41.5586 36.8867 42.2914ZM41.2165 38.4418L38.4906 35.7159L40.0343 33.5587C40.1505 33.4043 40.3349 33.3117 40.5283 33.3117H40.8452C41.0101 33.3117 41.1661 33.3759 41.2831 33.4937L43.1283 35.3389C42.6051 36.4471 41.9648 37.4879 41.2165 38.4418ZM44.5331 28.6195L44.6712 28.7576C44.6371 30.4874 44.33 32.149 43.7938 33.7066L42.432 32.3448C42.4198 32.3326 42.406 32.3245 42.3938 32.3131L43.5078 28.86C43.6443 28.4513 44.2252 28.3124 44.5331 28.6195ZM25.1875 23.5804V25.1875H26.8125V23.5796C32.8941 23.7486 38.3719 25.8042 41.6991 29.1712L40.8858 31.6916C40.872 31.6916 40.8582 31.6875 40.8444 31.6875H40.5275C39.8239 31.6875 39.1528 32.0239 38.7213 32.5999L37.0305 34.9619C36.9484 34.9529 36.8672 34.9375 36.7827 34.9375H36.3537C35.7443 34.9375 35.1764 35.1756 34.7547 35.607C34.5954 35.7695 34.3866 35.9889 34.1396 36.2472C33.787 36.6177 33.3458 37.0768 32.8762 37.5546C32.6511 37.5294 32.4204 37.5367 32.1912 37.5822L29.1696 38.1875H26.8125V26.8125H25.1875V38.1875H22.8304L19.8087 37.583C19.5967 37.5408 19.3822 37.5334 19.1726 37.5521C18.3641 36.7388 17.6337 36.0035 17.2461 35.6078C16.8244 35.1756 16.2565 34.9375 15.6471 34.9375H15.2181C15.1556 34.9375 15.0962 34.9505 15.0345 34.9554L13.2681 32.5861C12.8472 32.0239 12.1753 31.6875 11.4717 31.6875H11.1548C11.141 31.6875 11.1272 31.6916 11.1134 31.6916L10.3001 29.172C13.5891 25.8537 19.1839 23.7551 25.1875 23.5804ZM8.48981 28.8535L9.60619 32.3139C9.594 32.3253 9.58019 32.3334 9.568 32.3456L8.20625 33.7074C7.67 32.149 7.36206 30.4883 7.32875 28.7584L7.46687 28.6203C7.77319 28.3116 8.35738 28.4554 8.48981 28.8535ZM28.4375 49.5625H23.5625C11.9137 49.5625 2.4375 40.0863 2.4375 28.4375C2.4375 27.5413 3.16631 26.8125 4.0625 26.8125C4.95869 26.8125 5.6875 27.5413 5.6875 28.4375C5.6875 38.2939 13.7061 46.3125 23.5625 46.3125H28.4375C38.2939 46.3125 46.3125 38.2939 46.3125 28.4375C46.3125 27.5413 47.0413 26.8125 47.9375 26.8125C48.8337 26.8125 49.5625 27.5413 49.5625 28.4375C49.5625 40.0863 40.0863 49.5625 28.4375 49.5625Z" fill="#1986AC"/>
<path d="M7.3125 22.75C7.3125 24.0939 8.40612 25.1875 9.75 25.1875C11.0939 25.1875 12.1875 24.0939 12.1875 22.75V15.4375H15.4375V10.5625H20.3125V12.1875H46.3125C49.0011 12.1875 51.1875 10.0011 51.1875 7.3125C51.1875 4.62394 49.0011 2.4375 46.3125 2.4375H28.9136L27.2886 4.0625H20.3125V5.6875H15.4375V3.25C15.4375 1.90612 14.3439 0.8125 13 0.8125H6.5C5.15612 0.8125 4.0625 1.90612 4.0625 3.25V15.4375H7.3125V22.75ZM10.5625 22.75C10.5625 23.1977 10.1985 23.5625 9.75 23.5625C9.3015 23.5625 8.9375 23.1977 8.9375 22.75V15.4375H10.5625V22.75ZM26.8125 10.5625H25.1875V5.6875H26.8125V10.5625ZM29.5864 4.0625H46.3125C48.1049 4.0625 49.5625 5.52012 49.5625 7.3125C49.5625 9.10488 48.1049 10.5625 46.3125 10.5625H28.4375V5.21138L29.5864 4.0625ZM21.9375 5.6875H23.5625V10.5625H21.9375V5.6875ZM20.3125 7.3125V8.9375H15.4375V7.3125H20.3125ZM6.5 2.4375H13C13.4485 2.4375 13.8125 2.80231 13.8125 3.25V10.5625H5.6875V3.25C5.6875 2.80231 6.0515 2.4375 6.5 2.4375ZM5.6875 12.1875H13.8125V13.8125H5.6875V12.1875Z" fill="#1986AC"/>
</g>
<defs>
<clipPath id="clip0_369_2004">
<rect width="52" height="52" fill="white"/>
</clipPath>
</defs>
</svg>
