<svg width="52" height="52" viewBox="0 0 52 52" fill="none" xmlns="http://www.w3.org/2000/svg">
<path d="M10.5181 27.7981C10.2936 25.3251 10.0813 22.9894 8.87853 20.0082C8.79788 19.8084 8.64115 19.6488 8.44282 19.5645C8.24449 19.4802 8.0208 19.4782 7.82096 19.5588C7.62112 19.6394 7.4615 19.7962 7.37722 19.9945C7.29294 20.1928 7.2909 20.4165 7.37154 20.6164C8.48477 23.375 8.67713 25.4928 8.89975 27.9448C9.15 30.7013 9.43377 33.8253 11.1199 38.4646C11.1555 38.566 11.2108 38.6594 11.2827 38.7393C11.3546 38.8191 11.4416 38.884 11.5387 38.93C11.6358 38.9761 11.7411 39.0024 11.8485 39.0074C11.9558 39.0125 12.0631 38.9962 12.1642 38.9594C12.2652 38.9227 12.3579 38.8664 12.437 38.7936C12.5161 38.7208 12.5799 38.633 12.6248 38.5354C12.6697 38.4377 12.6948 38.3321 12.6987 38.2247C12.7025 38.1173 12.685 38.0102 12.6471 37.9096C11.033 33.4686 10.7595 30.456 10.5181 27.7981Z" fill="white"/>
<path d="M44.6875 26.0044C43.1796 26.0061 41.7339 26.6058 40.6677 27.6721C39.6015 28.7383 39.0017 30.184 39 31.6919V32.5044C38.1666 31.8769 37.2199 31.4164 36.2119 31.148C36.3763 29.9987 36.4717 28.9554 36.5634 27.9426C36.7856 25.4905 36.9775 23.3729 38.0882 20.6143C38.676 19.1547 39 17.3158 39 15.4375C39 12.6491 38.2586 10.0932 36.9124 8.24068C35.3153 6.04368 32.9391 4.87977 30.0407 4.875H30.0155C26.7877 4.875 24.2726 5.8888 22.4351 6.62959C21.5288 6.99522 20.7461 7.31006 20.3161 7.3125C19.8793 7.31057 19.0962 6.99502 18.1899 6.62959C16.3523 5.8888 13.8376 4.875 10.6095 4.875H10.5843C7.68594 4.87977 5.30969 6.04368 3.71262 8.24078C2.36641 10.0933 1.625 12.6492 1.625 15.4375C1.625 17.3157 1.94898 19.1547 2.53693 20.6142C3.64752 23.3729 3.83906 25.4905 4.06148 27.9425C4.32666 30.8689 4.62719 34.1858 6.5848 39.287C8.45528 44.1613 12.2625 44.6875 13.8125 44.6875C15.0414 44.6875 16.2881 44.0273 17.2327 42.8753C18.6111 41.1946 19.1513 38.7738 18.6775 36.3999C18.3076 34.5455 17.6065 30.0372 19.0855 28.2343C19.4216 27.8246 19.823 27.6249 20.3125 27.6249C20.802 27.6249 21.2034 27.8241 21.5395 28.2343C23.0185 30.0376 22.3174 34.5459 21.9475 36.3999C21.4737 38.7738 22.0139 41.1946 23.3923 42.8753C24.3369 44.0273 25.5836 44.6875 26.8125 44.6875C27.2794 44.6872 27.7453 44.643 28.2039 44.5555C28.9564 45.3601 29.865 46.003 30.8743 46.4447C31.8835 46.8865 32.9722 47.1179 34.0739 47.1247C35.1756 47.1316 36.2671 46.9139 37.2818 46.4848C38.2965 46.0557 39.213 45.4242 39.9755 44.629C40.6578 45.6373 41.6456 46.4002 42.7936 46.8053C43.9417 47.2105 45.1894 47.2366 46.3535 46.8799C47.5175 46.5232 48.5363 45.8024 49.2602 44.8235C49.9841 43.8446 50.3749 42.6593 50.375 41.4419V31.6919C50.3733 30.184 49.7735 28.7383 48.7073 27.6721C47.6411 26.6058 46.1954 26.0061 44.6875 26.0044ZM44.6875 27.6294C45.7646 27.6306 46.7972 28.059 47.5588 28.8206C48.3204 29.5822 48.7488 30.6148 48.75 31.6919V35.75H41.5695C41.3182 35.1756 41.0012 34.6322 40.625 34.1306V31.6919C40.6262 30.6148 41.0546 29.5822 41.8162 28.8206C42.5778 28.059 43.6104 27.6306 44.6875 27.6294ZM27.625 39C27.6249 37.9262 27.8908 36.8692 28.399 35.9233C28.9072 34.9774 29.6419 34.1721 30.5373 33.5795C31.4327 32.9869 32.461 32.6254 33.5303 32.5272C34.5996 32.4291 35.6765 32.5974 36.6649 33.0172L28.1422 41.5399C27.8 40.7369 27.6241 39.8729 27.625 39ZM26.8125 43.0625C26.0721 43.0625 25.2835 42.6187 24.6492 41.8449C23.576 40.5363 23.1619 38.6197 23.5414 36.7179C24.4453 32.1895 24.1873 28.8994 22.7963 27.2034C22.1502 26.4164 21.2915 26 20.3125 26C19.3335 26 18.4748 26.4164 17.8291 27.2034C16.4377 28.8995 16.1803 32.1895 17.084 36.7179C17.4635 38.6197 17.0494 40.5366 15.9762 41.8449C15.3415 42.6187 14.5529 43.0625 13.8125 43.0625C12.3043 43.0625 9.55703 42.4964 8.10195 38.7055C6.22517 33.8146 5.93552 30.6172 5.67988 27.7962C5.45645 25.3237 5.24428 22.9883 4.04473 20.0076C3.53224 18.7356 3.25 17.1127 3.25 15.4375C3.25 12.9898 3.8808 10.7732 5.02734 9.19638C6.3246 7.41112 8.19528 6.50396 10.5871 6.5H10.609C13.522 6.5 15.8683 7.44575 17.5824 8.13678C18.6875 8.58203 19.5603 8.93425 20.3161 8.9375C21.0647 8.93425 21.9375 8.58203 23.0426 8.13678C24.7568 7.44575 27.1028 6.5 30.016 6.5H30.0379C32.4297 6.50396 34.3004 7.41112 35.598 9.19628C36.7442 10.7731 37.375 12.9898 37.375 15.4375C37.375 17.1133 37.0928 18.7357 36.5808 20.0078C35.3807 22.9885 35.1691 25.3239 34.9451 27.7964C34.856 28.7792 34.7635 29.791 34.6071 30.891C34.4475 30.8811 34.2875 30.875 34.125 30.875C32.6993 30.8739 31.2984 31.2483 30.0632 31.9605C28.8281 32.6727 27.8023 33.6976 27.089 34.9321C26.3758 36.1666 26.0001 37.5672 26 38.9929C25.9998 40.4187 26.3751 41.8193 27.0881 43.054C26.9962 43.0583 26.9039 43.0625 26.8125 43.0625ZM28.9953 42.9849L38.1099 33.8703C38.5389 34.2044 38.9247 34.5905 39.2584 35.0199L30.1448 44.1334C29.7155 43.7997 29.3293 43.4139 28.9953 42.9849ZM34.125 45.5C33.2543 45.5009 32.3923 45.3259 31.5909 44.9855L40.1105 36.4659C40.5289 37.4542 40.6961 38.5307 40.5971 39.5993C40.4982 40.6679 40.1362 41.6954 39.5434 42.5901C38.9507 43.4847 38.1456 44.2187 37.2002 44.7264C36.2547 45.2342 35.1982 45.5 34.125 45.5ZM44.6875 45.5044C43.9307 45.5051 43.1888 45.294 42.5457 44.895C41.9025 44.496 41.3839 43.925 41.0484 43.2466C42.1267 41.4919 42.4977 39.393 42.0865 37.375H48.75V41.4419C48.7488 42.5189 48.3204 43.5515 47.5588 44.3132C46.7972 45.0748 45.7646 45.5032 44.6875 45.5044Z" fill="white"/>
<path d="M7.31468 16.2422C7.42139 16.2419 7.52699 16.2206 7.62547 16.1795C7.72395 16.1384 7.81336 16.0783 7.88862 16.0027C7.96387 15.927 8.02348 15.8373 8.06404 15.7386C8.10461 15.6399 8.12534 15.5342 8.12505 15.4275C8.12078 13.7602 8.44802 12.5486 9.07161 11.9235C9.44536 11.5492 9.93286 11.3672 10.5625 11.3672C10.778 11.3672 10.9847 11.2816 11.1371 11.1292C11.2894 10.9768 11.375 10.7702 11.375 10.5547C11.375 10.3392 11.2894 10.1325 11.1371 9.98016C10.9847 9.82779 10.778 9.74219 10.5625 9.74219C9.50894 9.74219 8.59559 10.0996 7.92101 10.776C6.97262 11.7268 6.49456 13.2933 6.50005 15.4317C6.50058 15.6469 6.58642 15.853 6.73874 16.0049C6.89105 16.1569 7.09741 16.2422 7.31255 16.2422H7.31468Z" fill="white"/>
</svg>
