<svg width="52" height="52" viewBox="0 0 52 52" fill="none" xmlns="http://www.w3.org/2000/svg">
<g clip-path="url(#clip0_540_2962)">
<path d="M50.2926 3.46453H43.3594C43.3594 1.55107 41.8074 0 39.8928 0C37.9782 0 36.4258 1.55107 36.4258 3.46453V23.6891C36.4254 24.1835 36.5309 24.6724 36.7364 25.1224L40.7592 33.9677V48.5043C40.7592 50.4177 42.3112 51.9688 44.2259 51.9688C46.1405 51.9688 47.6925 50.4177 47.6925 48.5043V33.2168C47.6933 32.7224 47.5877 32.2331 47.3822 31.7831L43.3594 22.9382V22.5199H50.2926C51.2499 22.5199 52.0259 21.7443 52.0259 20.7876V5.1968C52.0259 4.24007 51.2499 3.46453 50.2926 3.46453ZM45.8033 32.4995C45.9056 32.7247 45.9588 32.9694 45.9592 33.2168V48.5043C45.9592 49.461 45.1832 50.2365 44.2259 50.2365C43.2686 50.2365 42.4926 49.461 42.4926 48.5043V33.7798C42.493 33.6561 42.4664 33.5336 42.4148 33.421L38.3154 24.4064C38.2126 24.1812 38.1595 23.9365 38.1595 23.6891V3.46453C38.1595 2.5078 38.9355 1.73227 39.8928 1.73227C40.8501 1.73227 41.6261 2.5078 41.6261 3.46453V23.1261C41.6257 23.2498 41.6523 23.3723 41.7039 23.4845L45.8033 32.4995ZM43.3594 20.7876V19.0553H47.6925C48.1713 19.0553 48.5593 18.6676 48.5593 18.189C48.5593 17.7108 48.1713 17.3231 47.6925 17.3231H43.3594V12.1259H47.6925C48.1713 12.1259 48.5593 11.7381 48.5593 11.2599C48.5593 10.7814 48.1713 10.3936 47.6925 10.3936H43.3594V5.1968H50.2926V6.92907H45.9592C45.4807 6.92907 45.0927 7.31684 45.0927 7.7954C45.0927 8.27357 45.4807 8.66134 45.9592 8.66134H50.2926V13.8585H45.9592C45.4807 13.8585 45.0927 14.2463 45.0927 14.7245C45.0927 15.203 45.4807 15.5908 45.9592 15.5908H50.2926V20.7876H43.3594Z" fill="#1986AC"/>
<path d="M16.0145 36.8867C20.6078 36.8867 23.6951 41.5074 23.6951 48.3857C23.6951 48.8671 23.6809 49.3424 23.6527 49.8111C23.6162 50.3856 23.8181 50.9494 24.2105 51.3701C24.5842 51.7725 25.1087 52.0009 25.6582 52.0001C26.5913 51.9938 27.3982 51.3491 27.6105 50.4407C28.5098 46.8763 28.8843 43.1992 28.7225 39.5265C28.5634 37.3787 28.6463 35.2198 28.9696 33.0903L29.0649 32.463C29.2842 30.4148 29.7587 28.4022 30.4768 26.4713L30.7367 25.8865C30.8728 25.6042 30.9446 25.4206 30.9584 25.3825V25.3762C31.4992 24.2398 31.8392 23.0186 31.9638 21.7661C31.9812 21.6024 31.9915 21.437 31.9959 21.2761C32.2676 16.5436 29.2779 12.2345 24.7481 10.8293C22.3471 10.1125 19.7624 10.3464 17.5296 11.4835C16.5778 11.974 15.4476 11.974 14.4962 11.4835C12.2634 10.3488 9.67951 10.1145 7.27851 10.8293C2.75224 12.2349 -0.235524 16.5396 0.0322672 21.2689C0.0374248 21.4327 0.0469462 21.5984 0.0628154 21.7332C0.187785 22.9715 0.521037 24.1792 1.04908 25.3064C1.04908 25.3139 1.04908 25.3219 1.05345 25.3286C1.06535 25.3627 1.12803 25.5201 1.23515 25.7505C1.39582 26.1291 1.55769 26.5109 1.70765 26.9146C2.25395 28.5493 2.64631 30.2308 2.88038 31.9381C3.33226 34.394 3.47785 36.8958 3.31361 39.387C3.13389 43.1056 3.50642 46.8303 4.4185 50.4399C4.63114 51.3479 5.43809 51.9926 6.3712 51.9989C6.92027 52.0001 7.44514 51.7721 7.81846 51.3693C8.21122 50.9486 8.41355 50.3848 8.37745 49.8103C8.34928 49.342 8.335 48.8667 8.335 48.3845C8.335 41.5074 11.4212 36.8867 16.0145 36.8867ZM6.64772 49.9205C6.65605 50.0181 6.62272 50.1144 6.55567 50.1862C6.47871 50.2417 6.37953 50.2568 6.28947 50.2262C6.19902 50.1957 6.12919 50.1239 6.10182 50.0331C5.23338 46.6019 4.87751 43.0616 5.04533 39.5265C5.21989 36.8907 5.06636 34.2429 4.5883 31.6447C4.47563 30.9802 4.35621 30.3073 4.2237 29.6345C5.58131 30.7986 7.19401 31.6276 8.93128 32.0535C9.00032 32.0709 9.07133 32.0796 9.14274 32.0796C9.57994 32.0785 9.9481 31.7521 10.0013 31.3184C10.0544 30.8846 9.77592 30.4794 9.35182 30.3731C6.49736 29.6654 4.10667 27.7238 2.83 25.0756C2.81373 25.036 2.79707 24.9892 2.78041 24.9527L2.67131 24.6974C2.20237 23.7157 1.90364 22.661 1.78819 21.579C1.77629 21.4596 1.76914 21.3391 1.76478 21.2162C1.52079 17.2779 3.99162 13.6797 7.75617 12.4906C9.73625 11.8967 11.8691 12.0874 13.7127 13.0223C15.156 13.7657 16.8698 13.7657 18.3131 13.0223C20.1567 12.087 22.2899 11.8967 24.2704 12.4906C28.0365 13.6789 30.5086 17.2779 30.2642 21.217C30.2642 21.3375 30.2539 21.4581 30.2384 21.6067C30.1317 22.6753 29.8385 23.7169 29.3715 24.6843L29.1644 25.1553C27.8775 27.7627 25.5062 29.6706 22.6827 30.3704C22.2578 30.475 21.9773 30.8803 22.0293 31.3144C22.0812 31.749 22.4494 32.0765 22.8874 32.0777C22.9584 32.0781 23.029 32.0693 23.0981 32.0519C24.823 31.6284 26.4254 30.8093 27.7779 29.6587C27.6132 30.5246 27.4728 31.385 27.3498 32.2026L27.2562 32.825C26.9134 35.0831 26.8261 37.3724 26.9963 39.6494C27.1455 43.1433 26.7864 46.64 25.9303 50.0304C25.9021 50.1212 25.8319 50.1929 25.7419 50.2231C25.6514 50.2532 25.5522 50.2385 25.4753 50.1826C25.4102 50.1104 25.3789 50.0137 25.3884 49.917C25.4185 49.4138 25.434 48.9035 25.4344 48.3857C25.4344 39.245 20.7058 35.1544 16.0208 35.1544C11.3355 35.1544 6.60169 39.245 6.60169 48.3857C6.60169 48.9023 6.61717 49.4138 6.64772 49.9205Z" fill="#1986AC"/>
</g>
<defs>
<clipPath id="clip0_540_2962">
<rect width="52" height="52" fill="white"/>
</clipPath>
</defs>
</svg>
