<svg width="52" height="52" viewBox="0 0 52 52" fill="none" xmlns="http://www.w3.org/2000/svg">
<g clip-path="url(#clip0_369_1998)">
<path d="M26.9219 18.615C27.4754 18.6145 28.0091 18.8193 28.4209 19.1892C28.8328 19.5592 29.0938 20.0683 29.1523 20.6189L29.6982 25.7048L29.7354 26.0466L29.3984 25.9763C29.3469 25.9655 29.2947 25.9578 29.2422 25.9548V25.9558C28.9029 25.9461 28.5632 25.9453 28.2168 25.9412L27.9951 25.9382L27.9707 25.7175L27.4434 20.8015C27.4298 20.6731 27.3686 20.5538 27.2725 20.4675C27.1764 20.3815 27.0518 20.3344 26.9229 20.3347H25.0732C24.9443 20.3344 24.8197 20.3815 24.7236 20.4675C24.6514 20.5323 24.5986 20.6159 24.5713 20.7078L24.5527 20.8015L24.0283 25.6951L24.0039 25.9226L23.7754 25.9187C23.3636 25.9113 22.9535 25.8923 22.5488 25.8757L22.2812 25.865L22.3096 25.5994L22.8438 20.6189C22.9023 20.0685 23.1626 19.5592 23.5742 19.1892C23.9861 18.8192 24.5206 18.6144 25.0742 18.615H26.9219Z" fill="white" stroke="white" stroke-width="0.5"/>
<path d="M51.8408 47.0029C51.8393 48.3076 51.3208 49.5588 50.3984 50.4814C49.4759 51.404 48.2246 51.9232 46.9199 51.9248H5.09375C3.78891 51.9233 2.53789 51.4041 1.61523 50.4814C0.692629 49.5588 0.173347 48.3077 0.171875 47.0029V27.9561L0.188477 27.6074C0.259506 26.7981 0.556938 26.0222 1.05078 25.3711C1.61509 24.6271 2.40531 24.0861 3.30273 23.8281C6.16122 23.0066 9.53522 23.0591 12.5625 23.418C15.5933 23.7773 18.3001 24.4464 19.8359 24.875C20.7652 25.1327 21.7107 25.3323 22.665 25.4707L23.542 25.5977L22.7275 25.9473C22.1568 26.1927 21.6142 26.4992 21.1094 26.8613L21.0195 26.9258L20.9121 26.9033C20.3975 26.7952 19.8839 26.674 19.373 26.5312C17.2657 25.9429 12.8779 24.8838 8.62305 24.8838H8.61914C6.98376 24.8586 5.35287 25.0603 3.77246 25.4814L3.77148 25.4805C3.23337 25.6353 2.76003 25.9606 2.4209 26.4062C2.08079 26.8532 1.89436 27.3983 1.88965 27.96V47.0029L1.89355 47.1611C1.93359 47.9527 2.26599 48.7035 2.8291 49.2666C3.42963 49.8671 4.24352 50.205 5.09277 50.2061H46.9189L47.0781 50.2021C47.8694 50.1619 48.6197 49.8295 49.1826 49.2666C49.7831 48.6661 50.121 47.8522 50.1221 47.0029V27.96L50.1123 27.75C50.0687 27.2633 49.8885 26.7973 49.5908 26.4062C49.2505 25.9593 48.7746 25.6336 48.2344 25.4795H48.2334C45.6196 24.7279 42.4648 24.7796 39.5791 25.1289C36.698 25.4776 34.1086 26.1204 32.6367 26.5312C32.3677 26.6064 32.0971 26.6692 31.833 26.7314L31.6533 26.7744L31.5781 26.6475C31.5684 26.642 31.555 26.6338 31.5361 26.625C31.4772 26.5974 31.3914 26.5641 31.2832 26.5273C31.0682 26.4544 30.7861 26.3741 30.4961 26.2969C30.207 26.2199 29.9141 26.1474 29.6787 26.0898C29.4488 26.0336 29.2625 25.9895 29.2002 25.9717L29.2344 25.4834C29.9785 25.3799 30.7173 25.2396 31.4473 25.0635L32.1748 24.875C33.7107 24.4463 36.4173 23.7773 39.4482 23.418C42.4755 23.0591 45.8495 23.0067 48.708 23.8281C49.6058 24.0858 50.3962 24.627 50.9609 25.3711C51.5256 26.1152 51.8342 27.022 51.8408 27.9561V47.0029Z" fill="white" stroke="white" stroke-width="0.5"/>
<mask id="path-3-outside-1_369_1998" maskUnits="userSpaceOnUse" x="18.3086" y="24.5786" width="15" height="19" fill="black">
<rect fill="white" x="18.3086" y="24.5786" width="15" height="19"/>
<path d="M32.404 26.0157C32.2904 25.8788 32.1481 25.7686 31.987 25.6931C31.826 25.6175 31.6503 25.5784 31.4724 25.5786H20.5224C20.344 25.5793 20.168 25.6192 20.0067 25.6954C19.8455 25.7716 19.7029 25.8822 19.5891 26.0195C19.4753 26.1568 19.393 26.3174 19.348 26.49C19.303 26.6626 19.2965 26.843 19.3288 27.0184C19.3926 27.38 19.5238 27.7265 19.7156 28.0397C19.6888 28.1301 19.6837 28.2255 19.7006 28.3182C19.7175 28.4109 19.7559 28.4984 19.8129 28.5735C19.8698 28.6487 19.9436 28.7093 20.0283 28.7507C20.113 28.792 20.2063 28.8129 20.3006 28.8115H20.3282C20.5175 29.0098 20.7279 29.2137 20.9611 29.4384C21.1557 29.6253 21.3698 29.8312 21.605 30.0665C21.6944 30.1687 21.7658 30.2853 21.8163 30.4114C21.6981 30.4762 21.6047 30.5784 21.5508 30.702C21.4969 30.8256 21.4855 30.9635 21.5184 31.0942C21.5513 31.225 21.6266 31.3411 21.7326 31.4245C21.8385 31.5079 21.9691 31.5537 22.1039 31.555H22.1734C22.2847 32.0197 22.3891 32.5507 22.487 33.095C22.341 33.1281 22.2122 33.2137 22.1253 33.3357C22.0384 33.4576 21.9994 33.6072 22.0158 33.756C22.0321 33.9049 22.1027 34.0425 22.2141 34.1426C22.3254 34.2427 22.4697 34.2983 22.6194 34.2988H22.6938C22.7133 34.4158 22.7324 34.532 22.7511 34.6461C22.8173 35.0475 22.8851 35.4517 22.9542 35.8535C22.817 35.8982 22.7001 35.9902 22.6243 36.113C22.5486 36.2359 22.5189 36.3816 22.5406 36.5243C22.5622 36.667 22.6338 36.7973 22.7426 36.8922C22.8513 36.987 22.9902 37.0402 23.1346 37.0422H23.1723C23.2312 37.3396 23.2942 37.6308 23.3568 37.9071C23.4145 38.1537 23.4685 38.4064 23.5229 38.6591C23.3741 38.6865 23.2408 38.7684 23.149 38.8887C23.0572 39.009 23.0134 39.1592 23.0263 39.31C23.0391 39.4608 23.1076 39.6014 23.2184 39.7045C23.3292 39.8076 23.4744 39.8657 23.6257 39.8676H23.8032C24.1571 41.1989 24.7039 42.3689 25.997 42.3689C27.2901 42.3689 27.8365 41.1989 28.1907 39.8676H28.3687C28.52 39.8656 28.6651 39.8074 28.7758 39.7043C28.8866 39.6012 28.955 39.4605 28.9678 39.3098C28.9805 39.159 28.9367 39.0089 28.8449 38.8886C28.7531 38.7683 28.6199 38.6865 28.471 38.6591C28.5255 38.4064 28.5799 38.1537 28.6372 37.9071C28.7018 37.6308 28.7627 37.3383 28.8216 37.0422H28.8598C29.0041 37.0401 29.1429 36.9869 29.2517 36.892C29.3604 36.7971 29.4319 36.6667 29.4535 36.5241C29.4751 36.3814 29.4454 36.2357 29.3696 36.1129C29.2938 35.9901 29.177 35.8982 29.0398 35.8535C29.1093 35.4517 29.1771 35.0475 29.2429 34.6461C29.2616 34.532 29.2807 34.4158 29.3002 34.2988H29.3746C29.5243 34.2983 29.6686 34.2427 29.7799 34.1426C29.8912 34.0425 29.9618 33.9049 29.9782 33.756C29.9946 33.6072 29.9556 33.4576 29.8687 33.3357C29.7818 33.2137 29.653 33.1281 29.507 33.095C29.6049 32.5507 29.7101 32.0197 29.8206 31.555H29.8901C30.0249 31.5537 30.1555 31.5079 30.2614 31.4245C30.3674 31.3411 30.4427 31.225 30.4756 31.0942C30.5084 30.9635 30.497 30.8256 30.4431 30.702C30.3892 30.5784 30.2959 30.4762 30.1777 30.4114C30.2282 30.2853 30.2996 30.1687 30.389 30.0665C30.6242 29.8312 30.8383 29.6253 31.0329 29.4384C31.2665 29.2137 31.4765 29.0098 31.6658 28.8115H31.6934C31.7876 28.8127 31.8808 28.7917 31.9654 28.7503C32.05 28.7089 32.1238 28.6483 32.1807 28.5732C32.2376 28.4981 32.2762 28.4108 32.2932 28.3181C32.3103 28.2254 32.3053 28.1301 32.2788 28.0397C32.4704 27.7264 32.6015 27.38 32.6652 27.0184C32.698 26.8423 32.6916 26.6612 32.6464 26.4879C32.6013 26.3146 32.5185 26.1534 32.404 26.0157ZM25.997 41.149C25.5696 41.149 25.2869 40.5936 25.0679 39.8664H26.9261C26.7075 40.5936 26.4248 41.149 25.997 41.149ZM27.451 37.628C27.3912 37.8831 27.3348 38.1447 27.2787 38.406C27.2616 38.4872 27.2442 38.5685 27.2267 38.6477H24.7677C24.7502 38.5664 24.7327 38.4852 24.7157 38.406C24.6596 38.1451 24.6036 37.8831 24.5438 37.628C24.5 37.4407 24.4585 37.2412 24.4171 37.041H27.5777C27.5367 37.2412 27.4944 37.4407 27.451 37.628ZM28.0408 34.4466C27.9653 34.9049 27.8881 35.3672 27.8081 35.8222H24.1863C24.1051 35.3672 24.0291 34.9049 23.9536 34.4466C23.9454 34.3959 23.9373 34.3475 23.9288 34.2976H28.066C28.0575 34.3475 28.049 34.3959 28.0408 34.4466ZM28.2724 33.0788H23.722C23.6225 32.5133 23.525 32.0059 23.4242 31.5537H28.5702C28.4694 32.0059 28.3723 32.5133 28.2724 33.0788ZM29.5277 29.2036C29.2393 29.5304 29.0262 29.9167 28.9037 30.335H23.0911C22.9686 29.9167 22.7555 29.5304 22.4671 29.2036C22.3257 29.0622 22.1937 28.9334 22.0669 28.8103H29.9283C29.8011 28.9334 29.6691 29.0622 29.5277 29.2036ZM31.1121 27.5916H20.8831C20.7008 27.3597 20.577 27.0872 20.5224 26.7974H31.4676C31.4152 27.0872 31.2929 27.3598 31.1113 27.5916H31.1121Z"/>
</mask>
<path d="M32.404 26.0157C32.2904 25.8788 32.1481 25.7686 31.987 25.6931C31.826 25.6175 31.6503 25.5784 31.4724 25.5786H20.5224C20.344 25.5793 20.168 25.6192 20.0067 25.6954C19.8455 25.7716 19.7029 25.8822 19.5891 26.0195C19.4753 26.1568 19.393 26.3174 19.348 26.49C19.303 26.6626 19.2965 26.843 19.3288 27.0184C19.3926 27.38 19.5238 27.7265 19.7156 28.0397C19.6888 28.1301 19.6837 28.2255 19.7006 28.3182C19.7175 28.4109 19.7559 28.4984 19.8129 28.5735C19.8698 28.6487 19.9436 28.7093 20.0283 28.7507C20.113 28.792 20.2063 28.8129 20.3006 28.8115H20.3282C20.5175 29.0098 20.7279 29.2137 20.9611 29.4384C21.1557 29.6253 21.3698 29.8312 21.605 30.0665C21.6944 30.1687 21.7658 30.2853 21.8163 30.4114C21.6981 30.4762 21.6047 30.5784 21.5508 30.702C21.4969 30.8256 21.4855 30.9635 21.5184 31.0942C21.5513 31.225 21.6266 31.3411 21.7326 31.4245C21.8385 31.5079 21.9691 31.5537 22.1039 31.555H22.1734C22.2847 32.0197 22.3891 32.5507 22.487 33.095C22.341 33.1281 22.2122 33.2137 22.1253 33.3357C22.0384 33.4576 21.9994 33.6072 22.0158 33.756C22.0321 33.9049 22.1027 34.0425 22.2141 34.1426C22.3254 34.2427 22.4697 34.2983 22.6194 34.2988H22.6938C22.7133 34.4158 22.7324 34.532 22.7511 34.6461C22.8173 35.0475 22.8851 35.4517 22.9542 35.8535C22.817 35.8982 22.7001 35.9902 22.6243 36.113C22.5486 36.2359 22.5189 36.3816 22.5406 36.5243C22.5622 36.667 22.6338 36.7973 22.7426 36.8922C22.8513 36.987 22.9902 37.0402 23.1346 37.0422H23.1723C23.2312 37.3396 23.2942 37.6308 23.3568 37.9071C23.4145 38.1537 23.4685 38.4064 23.5229 38.6591C23.3741 38.6865 23.2408 38.7684 23.149 38.8887C23.0572 39.009 23.0134 39.1592 23.0263 39.31C23.0391 39.4608 23.1076 39.6014 23.2184 39.7045C23.3292 39.8076 23.4744 39.8657 23.6257 39.8676H23.8032C24.1571 41.1989 24.7039 42.3689 25.997 42.3689C27.2901 42.3689 27.8365 41.1989 28.1907 39.8676H28.3687C28.52 39.8656 28.6651 39.8074 28.7758 39.7043C28.8866 39.6012 28.955 39.4605 28.9678 39.3098C28.9805 39.159 28.9367 39.0089 28.8449 38.8886C28.7531 38.7683 28.6199 38.6865 28.471 38.6591C28.5255 38.4064 28.5799 38.1537 28.6372 37.9071C28.7018 37.6308 28.7627 37.3383 28.8216 37.0422H28.8598C29.0041 37.0401 29.1429 36.9869 29.2517 36.892C29.3604 36.7971 29.4319 36.6667 29.4535 36.5241C29.4751 36.3814 29.4454 36.2357 29.3696 36.1129C29.2938 35.9901 29.177 35.8982 29.0398 35.8535C29.1093 35.4517 29.1771 35.0475 29.2429 34.6461C29.2616 34.532 29.2807 34.4158 29.3002 34.2988H29.3746C29.5243 34.2983 29.6686 34.2427 29.7799 34.1426C29.8912 34.0425 29.9618 33.9049 29.9782 33.756C29.9946 33.6072 29.9556 33.4576 29.8687 33.3357C29.7818 33.2137 29.653 33.1281 29.507 33.095C29.6049 32.5507 29.7101 32.0197 29.8206 31.555H29.8901C30.0249 31.5537 30.1555 31.5079 30.2614 31.4245C30.3674 31.3411 30.4427 31.225 30.4756 31.0942C30.5084 30.9635 30.497 30.8256 30.4431 30.702C30.3892 30.5784 30.2959 30.4762 30.1777 30.4114C30.2282 30.2853 30.2996 30.1687 30.389 30.0665C30.6242 29.8312 30.8383 29.6253 31.0329 29.4384C31.2665 29.2137 31.4765 29.0098 31.6658 28.8115H31.6934C31.7876 28.8127 31.8808 28.7917 31.9654 28.7503C32.05 28.7089 32.1238 28.6483 32.1807 28.5732C32.2376 28.4981 32.2762 28.4108 32.2932 28.3181C32.3103 28.2254 32.3053 28.1301 32.2788 28.0397C32.4704 27.7264 32.6015 27.38 32.6652 27.0184C32.698 26.8423 32.6916 26.6612 32.6464 26.4879C32.6013 26.3146 32.5185 26.1534 32.404 26.0157ZM25.997 41.149C25.5696 41.149 25.2869 40.5936 25.0679 39.8664H26.9261C26.7075 40.5936 26.4248 41.149 25.997 41.149ZM27.451 37.628C27.3912 37.8831 27.3348 38.1447 27.2787 38.406C27.2616 38.4872 27.2442 38.5685 27.2267 38.6477H24.7677C24.7502 38.5664 24.7327 38.4852 24.7157 38.406C24.6596 38.1451 24.6036 37.8831 24.5438 37.628C24.5 37.4407 24.4585 37.2412 24.4171 37.041H27.5777C27.5367 37.2412 27.4944 37.4407 27.451 37.628ZM28.0408 34.4466C27.9653 34.9049 27.8881 35.3672 27.8081 35.8222H24.1863C24.1051 35.3672 24.0291 34.9049 23.9536 34.4466C23.9454 34.3959 23.9373 34.3475 23.9288 34.2976H28.066C28.0575 34.3475 28.049 34.3959 28.0408 34.4466ZM28.2724 33.0788H23.722C23.6225 32.5133 23.525 32.0059 23.4242 31.5537H28.5702C28.4694 32.0059 28.3723 32.5133 28.2724 33.0788ZM29.5277 29.2036C29.2393 29.5304 29.0262 29.9167 28.9037 30.335H23.0911C22.9686 29.9167 22.7555 29.5304 22.4671 29.2036C22.3257 29.0622 22.1937 28.9334 22.0669 28.8103H29.9283C29.8011 28.9334 29.6691 29.0622 29.5277 29.2036ZM31.1121 27.5916H20.8831C20.7008 27.3597 20.577 27.0872 20.5224 26.7974H31.4676C31.4152 27.0872 31.2929 27.3598 31.1113 27.5916H31.1121Z" fill="white"/>
<path d="M32.404 26.0157C32.2904 25.8788 32.1481 25.7686 31.987 25.6931C31.826 25.6175 31.6503 25.5784 31.4724 25.5786H20.5224C20.344 25.5793 20.168 25.6192 20.0067 25.6954C19.8455 25.7716 19.7029 25.8822 19.5891 26.0195C19.4753 26.1568 19.393 26.3174 19.348 26.49C19.303 26.6626 19.2965 26.843 19.3288 27.0184C19.3926 27.38 19.5238 27.7265 19.7156 28.0397C19.6888 28.1301 19.6837 28.2255 19.7006 28.3182C19.7175 28.4109 19.7559 28.4984 19.8129 28.5735C19.8698 28.6487 19.9436 28.7093 20.0283 28.7507C20.113 28.792 20.2063 28.8129 20.3006 28.8115H20.3282C20.5175 29.0098 20.7279 29.2137 20.9611 29.4384C21.1557 29.6253 21.3698 29.8312 21.605 30.0665C21.6944 30.1687 21.7658 30.2853 21.8163 30.4114C21.6981 30.4762 21.6047 30.5784 21.5508 30.702C21.4969 30.8256 21.4855 30.9635 21.5184 31.0942C21.5513 31.225 21.6266 31.3411 21.7326 31.4245C21.8385 31.5079 21.9691 31.5537 22.1039 31.555H22.1734C22.2847 32.0197 22.3891 32.5507 22.487 33.095C22.341 33.1281 22.2122 33.2137 22.1253 33.3357C22.0384 33.4576 21.9994 33.6072 22.0158 33.756C22.0321 33.9049 22.1027 34.0425 22.2141 34.1426C22.3254 34.2427 22.4697 34.2983 22.6194 34.2988H22.6938C22.7133 34.4158 22.7324 34.532 22.7511 34.6461C22.8173 35.0475 22.8851 35.4517 22.9542 35.8535C22.817 35.8982 22.7001 35.9902 22.6243 36.113C22.5486 36.2359 22.5189 36.3816 22.5406 36.5243C22.5622 36.667 22.6338 36.7973 22.7426 36.8922C22.8513 36.987 22.9902 37.0402 23.1346 37.0422H23.1723C23.2312 37.3396 23.2942 37.6308 23.3568 37.9071C23.4145 38.1537 23.4685 38.4064 23.5229 38.6591C23.3741 38.6865 23.2408 38.7684 23.149 38.8887C23.0572 39.009 23.0134 39.1592 23.0263 39.31C23.0391 39.4608 23.1076 39.6014 23.2184 39.7045C23.3292 39.8076 23.4744 39.8657 23.6257 39.8676H23.8032C24.1571 41.1989 24.7039 42.3689 25.997 42.3689C27.2901 42.3689 27.8365 41.1989 28.1907 39.8676H28.3687C28.52 39.8656 28.6651 39.8074 28.7758 39.7043C28.8866 39.6012 28.955 39.4605 28.9678 39.3098C28.9805 39.159 28.9367 39.0089 28.8449 38.8886C28.7531 38.7683 28.6199 38.6865 28.471 38.6591C28.5255 38.4064 28.5799 38.1537 28.6372 37.9071C28.7018 37.6308 28.7627 37.3383 28.8216 37.0422H28.8598C29.0041 37.0401 29.1429 36.9869 29.2517 36.892C29.3604 36.7971 29.4319 36.6667 29.4535 36.5241C29.4751 36.3814 29.4454 36.2357 29.3696 36.1129C29.2938 35.9901 29.177 35.8982 29.0398 35.8535C29.1093 35.4517 29.1771 35.0475 29.2429 34.6461C29.2616 34.532 29.2807 34.4158 29.3002 34.2988H29.3746C29.5243 34.2983 29.6686 34.2427 29.7799 34.1426C29.8912 34.0425 29.9618 33.9049 29.9782 33.756C29.9946 33.6072 29.9556 33.4576 29.8687 33.3357C29.7818 33.2137 29.653 33.1281 29.507 33.095C29.6049 32.5507 29.7101 32.0197 29.8206 31.555H29.8901C30.0249 31.5537 30.1555 31.5079 30.2614 31.4245C30.3674 31.3411 30.4427 31.225 30.4756 31.0942C30.5084 30.9635 30.497 30.8256 30.4431 30.702C30.3892 30.5784 30.2959 30.4762 30.1777 30.4114C30.2282 30.2853 30.2996 30.1687 30.389 30.0665C30.6242 29.8312 30.8383 29.6253 31.0329 29.4384C31.2665 29.2137 31.4765 29.0098 31.6658 28.8115H31.6934C31.7876 28.8127 31.8808 28.7917 31.9654 28.7503C32.05 28.7089 32.1238 28.6483 32.1807 28.5732C32.2376 28.4981 32.2762 28.4108 32.2932 28.3181C32.3103 28.2254 32.3053 28.1301 32.2788 28.0397C32.4704 27.7264 32.6015 27.38 32.6652 27.0184C32.698 26.8423 32.6916 26.6612 32.6464 26.4879C32.6013 26.3146 32.5185 26.1534 32.404 26.0157ZM25.997 41.149C25.5696 41.149 25.2869 40.5936 25.0679 39.8664H26.9261C26.7075 40.5936 26.4248 41.149 25.997 41.149ZM27.451 37.628C27.3912 37.8831 27.3348 38.1447 27.2787 38.406C27.2616 38.4872 27.2442 38.5685 27.2267 38.6477H24.7677C24.7502 38.5664 24.7327 38.4852 24.7157 38.406C24.6596 38.1451 24.6036 37.8831 24.5438 37.628C24.5 37.4407 24.4585 37.2412 24.4171 37.041H27.5777C27.5367 37.2412 27.4944 37.4407 27.451 37.628ZM28.0408 34.4466C27.9653 34.9049 27.8881 35.3672 27.8081 35.8222H24.1863C24.1051 35.3672 24.0291 34.9049 23.9536 34.4466C23.9454 34.3959 23.9373 34.3475 23.9288 34.2976H28.066C28.0575 34.3475 28.049 34.3959 28.0408 34.4466ZM28.2724 33.0788H23.722C23.6225 32.5133 23.525 32.0059 23.4242 31.5537H28.5702C28.4694 32.0059 28.3723 32.5133 28.2724 33.0788ZM29.5277 29.2036C29.2393 29.5304 29.0262 29.9167 28.9037 30.335H23.0911C22.9686 29.9167 22.7555 29.5304 22.4671 29.2036C22.3257 29.0622 22.1937 28.9334 22.0669 28.8103H29.9283C29.8011 28.9334 29.6691 29.0622 29.5277 29.2036ZM31.1121 27.5916H20.8831C20.7008 27.3597 20.577 27.0872 20.5224 26.7974H31.4676C31.4152 27.0872 31.2929 27.3598 31.1113 27.5916H31.1121Z" stroke="white" mask="url(#path-3-outside-1_369_1998)"/>
<path d="M27.627 1.07056C29.263 0.267094 31.22 -0.0487813 33.0186 0.258057C34.8207 0.565565 36.4766 1.50265 37.4736 3.21313C39.0888 5.98422 38.877 9.73889 36.9561 14.3186C36.7967 14.701 36.5283 15.0283 36.1836 15.2581C35.8389 15.4879 35.4338 15.6106 35.0195 15.6106H16.9785C16.5645 15.6105 16.16 15.4877 15.8154 15.2581C15.5138 15.057 15.2694 14.7821 15.1064 14.4602L15.042 14.3196C13.1207 9.73981 12.9131 5.98423 14.5283 3.21313C16.4946 -0.159717 20.9835 -0.512252 24.2178 0.996338C24.2651 1.01838 24.4605 1.11105 24.499 1.12915H24.498C24.9916 1.34737 25.5268 1.45515 26.0664 1.44556C26.6076 1.43589 27.1403 1.30762 27.627 1.07056ZM20.4023 1.87524C18.5999 1.87537 16.898 2.56104 16.0146 4.07837C14.7206 6.29964 14.8869 9.49903 16.6289 13.6545V13.6555C16.6579 13.7252 16.7077 13.7845 16.7705 13.8264C16.8333 13.8682 16.907 13.8909 16.9824 13.8909H35.0205C35.0961 13.8909 35.1705 13.8683 35.2334 13.8264C35.2962 13.7846 35.3449 13.7251 35.374 13.6555L35.375 13.6545C37.0622 9.62922 37.2705 6.49902 36.1074 4.28931L35.9902 4.07837C35.2737 2.84995 34.0241 2.16853 32.6152 1.95239C31.204 1.73596 29.6541 1.99171 28.3857 2.6145H28.3848C28.0437 2.77944 27.6865 2.90562 27.3203 2.99536C27.3924 3.04047 27.4581 3.09689 27.5146 3.16235C27.6589 3.32932 27.7333 3.54547 27.7227 3.76587C27.712 3.98632 27.6168 4.19469 27.457 4.34692C27.3172 4.48004 27.1369 4.56109 26.9463 4.57935L26.8643 4.58325C26.8441 4.58325 26.8246 4.58188 26.8164 4.5813C26.8058 4.58055 26.8037 4.58032 26.8037 4.58032H26.791L26.7783 4.57935C26.3954 4.53961 26.0245 4.42384 25.6865 4.2395C25.3523 4.05719 25.0576 3.8109 24.8184 3.51489V3.51587C24.509 3.17131 24.1412 2.88394 23.7314 2.66821H23.7305C23.7001 2.65218 23.5716 2.59026 23.541 2.57544V2.57446C22.5587 2.11462 21.487 1.87658 20.4023 1.87524Z" fill="white" stroke="white" stroke-width="0.5"/>
</g>
<defs>
<clipPath id="clip0_369_1998">
<rect width="52" height="52" fill="white"/>
</clipPath>
</defs>
</svg>
