<svg width="39" height="47" viewBox="0 0 39 47" fill="none" xmlns="http://www.w3.org/2000/svg">
<path d="M34.5566 0.149414C35.0414 0.149414 35.4443 0.536823 35.4443 1.01855V18.3691C36.1543 18.3862 36.9087 18.6993 37.5088 19.2842L37.7012 19.4854C38.6095 20.5233 38.7298 21.9747 37.8594 22.8232L35.4443 25.1768V36.4795C35.4443 36.7489 35.3129 36.9918 35.1211 37.1523L35.1221 37.1533L25.9463 46.0889C25.787 46.3073 25.5195 46.4501 25.2305 46.4502H1.03809C0.553361 46.4502 0.150391 46.0628 0.150391 45.5811V1.01855C0.150391 0.536823 0.553361 0.149414 1.03809 0.149414H34.5566ZM1.92578 44.7119H24.3428V36.4795C24.343 35.9979 24.7459 35.6113 25.2305 35.6113H33.6787V26.8984L21.8877 38.3936C21.7196 38.5572 21.4968 38.6426 21.2578 38.6426C21.2379 38.6426 21.2007 38.6401 21.1582 38.6309V38.6328L18.7344 38.3643H18.7227L14.2344 38.3369V38.3359C13.9274 38.3356 13.6284 38.1769 13.4707 37.9043L12.5566 36.3594L10.5547 38.085C10.365 38.2481 10.1103 38.3231 9.85742 38.291C9.60167 38.2585 9.3802 38.1175 9.2373 37.9141L9.23633 37.9121L6.94141 34.5615L6.94043 34.5596C6.6739 34.159 6.7741 33.6245 7.18555 33.3535L7.1875 33.3525C7.59319 33.096 8.13572 33.1902 8.41406 33.5918H8.41504L10.1436 36.1211L12.1924 34.3535C12.3921 34.1805 12.6584 34.1056 12.9229 34.1484C13.1873 34.1914 13.4113 34.3433 13.5449 34.5713H13.5439L14.7441 36.6084L17.8262 36.625L17.6621 35.2324L17.6562 35.1328C17.6555 34.9016 17.7542 34.6817 17.915 34.5156L17.9189 34.5127L33.6787 19.1562V1.8877H1.92578V44.7119ZM26.1172 43.4727L32.4092 37.3486H26.1172V43.4727ZM19.4707 35.4482L19.623 36.7207L20.9365 36.8701L33.9355 24.1982L34.4248 23.7207L32.9619 22.2959L19.4707 35.4482ZM29.5234 25.8643C29.8699 25.5892 30.3855 25.6095 30.708 25.9238C31.0538 26.2611 31.0537 26.816 30.708 27.1533L30.707 27.1543L29.0488 28.7617C28.8807 28.9256 28.6485 29.0107 28.4277 29.0107C28.2004 29.0107 27.9767 28.9361 27.7979 28.7617C27.4521 28.4244 27.4521 27.8696 27.7979 27.5322L27.7988 27.5312L29.457 25.9238L29.5234 25.8643ZM23.3965 23.5186C23.881 23.5187 24.2831 23.9052 24.2832 24.3867C24.2832 24.8683 23.881 25.2557 23.3965 25.2559H7.18555C6.70082 25.2559 6.29785 24.8685 6.29785 24.3867C6.29796 23.9051 6.70089 23.5186 7.18555 23.5186H23.3965ZM35.1494 20.1729L34.2275 21.0713L35.6904 22.4971L36.6152 21.5947C36.6717 21.5373 36.7119 21.3949 36.6592 21.1768C36.6087 20.9683 36.4796 20.7259 36.2598 20.5156L36.2588 20.5146C36.0377 20.2991 35.7875 20.1716 35.5742 20.123C35.3506 20.0722 35.2081 20.1143 35.1523 20.1709L35.1504 20.1729L35.0449 20.0654L35.1494 20.1729ZM28.4189 18.1816C28.9035 18.1817 29.3054 18.5683 29.3057 19.0498C29.3057 19.5315 28.9036 19.9189 28.4189 19.9189H7.18555C6.70082 19.9189 6.29785 19.5315 6.29785 19.0498C6.29807 18.5683 6.70095 18.1816 7.18555 18.1816H28.4189ZM28.4189 12.8447C28.9036 12.8448 29.3057 13.2322 29.3057 13.7139C29.3054 14.1954 28.9035 14.582 28.4189 14.582H7.18555C6.70095 14.582 6.29807 14.1954 6.29785 13.7139C6.29785 13.2321 6.70082 12.8447 7.18555 12.8447H28.4189ZM28.4189 7.50781C28.9036 7.50786 29.3057 7.89525 29.3057 8.37695C29.3056 8.85857 28.9036 9.24507 28.4189 9.24512H7.18555C6.70089 9.24512 6.29796 8.8586 6.29785 8.37695C6.29785 7.89522 6.70082 7.50781 7.18555 7.50781H28.4189Z" fill="#1986AC" stroke="#1986AC" stroke-width="0.3"/>
</svg>
