<svg width="0" height="0">
	<symbol xmlns="http://www.w3.org/2000/svg" id="burger1" viewBox="0 0 16 10">
		<line x1="0.75" y1="0.75" x2="15.25" y2="0.75" stroke-width="1.5" stroke-linecap="round"/>
		<line x1="4.75" y1="4.75" x2="15.25" y2="4.75" stroke-width="1.5" stroke-linecap="round"/>
		<line x1="9.75" y1="8.75" x2="15.25" y2="8.75" stroke-width="1.5" stroke-linecap="round"/>
	</symbol>
	<symbol xmlns="http://www.w3.org/2000/svg" id="arrow1" viewBox="0 0 7 14">
		<path d="M1 1L5.73811 6.86914C5.8898 7.05704 5.88552 7.32649 5.72795 7.50948L1 13" stroke-width="2" stroke-linecap="round"/>
	</symbol>
	<symbol xmlns="http://www.w3.org/2000/svg" id="arrow2" viewBox="0 0 16 8">
		<path d="M0.5 3.18188C0.223858 3.18188 2.41411e-08 3.40574 0 3.68188C-2.41411e-08 3.95803 0.223858 4.18188 0.5 4.18188L0.5 3.68188L0.5 3.18188ZM15.8536 4.03544C16.0488 3.84018 16.0488 3.52359 15.8536 3.32833L12.6716 0.146352C12.4763 -0.0489103 12.1597 -0.0489103 11.9645 0.146352C11.7692 0.341614 11.7692 0.658196 11.9645 0.853459L14.7929 3.68189L11.9645 6.51031C11.7692 6.70558 11.7692 7.02216 11.9645 7.21742C12.1597 7.41268 12.4763 7.41268 12.6716 7.21742L15.8536 4.03544ZM0.5 3.68188L0.5 4.18188L15.5 4.18189L15.5 3.68189L15.5 3.18189L0.5 3.18188L0.5 3.68188Z"/>
	</symbol>
	<symbol xmlns="http://www.w3.org/2000/svg" id="close" viewBox="0 0 22 22">
		<path d="M12.9623 11L21.8562 2.10669C22.0476 1.91503 22.0476 1.60447 21.8562 1.41281L20.5878 0.143691C20.4957 0.0519141 20.3706 0 20.2406 0C20.1103 0 19.9854 0.0519141 19.8934 0.143691L10.9997 9.03723L2.10608 0.143691C1.92183 -0.0405579 1.59574 -0.0403262 1.41196 0.143691L0.143751 1.41281C-0.0479169 1.60447 -0.0479169 1.91503 0.143751 2.10669L9.03741 11L0.143751 19.8933C-0.0479169 20.085 -0.0479169 20.3955 0.143751 20.5872L1.41219 21.8563C1.5042 21.9481 1.62912 22 1.75937 22C1.88962 22 2.01431 21.9481 2.10632 21.8563L11 12.9628L19.8936 21.8563C19.9856 21.9481 20.1108 22 20.2408 22C20.3708 22 20.496 21.9481 20.588 21.8563L21.8564 20.5872C22.0479 20.3955 22.0479 20.085 21.8564 19.8933L12.9623 11Z"/>
	</symbol>
</svg>