<svg width="0" height="0">
	<symbol xmlns="http://www.w3.org/2000/svg" id="burger1" viewBox="0 0 16 10">
		<line x1="0.75" y1="0.75" x2="15.25" y2="0.75" stroke-width="1.5" stroke-linecap="round"/>
		<line x1="4.75" y1="4.75" x2="15.25" y2="4.75" stroke-width="1.5" stroke-linecap="round"/>
		<line x1="9.75" y1="8.75" x2="15.25" y2="8.75" stroke-width="1.5" stroke-linecap="round"/>
	</symbol>
	<symbol xmlns="http://www.w3.org/2000/svg" id="arrow1" viewBox="0 0 7 14">
		<path d="M1 1L5.73811 6.86914C5.8898 7.05704 5.88552 7.32649 5.72795 7.50948L1 13" stroke-width="2" stroke-linecap="round"/>
	</symbol>
	<symbol xmlns="http://www.w3.org/2000/svg" id="arrow2" viewBox="0 0 16 8">
		<path d="M0.5 3.18188C0.223858 3.18188 2.41411e-08 3.40574 0 3.68188C-2.41411e-08 3.95803 0.223858 4.18188 0.5 4.18188L0.5 3.68188L0.5 3.18188ZM15.8536 4.03544C16.0488 3.84018 16.0488 3.52359 15.8536 3.32833L12.6716 0.146352C12.4763 -0.0489103 12.1597 -0.0489103 11.9645 0.146352C11.7692 0.341614 11.7692 0.658196 11.9645 0.853459L14.7929 3.68189L11.9645 6.51031C11.7692 6.70558 11.7692 7.02216 11.9645 7.21742C12.1597 7.41268 12.4763 7.41268 12.6716 7.21742L15.8536 4.03544ZM0.5 3.68188L0.5 4.18188L15.5 4.18189L15.5 3.68189L15.5 3.18189L0.5 3.18188L0.5 3.68188Z"/>
	</symbol>
	<symbol xmlns="http://www.w3.org/2000/svg" id="close" viewBox="0 0 22 22">
		<path d="M12.9623 11L21.8562 2.10669C22.0476 1.91503 22.0476 1.60447 21.8562 1.41281L20.5878 0.143691C20.4957 0.0519141 20.3706 0 20.2406 0C20.1103 0 19.9854 0.0519141 19.8934 0.143691L10.9997 9.03723L2.10608 0.143691C1.92183 -0.0405579 1.59574 -0.0403262 1.41196 0.143691L0.143751 1.41281C-0.0479169 1.60447 -0.0479169 1.91503 0.143751 2.10669L9.03741 11L0.143751 19.8933C-0.0479169 20.085 -0.0479169 20.3955 0.143751 20.5872L1.41219 21.8563C1.5042 21.9481 1.62912 22 1.75937 22C1.88962 22 2.01431 21.9481 2.10632 21.8563L11 12.9628L19.8936 21.8563C19.9856 21.9481 20.1108 22 20.2408 22C20.3708 22 20.496 21.9481 20.588 21.8563L21.8564 20.5872C22.0479 20.3955 22.0479 20.085 21.8564 19.8933L12.9623 11Z"/>
	</symbol>
	<symbol xmlns="http://www.w3.org/2000/svg" id="check" viewBox="0 0 22 22">
		<path d="M8.09219 18.08L1.59219 10.56L3.11219 9.12L8.09219 14.82L18.8522 1.46L20.4122 2.88L8.09219 18.08Z"/>
	</symbol>
	<symbol xmlns="http://www.w3.org/2000/svg" id="check2" viewBox="0 0 18 14">
		<path d="M15.8994 0.508789C16.2525 0.133422 16.8583 0.0964897 17.2617 0.422852C17.6762 0.75817 17.7134 1.34798 17.3555 1.73438H17.3545L6.53711 13.2891C6.35945 13.478 6.10569 13.5895 5.84375 13.6006L5.79492 13.6025L5.77734 13.5938C5.53562 13.5867 5.29992 13.4945 5.12402 13.3301L0.488281 8.99707C0.104348 8.63819 0.104303 8.04343 0.488281 7.68457C0.864457 7.33308 1.47625 7.33325 1.85254 7.68457L5.75781 11.335L15.8984 0.508789H15.8994Z" stroke-width="0.4"/>
	</symbol>
	<symbol xmlns="http://www.w3.org/2000/svg" id="cancel" viewBox="0 0 22 22">
		<path d="M12.4273 10.8812L18.8957 4.10515C19.0349 3.95911 19.0349 3.72249 18.8957 3.57646L17.9732 2.60948C17.9063 2.53955 17.8152 2.5 17.7207 2.5C17.6259 2.5 17.5351 2.53955 17.4682 2.60948L10.9999 9.38572L4.53172 2.60948C4.39772 2.4691 4.16056 2.46927 4.02689 2.60948L3.10455 3.57646C2.96515 3.72249 2.96515 3.95911 3.10455 4.10515L9.57277 10.8812L3.10455 17.6573C2.96515 17.8033 2.96515 18.0399 3.10455 18.186L4.02706 19.1529C4.09398 19.2229 4.18483 19.2624 4.27956 19.2624C4.37429 19.2624 4.46498 19.2229 4.53189 19.1529L11.0001 12.3767L17.4683 19.1529C17.5353 19.2229 17.6263 19.2624 17.7208 19.2624C17.8154 19.2624 17.9064 19.2229 17.9733 19.1529L18.8959 18.186C19.0351 18.0399 19.0351 17.8033 18.8959 17.6573L12.4273 10.8812Z"/>
	</symbol>
	<symbol xmlns="http://www.w3.org/2000/svg" id="tooltip" viewBox="0 0 16 16">
		<path d="M8 0C6.41775 0 4.87103 0.469192 3.55544 1.34824C2.23985 2.22729 1.21447 3.47672 0.608967 4.93853C0.00346631 6.40034 -0.15496 8.00887 0.153721 9.56072C0.462403 11.1126 1.22433 12.538 2.34315 13.6569C3.46197 14.7757 4.88743 15.5376 6.43928 15.8463C7.99113 16.155 9.59966 15.9965 11.0615 15.391C12.5233 14.7855 13.7727 13.7602 14.6518 12.4446C15.5308 11.129 16 9.58225 16 8C16 5.87827 15.1571 3.84344 13.6569 2.34315C12.1566 0.842855 10.1217 0 8 0ZM6.33334 12.6667C6.34056 12.4148 6.42198 12.1706 6.56739 11.9648C6.7128 11.759 6.91572 11.6007 7.15073 11.5097C7.38574 11.4187 7.64237 11.3991 7.88846 11.4534C8.13454 11.5077 8.35914 11.6334 8.53409 11.8147C8.70904 11.9961 8.82655 12.2251 8.87191 12.473C8.91726 12.7209 8.88844 12.9766 8.78905 13.2082C8.68966 13.4398 8.52413 13.6369 8.3132 13.7747C8.10227 13.9126 7.85533 13.9852 7.60334 13.9833C7.43242 13.9839 7.26316 13.9499 7.10574 13.8833C6.94832 13.8168 6.80599 13.7191 6.68734 13.596C6.56868 13.473 6.47615 13.3273 6.41531 13.1675C6.35447 13.0078 6.32659 12.8374 6.33334 12.6667ZM9.4 7.61667C8.78 8.34667 8.54667 8.95 8.58667 9.67333L8.61667 10.45H6.71334L6.66667 9.71667C6.56 8.71667 6.91334 7.73333 7.71667 6.76667C8.36 6.01 8.71667 5.45333 8.71667 4.84667C8.71667 4.03667 8.09667 3.84667 7.57667 3.84667C7.09212 3.84851 6.61852 3.99094 6.21334 4.25667L5.84334 4.53667L5.21 2.87L5.42334 2.71333C6.15406 2.25294 7.00312 2.01548 7.86667 2.03C9.91 2.03 10.8267 3.36333 10.8267 4.67667C10.8267 5.83 10.2067 6.66667 9.4 7.61667Z"/>
	</symbol>
</svg>