<svg width="24" height="24" viewBox="0 0 24 24" fill="none" xmlns="http://www.w3.org/2000/svg">
<g clip-path="url(#clip0_369_2334)">
<path fill-rule="evenodd" clip-rule="evenodd" d="M2.99999 0H1.42892L1.8423 1.52901L3.3925 7.26316H0V19.3684H2.39997V23H4.79999V19.3684H9.59998V23H12V19.3684H14.4V18.1579H19.2V23H21.6V18.1579H24V15.7368H14.4V7.26316H9.80748L11.3577 1.52901L11.7711 0H2.99999ZM7.31982 7.26316L8.62888 2.42102H4.57111L5.88016 7.26316H7.31982ZM2.39997 16.9473V9.68418H12V16.9473H2.39997ZM16.8 8.47367H15.6V14.5263H22.8V8.47367H16.8ZM18 12.1053V10.8947H20.4V12.1053H18Z" fill="#1986AC"/>
</g>
<defs>
<clipPath id="clip0_369_2334">
<rect width="24" height="24" fill="white"/>
</clipPath>
</defs>
</svg>
