<svg width="24" height="24" viewBox="0 0 24 24" fill="none" xmlns="http://www.w3.org/2000/svg">
<path d="M7.2 4C3.2304 4 0 7.1195 0 10.9545V11.7273C0 12.3223 0.2416 12.8609 0.6264 13.2727C0.225979 13.6948 0.00266219 14.2457 0 14.8182V15.5909C0 18.5729 2.512 21 5.6 21H18.4C21.488 21 24 18.5729 24 15.5909V14.8182C24 14.2232 23.7584 13.6846 23.3736 13.2727C23.7584 12.8609 24 12.3223 24 11.7273V10.9545C24 7.1195 20.7696 4 16.8 4H7.2ZM7.2 5.54545H16.8C19.0392 5.54545 20.9704 6.82355 21.8656 8.66186C21.7776 8.65259 21.6904 8.63636 21.6 8.63636C21.112 8.63636 20.664 8.77545 20.288 9.015C20.0306 8.65948 19.6882 8.36919 19.2899 8.16875C18.8916 7.96831 18.4491 7.86365 18 7.86364C17.392 7.86364 16.832 8.05682 16.376 8.37364C16.125 7.98278 15.7753 7.65999 15.3597 7.4356C14.944 7.21121 14.4761 7.0926 14 7.09091C13.216 7.09091 12.512 7.40773 12 7.91C11.7399 7.65167 11.429 7.44613 11.0856 7.30547C10.7421 7.16481 10.373 7.09186 10 7.09091C9 7.09091 8.12 7.60864 7.624 8.37364C7.168 8.05682 6.608 7.86364 6 7.86364C5.056 7.86364 4.216 8.31955 3.712 9.015C3.336 8.77545 2.888 8.63636 2.4 8.63636C2.3096 8.63636 2.2224 8.65182 2.1344 8.66186C3.0304 6.82355 4.9608 5.54545 7.2 5.54545ZM10 8.63636C10.664 8.63636 11.2 9.15409 11.2 9.79545V11.7273C11.2 12.1523 10.84 12.5 10.4 12.5H9.6C9.16 12.5 8.8 12.1523 8.8 11.7273V9.79545C8.8 9.15409 9.336 8.63636 10 8.63636ZM14 8.63636C14.664 8.63636 15.2 9.15409 15.2 9.79545V11.7273C15.2 12.1523 14.84 12.5 14.4 12.5H13.6C13.16 12.5 12.8 12.1523 12.8 11.7273V9.79545C12.8 9.15409 13.336 8.63636 14 8.63636ZM6 9.40909C6.664 9.40909 7.2 9.92682 7.2 10.5682V11.7273C7.2 12.1523 6.84 12.5 6.4 12.5H5.6C5.16 12.5 4.8 12.1523 4.8 11.7273V10.5682C4.8 9.92682 5.336 9.40909 6 9.40909ZM18 9.40909C18.664 9.40909 19.2 9.92682 19.2 10.5682V11.7273C19.2 12.1523 18.84 12.5 18.4 12.5H17.6C17.16 12.5 16.8 12.1523 16.8 11.7273V10.5682C16.8 9.92682 17.336 9.40909 18 9.40909ZM2.4 10.1818C2.84 10.1818 3.2 10.5295 3.2 10.9545V11.7273C3.2 12.1523 2.84 12.5 2.4 12.5C1.96 12.5 1.6 12.1523 1.6 11.7273V10.9545C1.6 10.5295 1.96 10.1818 2.4 10.1818ZM21.6 10.1818C22.04 10.1818 22.4 10.5295 22.4 10.9545V11.7273C22.4 12.1523 22.04 12.5 21.6 12.5C21.16 12.5 20.8 12.1523 20.8 11.7273V10.9545C20.8 10.5295 21.16 10.1818 21.6 10.1818ZM2.4 14.0455C2.84 14.0455 3.2 14.3932 3.2 14.8182C3.2 15.2432 2.84 15.5909 2.4 15.5909C1.96 15.5909 1.6 15.2432 1.6 14.8182C1.6 14.3932 1.96 14.0455 2.4 14.0455ZM5.6 14.0455H6.4C6.84 14.0455 7.2 14.3932 7.2 14.8182V15.5909C7.2 16.0159 6.84 16.3636 6.4 16.3636C5.52 16.3636 4.8 15.6682 4.8 14.8182C4.8 14.3932 5.16 14.0455 5.6 14.0455ZM9.6 14.0455H10.4C10.84 14.0455 11.2 14.3932 11.2 14.8182V15.5909C11.2 16.0159 10.84 16.3636 10.4 16.3636H9.6C9.16 16.3636 8.8 16.0159 8.8 15.5909V14.8182C8.8 14.3932 9.16 14.0455 9.6 14.0455ZM13.6 14.0455H14.4C14.84 14.0455 15.2 14.3932 15.2 14.8182V15.5909C15.2 16.0159 14.84 16.3636 14.4 16.3636H13.6C13.16 16.3636 12.8 16.0159 12.8 15.5909V14.8182C12.8 14.3932 13.16 14.0455 13.6 14.0455ZM17.6 14.0455H18.4C18.84 14.0455 19.2 14.3932 19.2 14.8182C19.2 15.6682 18.48 16.3636 17.6 16.3636C17.16 16.3636 16.8 16.0159 16.8 15.5909V14.8182C16.8 14.3932 17.16 14.0455 17.6 14.0455ZM21.6 14.0455C22.04 14.0455 22.4 14.3932 22.4 14.8182C22.4 15.2432 22.04 15.5909 21.6 15.5909C21.16 15.5909 20.8 15.2432 20.8 14.8182C20.8 14.3932 21.16 14.0455 21.6 14.0455ZM3.84 16.6573C4.432 17.4145 5.352 17.9091 6.4 17.9091C7.016 17.9091 7.576 17.6773 8 17.3064C8.424 17.6773 8.984 17.9091 9.6 17.9091H10.4C11.016 17.9091 11.576 17.6773 12 17.3064C12.424 17.6773 12.984 17.9091 13.6 17.9091H14.4C15.016 17.9091 15.576 17.6773 16 17.3064C16.424 17.6773 16.984 17.9091 17.6 17.9091C18.648 17.9091 19.568 17.4145 20.16 16.6573C20.56 16.9586 21.056 17.1364 21.6 17.1364C21.7669 17.1364 21.9296 17.1201 22.088 17.0877C21.782 17.7885 21.269 18.3868 20.6131 18.8077C19.9572 19.2286 19.1875 19.4536 18.4 19.4545H5.6C4.81253 19.4536 4.0428 19.2286 3.3869 18.8077C2.73101 18.3868 2.21803 17.7885 1.912 17.0877C2.0704 17.1196 2.23307 17.1358 2.4 17.1364C2.944 17.1364 3.44 16.9586 3.84 16.6573Z" fill="#1986AC"/>
</svg>
