<svg width="19" height="19" viewBox="0 0 19 19" fill="none" xmlns="http://www.w3.org/2000/svg">
<path fill-rule="evenodd" clip-rule="evenodd" d="M2.60692 7.15099C4.39799 11.0492 7.57965 14.1385 11.5289 15.814L11.5409 15.819L12.3049 16.159C12.7768 16.3694 13.3068 16.411 13.8057 16.2768C14.3047 16.1426 14.7423 15.8408 15.0449 15.422L16.3189 13.659C16.3564 13.6071 16.3725 13.5428 16.3639 13.4793C16.3554 13.4159 16.3228 13.3581 16.2729 13.318L14.0489 11.523C14.0227 11.5018 13.9924 11.4862 13.96 11.477C13.9275 11.4678 13.8936 11.4653 13.8601 11.4696C13.8267 11.4739 13.7944 11.4849 13.7654 11.502C13.7363 11.5191 13.711 11.5419 13.6909 11.569L12.8249 12.737C12.7229 12.8748 12.5767 12.9735 12.4108 13.0166C12.2448 13.0597 12.0691 13.0447 11.9129 12.974C8.95466 11.6326 6.58436 9.26225 5.24292 6.30399C5.17223 6.14778 5.15719 5.97207 5.20032 5.80612C5.24344 5.64017 5.34212 5.49401 5.47992 5.39199L6.64692 4.52499C6.67404 4.50495 6.69682 4.47963 6.7139 4.45055C6.73098 4.42148 6.74199 4.38925 6.74629 4.3558C6.75059 4.32236 6.74808 4.28839 6.7389 4.25594C6.72973 4.22349 6.71409 4.19324 6.69292 4.16699L4.89892 1.94299C4.85878 1.89312 4.80104 1.86055 4.73759 1.85199C4.67415 1.84343 4.60984 1.85954 4.55792 1.89699L2.78492 3.17699C2.36332 3.4811 2.06003 3.92181 1.92658 4.42422C1.79314 4.92664 1.83778 5.45976 2.05292 5.93299L2.60692 7.15099ZM10.9369 17.192C6.64624 15.3697 3.18984 12.012 1.24392 7.77599L1.24192 7.77399L0.687922 6.55399C0.329342 5.76542 0.25483 4.87704 0.477047 4.03976C0.699264 3.20248 1.2045 2.46796 1.90692 1.96099L3.67992 0.680989C4.04305 0.418909 4.49283 0.306014 4.93669 0.365541C5.38054 0.425069 5.78468 0.652489 6.06592 1.00099L7.86092 3.22599C8.00905 3.40956 8.11854 3.62119 8.18281 3.84815C8.24708 4.07511 8.2648 4.31272 8.23491 4.5467C8.20502 4.78069 8.12814 5.00621 8.00888 5.20973C7.88962 5.41324 7.73044 5.59055 7.54092 5.73099L6.87092 6.22699C8.00413 8.42301 9.7929 10.2118 11.9889 11.345L12.4859 10.675C12.6264 10.4856 12.8036 10.3266 13.007 10.2074C13.2105 10.0882 13.4359 10.0114 13.6697 9.98151C13.9036 9.95163 14.1411 9.9693 14.368 10.0335C14.5948 10.0977 14.8064 10.207 14.9899 10.355L17.2149 12.15C17.5637 12.4313 17.7913 12.8356 17.8508 13.2797C17.9104 13.7238 17.7973 14.1738 17.5349 14.537L16.2609 16.301C15.7566 16.9989 15.0275 17.502 14.196 17.7258C13.3646 17.9496 12.4814 17.8805 11.6949 17.53L10.9369 17.192Z" fill="#204F63" stroke="#204F63" stroke-width="0.7"/>
</svg>
