<svg width="10" height="10" viewBox="0 0 10 10" fill="none" xmlns="http://www.w3.org/2000/svg">
<g clip-path="url(#clip0_563_5567)">
<path d="M5.0001 0C2.243 0 0 2.24299 0 4.99991C0 7.75701 2.243 10 5.0001 10C7.75703 10 9.99965 7.75701 9.99965 4.99991C9.99986 2.24299 7.75703 0 5.0001 0ZM5.10738 5.7364L3.09311 5.73605C2.96914 5.73605 2.85265 5.68786 2.7651 5.60032C2.67817 5.51295 2.62972 5.39637 2.62972 5.27231C2.62972 5.14851 2.67756 5.03217 2.7651 4.94448C2.85279 4.85705 2.96914 4.80865 3.09311 4.80848H4.64372V2.94224C4.64372 2.81868 4.69165 2.70201 4.7792 2.61432C4.8668 2.52707 4.98315 2.47893 5.10773 2.47858C5.23112 2.47876 5.3477 2.52689 5.43521 2.61449C5.52276 2.70221 5.57078 2.81853 5.57078 2.94241L5.57115 5.27231C5.57147 5.52796 5.36303 5.73605 5.10738 5.7364Z" fill="#1986AC"/>
</g>
<defs>
<clipPath id="clip0_563_5567">
<rect width="10" height="10" fill="white"/>
</clipPath>
</defs>
</svg>
