<svg width="13" height="18" viewBox="0 0 13 18" fill="none" xmlns="http://www.w3.org/2000/svg">
<path d="M4.22094 10.3783C4.42614 10.2736 4.61894 10.1744 4.78696 10.067C5.39016 9.67865 5.51686 9.18975 5.51686 8.84959C5.51686 8.50805 5.39016 8.01916 4.78558 7.63079C4.61894 7.52337 4.42614 7.42559 4.22094 7.32093C3.05447 6.72599 1.46797 5.91759 1.38672 2.02295H11.261C11.1798 5.91621 9.59329 6.72599 8.42682 7.32093C8.223 7.42559 8.02882 7.52337 7.86218 7.63079C7.2576 8.01916 7.1309 8.50805 7.1309 8.84959C7.1309 9.19113 7.2576 9.67865 7.86218 10.067C8.03019 10.1744 8.223 10.2736 8.42682 10.3783C9.5864 10.9691 11.1605 11.7747 11.2583 15.6087H1.38947C1.48863 11.7733 3.06274 10.9691 4.22094 10.3783Z" fill="white"/>
<path d="M11.8877 15.6323C11.7858 11.3865 9.87157 10.4073 8.71337 9.81786C8.51505 9.71595 8.34291 9.62781 8.20244 9.53691C7.90359 9.34549 7.76036 9.12101 7.76036 8.84833C7.76036 8.57565 7.90359 8.35117 8.20244 8.15974C8.34428 8.06885 8.51505 7.98209 8.71337 7.88018C9.87983 7.28524 11.8148 6.29367 11.8891 1.96247C12.334 1.86469 12.67 1.46807 12.67 0.992941C12.67 0.443449 12.2238 0 11.677 0H0.994318C0.446204 0 0 0.443449 0 0.992941C0 1.46118 0.325013 1.85092 0.758822 1.95696C0.830435 6.29505 2.76812 7.28662 3.93596 7.88155C4.13427 7.98209 4.30504 8.07023 4.44689 8.15974C4.74298 8.35117 4.88758 8.57703 4.88758 8.84971C4.88758 9.12239 4.74298 9.34686 4.44689 9.53829C4.30504 9.62918 4.13427 9.71595 3.93596 9.81786C2.77776 10.4087 0.860732 11.3878 0.760199 15.6405C0.325013 15.7466 0 16.1363 0 16.6046C0 17.1527 0.446204 17.5989 0.994318 17.5989H11.677C12.2238 17.5989 12.67 17.1527 12.67 16.6046C12.67 16.1267 12.334 15.7287 11.8877 15.6323ZM4.22103 10.3784C4.42623 10.2737 4.61903 10.1745 4.78705 10.0671C5.39025 9.67876 5.51695 9.18987 5.51695 8.84971C5.51695 8.50817 5.39025 8.01927 4.78567 7.63091C4.61903 7.52349 4.42623 7.42571 4.22103 7.32104C3.05457 6.72611 1.46807 5.91771 1.38681 2.02307H11.2611C11.1799 5.91633 9.59338 6.72611 8.42692 7.32104C8.22309 7.42571 8.02891 7.52349 7.86227 7.63091C7.2577 8.01927 7.131 8.50817 7.131 8.84971C7.131 9.19124 7.2577 9.67876 7.86227 10.0671C8.03029 10.1745 8.22309 10.2737 8.42692 10.3784C9.58649 10.9692 11.1606 11.7748 11.2584 15.6089H1.38957C1.48872 11.7734 3.06283 10.9692 4.22103 10.3784Z" fill="#204F63"/>
<path d="M10.3647 13.2689H6.5857V8.84818H6.58846C6.58846 8.17475 6.93688 7.57981 7.57038 7.17354C7.7563 7.05235 7.95599 6.95044 8.1667 6.84302C8.51375 6.66537 8.90211 6.4643 9.27119 6.14893H3.37965C3.7446 6.46292 4.12883 6.66123 4.46899 6.83476C4.69623 6.95044 4.89454 7.05235 5.08046 7.17216C5.71258 7.57843 6.061 8.17337 6.061 8.84818H6.06376V13.2689H2.28755C2.12367 13.7674 2.00661 14.3762 1.95703 15.1308H10.6938C10.6442 14.3762 10.5272 13.7674 10.3647 13.2689Z" fill="#1986AC"/>
</svg>
