<svg width="27" height="27" viewBox="0 0 27 27" fill="none" xmlns="http://www.w3.org/2000/svg">
<g clip-path="url(#clip0_540_2923)">
<path d="M17.1139 26.4827C16.7226 26.0915 16.6565 25.7003 16.6565 24.8737C16.6565 21.1985 14.9925 18.6198 13.4993 18.6198C12.006 18.6198 10.342 21.2041 10.342 24.8737C10.342 25.568 10.3696 25.9923 9.88467 26.4827C9.31162 27.0557 8.39144 27.1163 7.7633 26.6535C5.06337 24.5872 2.82628 21.3749 1.56448 17.4737C0.357779 13.8591 0.0712559 10.0682 0.875724 6.91647C1.67468 3.58289 3.57014 1.23009 6.15436 0.370523C8.45205 -0.373334 11.0914 0.139101 13.4993 1.80314C15.9072 0.0840003 18.552 -0.433945 20.8442 0.370523C23.4284 1.23009 25.2632 3.52779 26.1228 6.91096C26.9273 10.0682 26.6408 13.8536 25.434 17.5288C24.1116 21.3749 21.9352 24.6478 19.2352 26.7086C18.9487 26.8849 17.9183 27.3698 17.1139 26.4827ZM13.4993 16.3828C16.3094 16.3828 18.6071 19.6557 18.8936 24.0142C20.7891 22.2344 22.3374 19.6502 23.3127 16.785C24.4037 13.512 24.6351 10.1839 23.9463 7.42891C23.3127 4.84469 21.9352 3.06494 20.1609 2.4919C18.3812 1.85824 16.2598 2.4919 14.1935 4.10083C13.7913 4.44246 13.2183 4.44246 12.816 4.10083C10.8048 2.4919 8.68348 1.86375 6.84863 2.4919C5.01378 3.12004 3.69136 4.84469 3.06322 7.42891C2.37446 10.239 2.60588 13.512 3.69687 16.785C4.67215 19.6557 6.22048 22.2344 8.11594 24.0142C8.39144 19.7108 10.6891 16.3828 13.4993 16.3828Z" fill="#1986AC"/>
</g>
<defs>
<clipPath id="clip0_540_2923">
<rect width="27" height="27" fill="white"/>
</clipPath>
</defs>
</svg>
