<svg width="41" height="41" viewBox="0 0 41 41" fill="none" xmlns="http://www.w3.org/2000/svg">
<g clip-path="url(#clip0_2002_213)">
<path d="M27.0241 10.7222C34.7438 10.7222 41.0013 15.6921 41.0013 21.8227C41.0013 26.2002 37.8106 29.9853 33.1754 31.7926C32.852 33.8927 33.4907 36.1143 35.0933 37.7323C32.0173 37.7323 29.4183 35.6787 28.5633 32.8561C28.0578 32.9001 27.5444 32.9234 27.0241 32.9234C19.3049 32.9234 13.0469 27.9534 13.0469 21.8228C13.0468 15.6921 19.305 10.7222 27.0241 10.7222Z" fill="white"/>
<path d="M13.9772 3.26767C6.25754 3.26767 0 8.23764 0 14.3682C0 18.7457 3.19079 22.5308 7.82595 24.3381C8.14931 26.4381 7.51061 28.6598 5.908 30.2778C8.98405 30.2778 11.5831 28.2242 12.4381 25.4016C12.9436 25.4455 13.457 25.4689 13.9772 25.4689C21.6964 25.4689 27.9545 20.4989 27.9545 14.3683C27.9546 8.23764 21.6964 3.26767 13.9772 3.26767Z" fill="#1986AC"/>
</g>
<defs>
<clipPath id="clip0_2002_213">
<rect width="41" height="41" fill="white"/>
</clipPath>
</defs>
</svg>
